SplineFontDB: 3.2
FontName: BertiogaSans-LightItalic
FullName: Bertioga Sans Light Italic
FamilyName: Bertioga Sans Light
Weight: Light
Copyright: Copyright 2020 The Arimo Project Authors (https://github.com/googlefonts/arimo)\nCopyright 2020 The Libra Sans Project Authors (https://github.com/stefanpeev/libra-sans)\nCopyright 2024 The Bertioga Sans Project Authors (https://github.com/cssobral2013/bertioga-sans)
UComments: "2024-2-22: Created with FontForge (http://fontforge.org)"
Version: 3.004
ItalicAngle: -12
UnderlinePosition: -100
UnderlineWidth: 50
Ascent: 1638
Descent: 410
InvalidEm: 0
LayerCount: 2
Layer: 0 1 "Back" 1
Layer: 1 1 "Fore" 0
XUID: [1021 531 -1996577725 15468395]
StyleMap: 0x0001
FSType: 0
OS2Version: 4
OS2_WeightWidthSlopeOnly: 0
OS2_UseTypoMetrics: 1
CreationTime: 1708628784
ModificationTime: 1708629287
PfmFamily: 17
TTFWeight: 300
TTFWidth: 5
LineGap: 67
VLineGap: 0
Panose: 2 11 3 4 2 2 2 2 2 4
OS2TypoAscent: 1854
OS2TypoAOffset: 0
OS2TypoDescent: -434
OS2TypoDOffset: 0
OS2TypoLinegap: 6
OS2WinAscent: 2136
OS2WinAOffset: 0
OS2WinDescent: 797
OS2WinDOffset: 0
HheadAscent: 1854
HheadAOffset: 0
HheadDescent: -434
HheadDOffset: 0
OS2SubXSize: 1331
OS2SubYSize: 1433
OS2SubXOff: 0
OS2SubYOff: 286
OS2SupXSize: 1331
OS2SupYSize: 1433
OS2SupXOff: 0
OS2SupYOff: 983
OS2StrikeYSize: 102
OS2StrikeYPos: 530
OS2CapHeight: 1409
OS2XHeight: 1082
OS2Vendor: 'GOOG'
OS2CodePages: e00001bf.dff70000
OS2UnicodeRanges: e0000aff.500078ff.00000029.00000000
Lookup: 4 1 0 "dligDiscretionaryLigaturesinHebrewlookup1" { "dligDiscretionaryLigaturesinHebrewlookup1 subtable"  } ['dlig' ('hebr' <'dflt' > ) ]
Lookup: 4 0 0 "ccmpGlyphCompositionDecompositionlookup2" { "ccmpGlyphCompositionDecompositionlookup2 subtable"  } ['ccmp' ('latn' <'dflt' 'MAH ' > 'grek' <'dflt' > 'cyrl' <'dflt' > ) ]
Lookup: 6 0 0 "ccmpGlyphCompositionDecompositionlookup3" { "ccmpGlyphCompositionDecompositionlookup3 subtable"  } ['ccmp' ('latn' <'dflt' 'MAH ' > 'grek' <'dflt' > 'cyrl' <'dflt' > ) ]

StartChar: .notdef
Encoding: 65536 -1 0
Width: 1536
GlyphClass: 2
Flags: HW
LayerCount: 2
Fore
SplineSet
1330 1409 m 1,0,0
 1330 0 l 1,0,0
 205 0 l 1,0,0
 205 1409 l 1,0,0
 1330 1409 l 1,0,0
281 76 m 1,0,0
 1254 76 l 1,0,0
 1254 1333 l 1,0,0
 281 1333 l 1,0,0
 281 76 l 1,0,0
EndSplineSet
EndChar

StartChar: exclam
Encoding: 33 33 4
Width: 531
GlyphClass: 2
Flags: HW
LayerCount: 2
Fore
SplineSet
516.66 1409 m 1,0,0
 297.98 387.43 l 1,0,0
 177.04 387.43 l 1,0,0
 353 1409 l 1,0,0
 516.66 1409 l 1,0,0
275.36 178.23 m 1,0,0
 239.32 0 l 1,0,0
 76.34 0 l 1,0,0
 112.38 178.23 l 1,0,0
 275.36 178.23 l 1,0,0
EndSplineSet
EndChar

StartChar: quotedbl
Encoding: 34 34 5
Width: 646
GlyphClass: 2
Flags: HW
LayerCount: 2
Fore
SplineSet
740.63 1409 m 1,0,0
 641.89 988.44 l 1,0,0
 525.3 988.44 l 1,0,0
 586.66 1409 l 1,0,0
 740.63 1409 l 1,0,0
391.1 1409 m 1,0,0
 291.7 988.44 l 1,0,0
 176.44 988.44 l 1,0,0
 236.47 1409 l 1,0,0
 391.1 1409 l 1,0,0
EndSplineSet
EndChar

StartChar: numbersign
Encoding: 35 35 6
Width: 1139
GlyphClass: 2
Flags: HW
LayerCount: 2
Fore
SplineSet
342.08 416.91 m 1,0,0
 256.76 0 l 1,0,0
 160.95 0 l 1,0,0
 246.6 416.91 l 1,0,0
 30.42 416.91 l 1,0,0
 30.42 511.38 l 1,0,0
 267.63 511.38 l 1,0,0
 348.27 892.59 l 1,0,0
 81.42 892.59 l 1,0,0
 81.42 987.39 l 1,0,0
 367.3 987.39 l 1,0,0
 457.95 1402.98 l 1,0,0
 553.76 1402.98 l 1,0,0
 463.78 987.39 l 1,0,0
 845.26 987.39 l 1,0,0
 934.58 1402.98 l 1,0,0
 1029.4 1402.98 l 1,0,0
 940.08 987.39 l 1,0,0
 1166.59 987.39 l 1,0,0
 1166.59 892.59 l 1,0,0
 921.71 892.59 l 1,0,0
 840.74 511.38 l 1,0,0
 1115.59 511.38 l 1,0,0
 1115.59 416.91 l 1,0,0
 820.38 416.91 l 1,0,0
 730.4 0 l 1,0,0
 635.58 0 l 1,0,0
 723.56 416.91 l 1,0,0
 342.08 416.91 l 1,0,0
364.44 511.38 m 1,0,0
 743.93 511.38 l 1,0,0
 824.57 892.59 l 1,0,0
 447.08 892.59 l 1,0,0
 364.44 511.38 l 1,0,0
EndSplineSet
EndChar

StartChar: dollar
Encoding: 36 36 7
Width: 1139
GlyphClass: 2
Flags: HW
LayerCount: 2
Fore
SplineSet
1069.36 408.83 m 0,0,0
 1069.36 233.07 1069.36 233.07 933.015 130.54 c 0,0,0
 796.67 28.01 796.67 28.01 547.92 21 c 1,0,0
 517.58 -136.04 l 1,0,0
 402.92 -136.04 l 1,0,0
 434.92 23 l 1,0,0
 225.67 41.62 225.67 41.62 122.645 130.465 c 0,0,0
 19.62 219.31 19.62 219.31 -12.33 379.3 c 1,0,0
 118 414.65 l 1,0,0
 148.94 290.74 148.94 290.74 229.36 226.955 c 0,0,0
 309.78 163.17 309.78 163.17 458.3 149.87 c 1,0,0
 561.89 677.52 l 1,0,0
 413.55 719.84 413.55 719.84 349.14 756.27 c 0,0,0
 272.84 799.62 272.84 799.62 233.025 863.955 c 0,0,0
 193.21 928.29 193.21 928.29 193.21 1027.9 c 0,0,0
 193.21 1136.27 193.21 1136.27 258.87 1216.63 c 0,0,0
 324.86 1297.32 324.86 1297.32 438.885 1339.01 c 0,0,0
 552.91 1380.7 552.91 1380.7 697.27 1382.03 c 1,0,0
 722.6 1514.68 l 1,0,0
 837.92 1516 l 1,0,0
 810.92 1376.69 l 1,0,0
 964.94 1351.42 964.94 1351.42 1054.47 1277.74 c 0,0,0
 1144 1204.06 1144 1204.06 1174.29 1086.34 c 1,0,0
 1052.94 1045.3 l 1,0,0
 1002.66 1215.27 1002.66 1215.27 787.55 1251.18 c 1,0,0
 695.28 781.14 l 1,0,0
 886.99 727.15 886.99 727.15 978.175 633.995 c 0,0,0
 1069.36 540.84 1069.36 540.84 1069.36 408.83 c 0,0,0
346.83 1021.96 m 0,0,0
 346.83 949.02 346.83 949.02 395.955 902.555 c 0,0,0
 445.08 856.09 445.08 856.09 587.28 812.46 c 1,0,0
 672.9 1255.18 l 1,0,0
 512.72 1248.53 512.72 1248.53 429.775 1190.21 c 0,0,0
 346.83 1131.89 346.83 1131.89 346.83 1021.96 c 0,0,0
912.41 413 m 0,0,0
 912.41 491.33 912.41 491.33 859.765 545.13 c 0,0,0
 807.12 598.93 807.12 598.93 669.56 644.87 c 1,0,0
 573.95 148.54 l 1,0,0
 747.47 159.18 747.47 159.18 829.94 224.805 c 0,0,0
 912.41 290.43 912.41 290.43 912.41 413 c 0,0,0
EndSplineSet
EndChar

StartChar: percent
Encoding: 37 37 8
Width: 1821
GlyphClass: 2
Flags: HW
LayerCount: 2
Fore
SplineSet
544.67 1421 m 0,0,0
 661.42 1421 661.42 1421 724.295 1342.165 c 0,0,0
 787.17 1263.33 787.17 1263.33 787.17 1113 c 0,0,0
 787.17 1022.36 787.17 1022.36 774.47 942.98 c 0,0,0
 761.8 874.98 761.8 874.98 738.635 808.005 c 0,0,0
 715.47 741.03 715.47 741.03 680.48 688.05 c 0,0,0
 575.1 524 575.1 524 405.67 524 c 0,0,0
 287.61 524 287.61 524 222.415 606.005 c 0,0,0
 157.22 688.01 157.22 688.01 157.22 841 c 0,0,0
 157.22 1005.81 157.22 1005.81 211.81 1169.28 c 1,0,0
 310.44 1421 310.44 1421 544.67 1421 c 0,0,0
404.87 0 m 1,0,0
 250.43 0 l 1,0,0
 1469.43 1409 l 1,0,0
 1625.87 1409 l 1,0,0
 404.87 0 l 1,0,0
543.67 1327.19 m 0,0,0
 467.76 1327.19 467.76 1327.19 420.47 1290.91 c 0,0,0
 373.18 1254.63 373.18 1254.63 338.21 1176.75 c 0,0,0
 320.18 1131.43 320.18 1131.43 304.83 1069.405 c 0,0,0
 289.48 1007.38 289.48 1007.38 279.975 943.52 c 0,0,0
 270.47 879.66 270.47 879.66 270.47 827 c 0,0,0
 270.47 621.16 270.47 621.16 409.67 621.16 c 0,0,0
 499.62 621.16 499.62 621.16 557.92 693.77 c 0,0,0
 591.91 737.74 591.91 737.74 617.4 809.525 c 0,0,0
 642.89 881.31 642.89 881.31 656.89 954.31 c 1,0,0
 672.92 1053 672.92 1053 672.92 1131 c 0,0,0
 672.92 1327.19 672.92 1327.19 543.67 1327.19 c 0,0,0
1480.6 885.99 m 0,0,0
 1597.35 885.99 1597.35 885.99 1660.06 807.155 c 0,0,0
 1722.77 728.32 1722.77 728.32 1722.77 577.99 c 0,0,0
 1722.77 490.01 1722.77 490.01 1708.74 401.32 c 0,0,0
 1696.07 334.65 1696.07 334.65 1672.905 269.67 c 0,0,0
 1649.74 204.69 1649.74 204.69 1616.08 153.04 c 0,0,0
 1510.7 -11.01 1510.7 -11.01 1341.27 -11.01 c 0,0,0
 1223.21 -11.01 1223.21 -11.01 1158.015 70.995 c 0,0,0
 1092.82 153 1092.82 153 1092.82 305.99 c 0,0,0
 1092.82 470.8 1092.82 470.8 1147.41 634.27 c 1,0,0
 1246.04 885.99 1246.04 885.99 1480.6 885.99 c 0,0,0
1479.27 792.18 m 0,0,0
 1403.03 792.18 1403.03 792.18 1355.905 755.9 c 0,0,0
 1308.78 719.62 1308.78 719.62 1273.81 641.74 c 0,0,0
 1255.78 596.42 1255.78 596.42 1240.265 534.395 c 0,0,0
 1224.75 472.37 1224.75 472.37 1215.41 408.51 c 0,0,0
 1206.07 344.65 1206.07 344.65 1206.07 291.99 c 0,0,0
 1206.07 86.15 1206.07 86.15 1345.27 86.15 c 0,0,0
 1434.23 86.15 1434.23 86.15 1492.2 157.11 c 0,0,0
 1529.18 202.41 1529.18 202.41 1555.83 280.51 c 0,0,0
 1582.48 358.61 1582.48 358.61 1595.15 436.59 c 1,0,0
 1608.52 524.64 1608.52 524.64 1608.52 595.99 c 0,0,0
 1608.52 792.18 1608.52 792.18 1479.27 792.18 c 0,0,0
EndSplineSet
EndChar

StartChar: ampersand
Encoding: 38 38 9
Width: 1328
GlyphClass: 2
Flags: HW
LayerCount: 2
Fore
SplineSet
1221.27 686.31 m 1,0,0
 1143.02 511.82 1143.02 511.82 1071.345 390.34 c 0,0,0
 999.67 268.86 999.67 268.86 925.98 190.51 c 1,0,0
 966.64 150.53 966.64 150.53 1018.79 128.545 c 0,0,0
 1070.94 106.56 1070.94 106.56 1113.97 106.56 c 0,0,0
 1173.98 106.56 1173.98 106.56 1226.3 122.56 c 1,0,0
 1221.88 10 l 1,0,0
 1164.86 -12 1164.86 -12 1101.5 -12 c 0,0,0
 960.75 -12 960.75 -12 841.72 111.65 c 1,0,0
 806.72 87.64 806.72 87.64 767.74 65.98 c 0,0,0
 728.76 44.32 728.76 44.32 685.47 28 c 0,0,0
 622.83 3.34 622.83 3.34 559.15 -8.33 c 0,0,0
 495.47 -20 495.47 -20 432.08 -20 c 0,0,0
 247.04 -20 247.04 -20 137.38 81.82 c 0,0,0
 27.72 183.64 27.72 183.64 27.72 350.01 c 0,0,0
 27.72 455.67 27.72 455.67 65.245 532.69 c 0,0,0
 102.77 609.71 102.77 609.71 195.94 673.885 c 0,0,0
 289.11 738.06 289.11 738.06 457.71 804.35 c 1,0,0
 444.04 866.98 444.04 866.98 438.03 923.33 c 0,0,0
 432.02 979.68 432.02 979.68 432.02 1035.67 c 0,0,0
 432.02 1209 432.02 1209 538.54 1313 c 0,0,0
 645.06 1417 645.06 1417 821.45 1417 c 0,0,0
 952.52 1417 952.52 1417 1038.36 1343.515 c 0,0,0
 1124.2 1270.03 1124.2 1270.03 1124.2 1153.35 c 0,0,0
 1124.2 1029.1 1124.2 1029.1 1030.655 937.82 c 0,0,0
 937.11 846.54 937.11 846.54 686.19 755.62 c 0,0,0
 659.15 747.9 659.15 747.9 642.01 743.82 c 0,0,0
 624.87 739.74 624.87 739.74 616.3 736.31 c 1,0,0
 652.65 626.62 652.65 626.62 712.595 511.065 c 0,0,0
 772.54 395.51 772.54 395.51 849.48 288.6 c 1,0,0
 907.17 355.61 907.17 355.61 963.675 450.6 c 0,0,0
 1020.18 545.59 1020.18 545.59 1107.42 732.07 c 1,0,0
 1221.27 686.31 l 1,0,0
567.25 1041 m 0,0,0
 567.25 960.67 567.25 960.67 585.92 852.11 c 1,0,0
 667.56 881.77 667.56 881.77 743.49 909.255 c 0,0,0
 819.42 936.74 819.42 936.74 880.33 974.02 c 0,0,0
 931.66 1006.02 931.66 1006.02 962.48 1047.845 c 0,0,0
 993.3 1089.67 993.3 1089.67 993.3 1149.98 c 0,0,0
 993.3 1219.6 993.3 1219.6 943.84 1265.885 c 0,0,0
 894.38 1312.17 894.38 1312.17 816.43 1312.17 c 0,0,0
 695.52 1312.17 695.52 1312.17 631.385 1240.545 c 0,0,0
 567.25 1168.92 567.25 1168.92 567.25 1041 c 0,0,0
438.47 91.53 m 0,0,0
 526.74 91.53 526.74 91.53 606.03 118.02 c 0,0,0
 685.32 144.51 685.32 144.51 762.24 199.79 c 1,0,0
 685.61 292.43 685.61 292.43 613 423.84 c 0,0,0
 540.39 555.25 540.39 555.25 494.41 689.52 c 1,0,0
 311.89 620.22 311.89 620.22 240.78 545.575 c 0,0,0
 169.67 470.93 169.67 470.93 169.67 352.02 c 0,0,0
 169.67 232.44 169.67 232.44 243.615 161.985 c 0,0,0
 317.56 91.53 317.56 91.53 438.47 91.53 c 0,0,0
EndSplineSet
EndChar

StartChar: quotesingle
Encoding: 39 39 10
Width: 359
GlyphClass: 2
Flags: HW
LayerCount: 2
Fore
SplineSet
417.98 1409 m 1,0,0
 318.58 988.44 l 1,0,0
 203.32 988.44 l 1,0,0
 263.02 1409 l 1,0,0
 417.98 1409 l 1,0,0
EndSplineSet
EndChar

StartChar: parenleft
Encoding: 40 40 11
Width: 682
GlyphClass: 2
Flags: HW
LayerCount: 2
Fore
SplineSet
848.73 1484 m 1,0,0
 252.91 972.03 252.91 972.03 252.91 256.06 c 0,0,0
 252.91 -129.64 252.91 -129.64 479.71 -423.67 c 1,0,0
 339.04 -423.67 l 1,0,0
 103.26 -135.27 103.26 -135.27 103.26 272.06 c 0,0,0
 103.26 647.03 103.26 647.03 259.2 955.35 c 0,0,0
 415.14 1263.67 415.14 1263.67 710.04 1484 c 1,0,0
 848.73 1484 l 1,0,0
EndSplineSet
EndChar

StartChar: parenright
Encoding: 41 41 12
Width: 682
GlyphClass: 2
Flags: HW
LayerCount: 2
Fore
SplineSet
-205.27 -423.67 m 1,0,0
 390.22 84.01 390.22 84.01 390.22 794.37 c 0,0,0
 390.22 996.29 390.22 996.29 334.925 1165.32 c 0,0,0
 279.63 1334.35 279.63 1334.35 164.08 1484 c 1,0,0
 308.05 1484 l 1,0,0
 539.54 1197.25 539.54 1197.25 539.54 778.37 c 0,0,0
 539.54 407.36 539.54 407.36 384.26 101.68 c 0,0,0
 228.98 -204 228.98 -204 -66.58 -423.67 c 1,0,0
 -205.27 -423.67 l 1,0,0
EndSplineSet
EndChar

StartChar: asterisk
Encoding: 42 42 13
Width: 797
GlyphClass: 2
Flags: HW
LayerCount: 2
Fore
SplineSet
735.86 760.02 m 1,0,0
 638.31 704.19 l 1,0,0
 486.99 964.17 l 1,0,0
 328.68 706.85 l 1,0,0
 231.79 762.02 l 1,0,0
 420.46 1022.23 l 1,0,0
 130.56 1099.19 l 1,0,0
 167.97 1212.4 l 1,0,0
 444.21 1104.41 l 1,0,0
 434.19 1409 l 1,0,0
 544.12 1409 l 1,0,0
 532.77 1107.07 l 1,0,0
 806.34 1209.74 l 1,0,0
 843.75 1099.19 l 1,0,0
 551.19 1022.23 l 1,0,0
 735.86 760.02 l 1,0,0
EndSplineSet
EndChar

StartChar: plus
Encoding: 43 43 14
Width: 1196
GlyphClass: 2
Flags: HW
LayerCount: 2
Fore
SplineSet
684.83 620.87 m 1,0,0
 684.83 186.27 l 1,0,0
 563.9 186.27 l 1,0,0
 563.9 620.87 l 1,0,0
 131.65 620.87 l 1,0,0
 131.65 741.13 l 1,0,0
 563.9 741.13 l 1,0,0
 563.9 1175.73 l 1,0,0
 684.83 1175.73 l 1,0,0
 684.83 741.13 l 1,0,0
 1116.09 741.13 l 1,0,0
 1116.09 620.87 l 1,0,0
 684.83 620.87 l 1,0,0
EndSplineSet
EndChar

StartChar: comma
Encoding: 44 44 15
Width: 569
GlyphClass: 2
Flags: HW
LayerCount: 2
Fore
SplineSet
283.16 46.05 m 2,0,0
 266.81 -40.7 266.81 -40.7 237.11 -110.255 c 0,0,0
 207.41 -179.81 207.41 -179.81 158.35 -243.85 c 1,0,0
 55.81 -243.85 l 1,0,0
 109.87 -179.15 109.87 -179.15 140.755 -118.76 c 0,0,0
 171.64 -58.37 171.64 -58.37 184.31 0 c 1,0,0
 109.84 0 l 1,0,0
 146.23 190.62 l 1,0,0
 310.21 190.62 l 1,0,0
 283.16 46.05 l 2,0,0
EndSplineSet
EndChar

StartChar: hyphen
Encoding: 45 45 16
Width: 682
GlyphClass: 2
Flags: HW
LayerCount: 2
Fore
SplineSet
640.29 614.43 m 1,0,0
 614.57 482.15 l 1,0,0
 121.17 482.15 l 1,0,0
 146.89 614.43 l 1,0,0
 640.29 614.43 l 1,0,0
EndSplineSet
EndChar

StartChar: period
Encoding: 46 46 17
Width: 569
GlyphClass: 2
Flags: HW
LayerCount: 2
Fore
SplineSet
292.92 190.62 m 1,0,0
 255.2 0 l 1,0,0
 91.22 0 l 1,0,0
 128.94 190.62 l 1,0,0
 292.92 190.62 l 1,0,0
EndSplineSet
EndChar

StartChar: slash
Encoding: 47 47 18
Width: 569
GlyphClass: 2
Flags: HW
LayerCount: 2
Fore
SplineSet
743.68 1484 m 1,0,0
 5.07 -13.07 l 1,0,0
 -129.2 -13.07 l 1,0,0
 612.08 1484 l 1,0,0
 743.68 1484 l 1,0,0
EndSplineSet
EndChar

StartChar: zero
Encoding: 48 48 19
Width: 1139
GlyphClass: 2
Flags: HW
LayerCount: 2
Fore
SplineSet
734.64 1430 m 0,0,0
 913.02 1430 913.02 1430 1018.005 1304.855 c 0,0,0
 1122.99 1179.71 1122.99 1179.71 1122.99 964 c 0,0,0
 1122.99 660.48 1122.99 660.48 1031.79 404.32 c 0,0,0
 951.81 198.31 951.81 198.31 811.285 89.155 c 0,0,0
 670.76 -20 670.76 -20 475.34 -20 c 0,0,0
 300.61 -20 300.61 -20 195.465 112.795 c 0,0,0
 90.32 245.59 90.32 245.59 90.32 468.63 c 0,0,0
 90.32 597.54 90.32 597.54 110.32 721.71 c 0,0,0
 130.32 845.88 130.32 845.88 168.32 956.585 c 0,0,0
 206.32 1067.29 206.32 1067.29 259.65 1155.97 c 0,0,0
 339.98 1290.32 339.98 1290.32 457.31 1360.16 c 0,0,0
 574.64 1430 574.64 1430 734.64 1430 c 0,0,0
489.02 102.58 m 0,0,0
 650.91 102.58 650.91 102.58 755.49 207.92 c 0,0,0
 796.79 249.59 796.79 249.59 831.93 312.275 c 0,0,0
 867.07 374.96 867.07 374.96 894.385 452.47 c 0,0,0
 921.7 529.98 921.7 529.98 940.855 616.63 c 0,0,0
 960.01 703.28 960.01 703.28 970.17 793.05 c 0,0,0
 980.33 882.82 980.33 882.82 980.33 971.68 c 0,0,0
 980.33 1139.55 980.33 1139.55 913.735 1223.985 c 0,0,0
 847.14 1308.42 847.14 1308.42 728.58 1308.42 c 0,0,0
 655.88 1308.42 655.88 1308.42 591.575 1288.685 c 0,0,0
 527.27 1268.95 527.27 1268.95 477.3 1232.78 c 0,0,0
 419.73 1179.45 419.73 1179.45 374.63 1091.96 c 0,0,0
 329.53 1004.47 329.53 1004.47 297.405 896.68 c 0,0,0
 265.28 788.89 265.28 788.89 249.13 672.155 c 0,0,0
 232.98 555.42 232.98 555.42 232.98 445.59 c 0,0,0
 232.98 274.75 232.98 274.75 300.73 188.665 c 0,0,0
 368.48 102.58 368.48 102.58 489.02 102.58 c 0,0,0
EndSplineSet
EndChar

StartChar: one
Encoding: 49 49 20
Width: 1139
GlyphClass: 2
Flags: HW
LayerCount: 2
Fore
SplineSet
945.21 127.26 m 1,0,0
 919.83 0 l 1,0,0
 59.6 0 l 1,0,0
 85.31 127.26 l 1,0,0
 447.61 127.26 l 1,0,0
 665.18 1246.43 l 1,0,0
 310.78 1020.46 l 1,0,0
 341.82 1180 l 1,0,0
 712.55 1409 l 1,0,0
 844.23 1409 l 1,0,0
 595.61 127.26 l 1,0,0
 945.21 127.26 l 1,0,0
EndSplineSet
EndChar

StartChar: two
Encoding: 50 50 21
Width: 1139
GlyphClass: 2
Flags: HW
LayerCount: 2
Fore
SplineSet
933.16 127.26 m 1,0,0
 909.11 0 l 1,0,0
 -5.4 0 l 1,0,0
 14.31 104.56 l 1,0,0
 79.21 214.06 79.21 214.06 160.41 298.28 c 0,0,0
 241.61 382.5 241.61 382.5 329.47 450.75 c 0,0,0
 381.78 488.11 381.78 488.11 434.095 519.97 c 0,0,0
 486.41 551.83 486.41 551.83 529.315 576.405 c 0,0,0
 572.22 600.98 572.22 600.98 596.46 613.16 c 0,0,0
 666.47 655.85 666.47 655.85 732.93 702.665 c 0,0,0
 799.39 749.48 799.39 749.48 852.99 808.4 c 0,0,0
 897.68 858.41 897.68 858.41 923.855 920.395 c 0,0,0
 950.03 982.38 950.03 982.38 950.03 1063 c 0,0,0
 950.03 1169.91 950.03 1169.91 880.27 1238.495 c 0,0,0
 810.51 1307.08 810.51 1307.08 696.26 1307.08 c 0,0,0
 580.33 1307.08 580.33 1307.08 490.42 1242.465 c 0,0,0
 400.51 1177.85 400.51 1177.85 360.21 1051.26 c 1,0,0
 221.89 1081 l 1,0,0
 276.22 1248.03 276.22 1248.03 398.9 1339.015 c 0,0,0
 521.58 1430 521.58 1430 704.29 1430 c 0,0,0
 820.35 1430 820.35 1430 911.03 1383.685 c 0,0,0
 1001.71 1337.37 1001.71 1337.37 1053.87 1257.045 c 0,0,0
 1106.03 1176.72 1106.03 1176.72 1106.03 1076.35 c 0,0,0
 1106.03 968.38 1106.03 968.38 1052.06 866.75 c 0,0,0
 1016.08 800.77 1016.08 800.77 957.115 738.79 c 0,0,0
 898.15 676.81 898.15 676.81 804.855 608.49 c 0,0,0
 711.56 540.17 711.56 540.17 569.6 452.51 c 0,0,0
 417.65 358.52 417.65 358.52 323.19 279.88 c 0,0,0
 228.73 201.24 228.73 201.24 182.07 127.26 c 1,0,0
 933.16 127.26 l 1,0,0
EndSplineSet
EndChar

StartChar: three
Encoding: 51 51 22
Width: 1139
GlyphClass: 2
Flags: HW
LayerCount: 2
Fore
SplineSet
576.23 783.78 m 2,0,0
 770.45 783.78 770.45 783.78 866.56 861.73 c 0,0,0
 962.67 939.68 962.67 939.68 962.67 1090.9 c 0,0,0
 962.67 1190.83 962.67 1190.83 894.91 1248.955 c 0,0,0
 827.15 1307.08 827.15 1307.08 719.22 1307.08 c 0,0,0
 591.64 1307.08 591.64 1307.08 497.395 1241.13 c 0,0,0
 403.15 1175.18 403.15 1175.18 366.51 1057.91 c 1,0,0
 217.88 1059.37 l 1,0,0
 278.19 1248.01 278.19 1248.01 413.175 1339.005 c 0,0,0
 548.16 1430 548.16 1430 728.89 1430 c 0,0,0
 910.61 1430 910.61 1430 1016.63 1337.67 c 0,0,0
 1122.65 1245.34 1122.65 1245.34 1122.65 1086 c 0,0,0
 1122.65 933.99 1122.65 933.99 1026.315 836.995 c 0,0,0
 929.98 740 929.98 740 752.34 714.36 c 1,0,0
 751.34 710.36 l 1,0,0
 881.02 682.71 881.02 682.71 954.845 604.21 c 0,0,0
 1028.67 525.71 1028.67 525.71 1028.67 403.37 c 0,0,0
 1028.67 279.37 1028.67 279.37 970.32 182.36 c 0,0,0
 910.64 87.01 910.64 87.01 797.295 33.505 c 0,0,0
 683.95 -20 683.95 -20 530.95 -20 c 0,0,0
 407.25 -20 407.25 -20 309.24 26.97 c 0,0,0
 118.8 121.27 118.8 121.27 58.56 336.35 c 1,0,0
 183.62 387.65 l 1,0,0
 219.89 263.07 219.89 263.07 319.77 183.33 c 0,0,0
 419.65 103.59 419.65 103.59 546.61 103.59 c 0,0,0
 699.82 103.59 699.82 103.59 786.25 184.195 c 0,0,0
 872.68 264.8 872.68 264.8 872.68 400.04 c 0,0,0
 872.68 518.31 872.68 518.31 791.08 584.76 c 0,0,0
 709.48 651.21 709.48 651.21 574.21 651.21 c 2,0,0
 444.6 651.21 l 1,0,0
 469.98 783.78 l 1,0,0
 576.23 783.78 l 2,0,0
EndSplineSet
EndChar

StartChar: four
Encoding: 52 52 23
Width: 1139
GlyphClass: 2
Flags: HW
LayerCount: 2
Fore
SplineSet
836.76 329.89 m 1,0,0
 772.12 0 l 1,0,0
 621.16 0 l 1,0,0
 685.8 329.89 l 1,0,0
 28.51 329.89 l 1,0,0
 50.89 447.78 l 1,0,0
 903.55 1409 l 1,0,0
 1046.12 1409 l 1,0,0
 860.14 449.45 l 1,0,0
 1048.14 449.45 l 1,0,0
 1024.76 329.89 l 1,0,0
 836.76 329.89 l 1,0,0
834.58 1140.83 m 1,0,0
 804.93 1108.48 804.93 1108.48 776.095 1078.615 c 0,0,0
 747.26 1048.75 747.26 1048.75 720.24 1018.71 c 2,0,0
 216.44 449.45 l 1,0,0
 709.18 449.45 l 1,0,0
 813.84 1002.71 l 2,0,0
 821.51 1038.4 821.51 1038.4 826.03 1072.93 c 0,0,0
 830.55 1107.46 830.55 1107.46 834.58 1140.83 c 1,0,0
EndSplineSet
EndChar

StartChar: five
Encoding: 53 53 24
Width: 1139
GlyphClass: 2
Flags: HW
LayerCount: 2
Fore
SplineSet
959.42 180.47 m 0,0,0
 893.41 84.07 893.41 84.07 780.86 32.035 c 0,0,0
 668.31 -20 668.31 -20 511.27 -20 c 0,0,0
 330.89 -20 330.89 -20 217.375 60.52 c 0,0,0
 103.86 141.04 103.86 141.04 54.58 302.4 c 1,0,0
 177.98 344.74 l 1,0,0
 213.27 223.81 213.27 223.81 302.665 162.37 c 0,0,0
 392.06 100.93 392.06 100.93 516.65 100.93 c 0,0,0
 696.18 100.93 696.18 100.93 792.285 200.04 c 0,0,0
 888.39 299.15 888.39 299.15 888.39 486 c 0,0,0
 888.39 613.61 888.39 613.61 812.955 690.23 c 0,0,0
 737.52 766.85 737.52 766.85 612.94 766.85 c 0,0,0
 436.74 766.85 436.74 766.85 304.54 662.55 c 1,0,0
 160.88 662.55 l 1,0,0
 351.91 1409 l 1,0,0
 1137.73 1409 l 1,0,0
 1113.35 1281.74 l 1,0,0
 462.16 1281.74 l 1,0,0
 339.25 797.45 l 1,0,0
 391.89 840.77 391.89 840.77 466.53 864.11 c 0,0,0
 541.17 887.45 541.17 887.45 623.51 887.45 c 0,0,0
 813.12 887.45 813.12 887.45 929.915 783.095 c 0,0,0
 1046.71 678.74 1046.71 678.74 1046.71 502.04 c 0,0,0
 1046.71 310.78 1046.71 310.78 959.42 180.47 c 0,0,0
EndSplineSet
EndChar

StartChar: six
Encoding: 54 54 25
Width: 1139
GlyphClass: 2
Flags: HW
LayerCount: 2
Fore
SplineSet
534.33 -20 m 0,0,0
 410.29 -20 410.29 -20 316.945 41.33 c 0,0,0
 223.6 102.66 223.6 102.66 172.6 210.175 c 0,0,0
 121.6 317.69 121.6 317.69 121.6 456.41 c 0,0,0
 121.6 689.17 121.6 689.17 205.6 930.11 c 0,0,0
 288.6 1172.05 288.6 1172.05 432.115 1301.025 c 0,0,0
 575.63 1430 575.63 1430 766.28 1430 c 0,0,0
 906.38 1430 906.38 1430 1000.57 1362.46 c 0,0,0
 1094.76 1294.92 1094.76 1294.92 1135.37 1165.85 c 1,0,0
 1002.37 1131.5 l 1,0,0
 973.74 1215.14 973.74 1215.14 910.14 1262.11 c 0,0,0
 846.54 1309.08 846.54 1309.08 760.59 1309.08 c 0,0,0
 580.42 1309.08 580.42 1309.08 455.52 1152.85 c 0,0,0
 330.62 996.62 330.62 996.62 274.33 719.4 c 1,0,0
 336.64 815.34 336.64 815.34 431.44 863.83 c 0,0,0
 526.24 912.32 526.24 912.32 642.54 912.32 c 0,0,0
 759.19 912.32 759.19 912.32 847.5 863.33 c 0,0,0
 935.81 814.34 935.81 814.34 986.29 729.01 c 0,0,0
 1036.77 643.68 1036.77 643.68 1036.77 533 c 0,0,0
 1036.77 381 1036.77 381 972.09 252.67 c 0,0,0
 906.08 123.34 906.08 123.34 790.89 51.67 c 0,0,0
 675.7 -20 675.7 -20 534.33 -20 c 0,0,0
261.27 418.36 m 0,0,0
 261.27 278.78 261.27 278.78 335.54 189.515 c 0,0,0
 409.81 100.25 409.81 100.25 531.4 100.25 c 0,0,0
 631.33 100.25 631.33 100.25 711.095 156.535 c 0,0,0
 790.86 212.82 790.86 212.82 837.315 310.245 c 0,0,0
 883.77 407.67 883.77 407.67 883.77 529.59 c 0,0,0
 883.77 650.53 883.77 650.53 820.31 723.145 c 0,0,0
 756.85 795.76 756.85 795.76 635.28 795.76 c 0,0,0
 534.03 795.76 534.03 795.76 448.77 751.12 c 0,0,0
 362.51 705.15 362.51 705.15 311.89 621.87 c 0,0,0
 261.27 538.59 261.27 538.59 261.27 418.36 c 0,0,0
EndSplineSet
EndChar

StartChar: seven
Encoding: 55 55 26
Width: 1139
GlyphClass: 2
Flags: HW
LayerCount: 2
Fore
SplineSet
422.79 0 m 1,0,0
 271.09 0 l 1,0,0
 286.14 75.6 286.14 75.6 305.43 153.955 c 0,0,0
 324.72 232.31 324.72 232.31 349.56 308.47 c 0,0,0
 389.91 407.73 389.91 407.73 437.255 501.665 c 0,0,0
 484.6 595.6 484.6 595.6 556.73 703.665 c 0,0,0
 628.86 811.73 628.86 811.73 739.57 951.385 c 0,0,0
 850.28 1091.04 850.28 1091.04 1016.69 1281.74 c 1,0,0
 234.77 1281.74 l 1,0,0
 258.49 1409 l 1,0,0
 1196.39 1409 l 1,0,0
 1173.67 1288.41 l 1,0,0
 1038.24 1130.35 1038.24 1130.35 949.86 1022.5 c 0,0,0
 861.48 914.65 861.48 914.65 817.49 857.67 c 0,0,0
 773.5 800.03 773.5 800.03 734.84 743.56 c 0,0,0
 696.18 687.09 696.18 687.09 661.85 631.79 c 0,0,0
 630.82 581.11 630.82 581.11 602.795 528.94 c 0,0,0
 574.77 476.77 574.77 476.77 550.75 422.78 c 0,0,0
 513.26 332.95 513.26 332.95 479.205 225.03 c 0,0,0
 445.15 117.11 445.15 117.11 422.79 0 c 1,0,0
EndSplineSet
EndChar

StartChar: eight
Encoding: 56 56 27
Width: 1139
GlyphClass: 2
Flags: HW
LayerCount: 2
Fore
SplineSet
703.01 1429 m 0,0,0
 891.37 1429 891.37 1429 1007.7 1337.5 c 0,0,0
 1124.03 1246 1124.03 1246 1124.03 1091 c 0,0,0
 1124.03 951 1124.03 951 1037.2 851.68 c 0,0,0
 950.37 752.36 950.37 752.36 802.71 729.7 c 1,0,0
 801.71 725.7 l 1,0,0
 911.38 692.7 911.38 692.7 969.55 617.02 c 0,0,0
 1027.72 541.34 1027.72 541.34 1027.72 432 c 0,0,0
 1027.72 224 1027.72 224 887.865 102 c 0,0,0
 748.01 -20 748.01 -20 502.31 -20 c 0,0,0
 292.28 -20 292.28 -20 177.595 81.165 c 0,0,0
 62.91 182.33 62.91 182.33 62.91 360 c 0,0,0
 62.91 510.99 62.91 510.99 152.755 616.305 c 0,0,0
 242.6 721.62 242.6 721.62 419.25 762.27 c 1,0,0
 419.25 766.27 l 1,0,0
 328.58 803.28 328.58 803.28 277.755 877.13 c 0,0,0
 226.93 950.98 226.93 950.98 226.93 1052 c 0,0,0
 226.93 1229 226.93 1229 354.62 1329 c 0,0,0
 482.31 1429 482.31 1429 703.01 1429 c 0,0,0
661.3 801.43 m 0,0,0
 808.5 801.43 808.5 801.43 889.6 876.89 c 0,0,0
 970.7 952.35 970.7 952.35 970.7 1094.59 c 0,0,0
 970.7 1197.21 970.7 1197.21 897.775 1255.835 c 0,0,0
 824.85 1314.46 824.85 1314.46 684.32 1314.46 c 0,0,0
 538.78 1314.46 538.78 1314.46 456.85 1243.665 c 0,0,0
 374.92 1172.87 374.92 1172.87 374.92 1037.29 c 0,0,0
 374.92 929.01 374.92 929.01 451.175 865.22 c 0,0,0
 527.43 801.43 527.43 801.43 661.3 801.43 c 0,0,0
567.65 682.56 m 0,0,0
 398.45 682.56 398.45 682.56 305.855 595.6 c 0,0,0
 213.26 508.64 213.26 508.64 213.26 349.07 c 0,0,0
 213.26 231.46 213.26 231.46 294.025 164.165 c 0,0,0
 374.79 96.87 374.79 96.87 518.67 96.87 c 0,0,0
 679.87 96.87 679.87 96.87 779.785 187.49 c 0,0,0
 879.7 278.11 879.7 278.11 879.7 433.36 c 0,0,0
 879.7 549.64 879.7 549.64 795.445 616.1 c 0,0,0
 711.19 682.56 711.19 682.56 567.65 682.56 c 0,0,0
EndSplineSet
EndChar

StartChar: nine
Encoding: 57 57 28
Width: 1139
GlyphClass: 2
Flags: HW
LayerCount: 2
Fore
SplineSet
924.73 694.23 m 1,0,0
 857.07 585.31 857.07 585.31 769.105 529.525 c 0,0,0
 681.14 473.74 681.14 473.74 578.47 473.74 c 0,0,0
 454.19 473.74 454.19 473.74 362.55 527.39 c 0,0,0
 268.92 579.71 268.92 579.71 218.6 672.7 c 0,0,0
 168.28 765.69 168.28 765.69 168.28 877.04 c 0,0,0
 168.28 1030.03 168.28 1030.03 232.63 1157.69 c 0,0,0
 296.98 1284.02 296.98 1284.02 414.5 1357.01 c 0,0,0
 532.02 1430 532.02 1430 678.7 1430 c 0,0,0
 808.71 1430 808.71 1430 899.395 1372.665 c 0,0,0
 990.08 1315.33 990.08 1315.33 1038.095 1209.495 c 0,0,0
 1086.11 1103.66 1086.11 1103.66 1086.11 957 c 0,0,0
 1086.11 857.63 1086.11 857.63 1070.76 751.58 c 0,0,0
 1055.41 645.53 1055.41 645.53 1027.71 546.315 c 0,0,0
 1000.01 447.1 1000.01 447.1 963.29 366.07 c 0,0,0
 896.65 228.19 896.65 228.19 815.01 143.58 c 0,0,0
 732.37 56.97 732.37 56.97 636.73 18.485 c 0,0,0
 541.09 -20 541.09 -20 444.42 -20 c 0,0,0
 299.66 -20 299.66 -20 209.275 43.39 c 0,0,0
 118.89 106.78 118.89 106.78 77.26 239.18 c 1,0,0
 196.98 283.19 l 1,0,0
 224.28 196.21 224.28 196.21 288.065 147.9 c 0,0,0
 351.85 99.59 351.85 99.59 448.79 99.59 c 0,0,0
 620.65 99.59 620.65 99.59 742.545 254.65 c 0,0,0
 864.44 409.71 864.44 409.71 924.73 694.23 c 1,0,0
948.1 1019.64 m 0,0,0
 948.1 1151.86 948.1 1151.86 872.83 1230.14 c 0,0,0
 797.56 1308.42 797.56 1308.42 678 1308.42 c 0,0,0
 518.78 1308.42 518.78 1308.42 418.2 1192.5 c 0,0,0
 317.62 1076.58 317.62 1076.58 317.62 872.07 c 0,0,0
 317.62 737.86 317.62 737.86 385.57 666.075 c 0,0,0
 453.52 594.29 453.52 594.29 569.77 594.29 c 0,0,0
 668.07 594.29 668.07 594.29 757.33 646.94 c 0,0,0
 948.1 759.19 948.1 759.19 948.1 1019.64 c 0,0,0
EndSplineSet
EndChar

StartChar: colon
Encoding: 58 58 29
Width: 531
GlyphClass: 2
Flags: HW
LayerCount: 2
Fore
SplineSet
456.97 1097.84 m 1,0,0
 420.59 915.59 l 1,0,0
 256.28 915.59 l 1,0,0
 292.66 1097.84 l 1,0,0
 456.97 1097.84 l 1,0,0
279.05 182.58 m 1,0,0
 242.67 0 l 1,0,0
 78.36 0 l 1,0,0
 114.74 182.58 l 1,0,0
 279.05 182.58 l 1,0,0
EndSplineSet
EndChar

StartChar: semicolon
Encoding: 59 59 30
Width: 531
GlyphClass: 2
Flags: HW
LayerCount: 2
Fore
SplineSet
474.26 1097.84 m 1,0,0
 439.21 915.59 l 1,0,0
 274.9 915.59 l 1,0,0
 309.95 1097.84 l 1,0,0
 474.26 1097.84 l 1,0,0
270.3 46.05 m 2,0,0
 253.95 -40.7 253.95 -40.7 224.085 -110.42 c 0,0,0
 194.22 -180.14 194.22 -180.14 145.82 -243.85 c 1,0,0
 42.95 -243.85 l 1,0,0
 97.01 -179.15 97.01 -179.15 127.895 -118.76 c 0,0,0
 158.78 -58.37 158.78 -58.37 171.45 0 c 1,0,0
 96.98 0 l 1,0,0
 132.03 182.58 l 1,0,0
 296.34 182.58 l 1,0,0
 270.3 46.05 l 2,0,0
EndSplineSet
EndChar

StartChar: less
Encoding: 60 60 31
Width: 1196
GlyphClass: 2
Flags: HW
LayerCount: 2
Fore
SplineSet
1117.75 292.15 m 1,0,0
 1117.75 163.57 l 1,0,0
 133.31 589.15 l 1,0,0
 133.31 755.54 l 1,0,0
 1117.75 1182.45 l 1,0,0
 1117.75 1052.87 l 1,0,0
 251.5 673.34 l 1,0,0
 1117.75 292.15 l 1,0,0
EndSplineSet
EndChar

StartChar: equal
Encoding: 61 61 32
Width: 1196
GlyphClass: 2
Flags: HW
LayerCount: 2
Fore
SplineSet
1116.75 983.87 m 1,0,0
 1116.75 860.62 l 1,0,0
 132.31 860.62 l 1,0,0
 132.31 983.87 l 1,0,0
 1116.75 983.87 l 1,0,0
1116.75 485.4 m 1,0,0
 1116.75 361.49 l 1,0,0
 132.31 361.49 l 1,0,0
 132.31 485.4 l 1,0,0
 1116.75 485.4 l 1,0,0
EndSplineSet
EndChar

StartChar: greater
Encoding: 62 62 33
Width: 1196
GlyphClass: 2
Flags: HW
LayerCount: 2
Fore
SplineSet
1117.75 589.15 m 1,0,0
 133.31 163.57 l 1,0,0
 133.31 292.15 l 1,0,0
 999.89 673.34 l 1,0,0
 133.31 1052.87 l 1,0,0
 133.31 1182.45 l 1,0,0
 1117.75 755.54 l 1,0,0
 1117.75 589.15 l 1,0,0
EndSplineSet
EndChar

StartChar: question
Encoding: 63 63 34
Width: 1102
GlyphClass: 2
Flags: HW
LayerCount: 2
Fore
SplineSet
686.48 1430 m 0,0,0
 814.85 1430 814.85 1430 909.54 1383.51 c 0,0,0
 1004.23 1337.02 1004.23 1337.02 1056.075 1256.025 c 0,0,0
 1107.92 1175.03 1107.92 1175.03 1107.92 1072.34 c 0,0,0
 1107.92 958.18 1107.92 958.18 1070.325 880.44 c 0,0,0
 1032.73 802.7 1032.73 802.7 975.16 747.75 c 0,0,0
 940.85 718.04 940.85 718.04 901.855 695.325 c 0,0,0
 862.86 672.61 862.86 672.61 829.95 656.205 c 0,0,0
 797.04 639.8 797.04 639.8 778.49 627.02 c 0,0,0
 707.57 588.72 707.57 588.72 660.455 553.925 c 0,0,0
 613.34 519.13 613.34 519.13 580.72 483.85 c 0,0,0
 552.72 452.86 552.72 452.86 539.21 423.19 c 0,0,0
 525.7 393.52 525.7 393.52 518.37 360.83 c 1,0,0
 373.73 360.83 l 1,0,0
 387.73 441.82 387.73 441.82 422.72 502.48 c 0,0,0
 447.71 543.14 447.71 543.14 477.37 575.64 c 0,0,0
 507.03 608.14 507.03 608.14 560.18 645.47 c 0,0,0
 613.33 682.8 613.33 682.8 705.96 733.46 c 0,0,0
 753.68 759.17 753.68 759.17 789.205 782.195 c 0,0,0
 824.73 805.22 824.73 805.22 846.41 822.92 c 0,0,0
 898.68 867.55 898.68 867.55 925.64 923.82 c 0,0,0
 952.6 980.09 952.6 980.09 952.6 1051.01 c 0,0,0
 952.6 1160.56 952.6 1160.56 871.35 1226.665 c 0,0,0
 790.1 1292.77 790.1 1292.77 669.15 1292.77 c 0,0,0
 520.24 1292.77 520.24 1292.77 422.31 1215.51 c 0,0,0
 324.38 1138.25 324.38 1138.25 282.42 1008 c 1,0,0
 150.75 1048 l 1,0,0
 215.07 1244.32 215.07 1244.32 350.415 1337.16 c 0,0,0
 485.76 1430 485.76 1430 686.48 1430 c 0,0,0
494.39 178.23 m 1,0,0
 459.68 0 l 1,0,0
 295.7 0 l 1,0,0
 330.41 178.23 l 1,0,0
 494.39 178.23 l 1,0,0
EndSplineSet
EndChar

StartChar: at
Encoding: 64 64 35
Width: 2106
GlyphClass: 2
Flags: HW
LayerCount: 2
Fore
SplineSet
1942.92 755 m 0,0,0
 1942.92 567.68 1942.92 567.68 1887.9 417.68 c 0,0,0
 1831.88 266.35 1831.88 266.35 1732.515 185.175 c 0,0,0
 1633.15 104 1633.15 104 1507.14 104 c 0,0,0
 1403.17 104 1403.17 104 1349.015 149.5 c 0,0,0
 1294.86 195 1294.86 195 1294.86 281.32 c 0,0,0
 1296.19 297.66 1296.19 297.66 1296.36 316.155 c 0,0,0
 1296.53 334.65 1296.53 334.65 1296.87 352.31 c 1,0,0
 1290.87 352.31 l 1,0,0
 1219.59 223.37 1219.59 223.37 1122.42 163.685 c 0,0,0
 1025.25 104 1025.25 104 908.95 104 c 0,0,0
 751.95 104 751.95 104 665.45 206.165 c 0,0,0
 578.95 308.33 578.95 308.33 578.95 489 c 0,0,0
 578.95 652.33 578.95 652.33 643.95 793.67 c 0,0,0
 708.95 934.01 708.95 934.01 824.945 1017.505 c 0,0,0
 940.94 1101 940.94 1101 1081.61 1101 c 0,0,0
 1307.2 1101 1307.2 1101 1394.82 916.36 c 1,0,0
 1400.82 916.36 l 1,0,0
 1439.82 1079 l 1,0,0
 1595.82 1079 l 1,0,0
 1480.15 573 l 2,0,0
 1443.15 414.97 1443.15 414.97 1443.15 315.71 c 0,0,0
 1443.15 269.7 1443.15 269.7 1462.66 245.375 c 0,0,0
 1482.17 221.05 1482.17 221.05 1525.14 221.05 c 0,0,0
 1606.47 221.05 1606.47 221.05 1671.49 289.72 c 0,0,0
 1737.84 358.72 1737.84 358.72 1775.02 481.205 c 0,0,0
 1812.2 603.69 1812.2 603.69 1812.2 753 c 0,0,0
 1812.2 931.66 1812.2 931.66 1734.87 1073.64 c 0,0,0
 1657.54 1212.96 1657.54 1212.96 1512.375 1287.955 c 0,0,0
 1367.21 1362.95 1367.21 1362.95 1172.22 1362.95 c 0,0,0
 930.89 1362.95 930.89 1362.95 742.57 1255.29 c 0,0,0
 555.58 1147.63 555.58 1147.63 449.085 944.975 c 0,0,0
 342.59 742.32 342.59 742.32 342.59 491 c 0,0,0
 342.59 297 342.59 297 421.26 151.66 c 0,0,0
 498.6 3.66 498.6 3.66 648.75 -76.495 c 0,0,0
 798.9 -156.65 798.9 -156.65 998.22 -156.65 c 0,0,0
 1319.15 -156.65 1319.15 -156.65 1605.84 7.66 c 1,0,0
 1658.53 -101.04 l 1,0,0
 1521.12 -185.4 1521.12 -185.4 1348.65 -232.385 c 0,0,0
 1176.18 -279.37 1176.18 -279.37 1000.53 -279.37 c 0,0,0
 759.21 -279.37 759.21 -279.37 580.21 -184.7 c 0,0,0
 400.21 -89.7 400.21 -89.7 304.365 86.145 c 0,0,0
 208.52 261.99 208.52 261.99 208.52 491 c 0,0,0
 208.52 768.68 208.52 768.68 332.86 999.01 c 0,0,0
 457.53 1228.01 457.53 1228.01 677.205 1356.005 c 0,0,0
 896.88 1484 896.88 1484 1170.22 1484 c 0,0,0
 1410.56 1484 1410.56 1484 1584.57 1394 c 0,0,0
 1758.58 1303 1758.58 1303 1850.75 1138 c 0,0,0
 1942.92 973 1942.92 973 1942.92 755 c 0,0,0
1350.45 745.68 m 0,0,0
 1350.45 849.99 1350.45 849.99 1282.305 913.315 c 0,0,0
 1214.16 976.64 1214.16 976.64 1098.88 976.64 c 0,0,0
 995.57 976.64 995.57 976.64 916.25 913.31 c 0,0,0
 835.93 848.98 835.93 848.98 789.775 735.145 c 0,0,0
 743.62 621.31 743.62 621.31 743.62 491 c 0,0,0
 743.62 369.02 743.62 369.02 790.79 300.36 c 0,0,0
 837.96 231.7 837.96 231.7 936.63 231.7 c 0,0,0
 1021.25 231.7 1021.25 231.7 1097.715 276.195 c 0,0,0
 1174.18 320.69 1174.18 320.69 1231.16 398.36 c 0,0,0
 1269.48 450.03 1269.48 450.03 1295.97 511.205 c 0,0,0
 1322.46 572.38 1322.46 572.38 1336.455 633.71 c 0,0,0
 1350.45 695.04 1350.45 695.04 1350.45 745.68 c 0,0,0
EndSplineSet
EndChar

StartChar: A
Encoding: 65 65 36
Width: 1328
GlyphClass: 2
Flags: HW
LayerCount: 2
Fore
SplineSet
314 429.16 m 1,0,0
 59.15 0 l 1,0,0
 -120.47 0 l 1,0,0
 747.66 1409 l 1,0,0
 921.43 1409 l 1,0,0
 1231.25 0 l 1,0,0
 1068.26 0 l 1,0,0
 986.66 429.16 l 1,0,0
 314 429.16 l 1,0,0
814.82 1289.09 m 1,0,0
 808.81 1282.36 808.81 1282.36 805.09 1277.24 c 0,0,0
 801.37 1272.12 801.37 1272.12 797.95 1267.28 c 2,0,0
 386.45 554.07 l 1,0,0
 957.01 554.07 l 1,0,0
 843.46 1140.4 l 2,0,0
 837.12 1168.5 837.12 1168.5 830.625 1206.005 c 0,0,0
 824.13 1243.51 824.13 1243.51 814.82 1289.09 c 1,0,0
EndSplineSet
EndChar

StartChar: B
Encoding: 66 66 37
Width: 1328
GlyphClass: 2
Flags: HW
LayerCount: 2
Fore
SplineSet
1207.07 441.64 m 0,0,0
 1207.07 227.98 1207.07 227.98 1051.235 113.99 c 0,0,0
 895.4 0 895.4 0 630.61 0 c 2,0,0
 71.91 0 l 1,0,0
 344.58 1409 l 1,0,0
 830.16 1409 l 2,0,0
 1025.3 1409 1025.3 1409 1142.995 1321.18 c 0,0,0
 1260.69 1233.36 1260.69 1233.36 1260.69 1088.32 c 0,0,0
 1260.69 801.01 1260.69 801.01 916.74 744.65 c 1,0,0
 1055.4 721.65 1055.4 721.65 1131.235 640.48 c 0,0,0
 1207.07 559.31 1207.07 559.31 1207.07 441.64 c 0,0,0
383.61 799.77 m 1,0,0
 726.82 799.77 l 2,0,0
 905.81 799.77 905.81 799.77 999.26 870.375 c 0,0,0
 1092.71 940.98 1092.71 940.98 1092.71 1077.9 c 0,0,0
 1092.71 1176.52 1092.71 1176.52 1022.41 1227.15 c 0,0,0
 952.11 1277.78 952.11 1277.78 818.11 1277.78 c 2,0,0
 477.21 1277.78 l 1,0,0
 383.61 799.77 l 1,0,0
253.3 131.22 m 1,0,0
 634.5 131.22 l 2,0,0
 844.83 131.22 844.83 131.22 947.775 212.31 c 0,0,0
 1050.72 293.4 1050.72 293.4 1050.72 443.65 c 0,0,0
 1050.72 556.26 1050.72 556.26 967.425 614.9 c 0,0,0
 884.13 673.54 884.13 673.54 736.78 673.54 c 2,0,0
 358.9 673.54 l 1,0,0
 253.3 131.22 l 1,0,0
EndSplineSet
EndChar

StartChar: C
Encoding: 67 67 38
Width: 1479
GlyphClass: 2
Flags: HW
LayerCount: 2
Fore
SplineSet
1236.78 411.81 m 1,0,0
 1352.06 332.05 l 1,0,0
 1219.13 143.39 1219.13 143.39 1061.275 61.695 c 0,0,0
 903.42 -20 903.42 -20 696.37 -20 c 0,0,0
 518.67 -20 518.67 -20 387.32 53.33 c 0,0,0
 256.3 125.33 256.3 125.33 186.795 259.495 c 0,0,0
 117.29 393.66 117.29 393.66 117.29 569 c 0,0,0
 117.29 813.02 117.29 813.02 222.29 1012.02 c 0,0,0
 327.29 1211.35 327.29 1211.35 513.13 1320.675 c 0,0,0
 698.97 1430 698.97 1430 925.67 1430 c 0,0,0
 1138.38 1430 1138.38 1430 1288.54 1342.14 c 0,0,0
 1438.7 1254.28 1438.7 1254.28 1485.71 1100.51 c 1,0,0
 1336.73 1050.79 l 1,0,0
 1298.42 1164.44 1298.42 1164.44 1187.825 1231.76 c 0,0,0
 1077.23 1299.08 1077.23 1299.08 915.34 1299.08 c 0,0,0
 739.25 1299.08 739.25 1299.08 598.27 1225.27 c 0,0,0
 439.46 1134.96 439.46 1134.96 354.395 962.245 c 0,0,0
 269.33 789.53 269.33 789.53 269.33 563.69 c 0,0,0
 269.33 354.78 269.33 354.78 386.085 232.35 c 0,0,0
 502.84 109.92 502.84 109.92 707.06 109.92 c 0,0,0
 860.01 109.92 860.01 109.92 995.765 186.39 c 0,0,0
 1131.52 262.86 1131.52 262.86 1236.78 411.81 c 1,0,0
EndSplineSet
EndChar

StartChar: D
Encoding: 68 68 39
Width: 1479
GlyphClass: 2
Flags: HW
LayerCount: 2
Fore
SplineSet
747.3 1409 m 2,0,0
 950.68 1409 950.68 1409 1099.525 1332.85 c 0,0,0
 1248.37 1256.7 1248.37 1256.7 1329.365 1117.38 c 0,0,0
 1410.36 978.06 1410.36 978.06 1410.36 785.72 c 0,0,0
 1410.36 548.06 1410.36 548.06 1306.04 374.04 c 0,0,0
 1201.72 198.36 1201.72 198.36 1006.405 99.18 c 0,0,0
 811.09 0 811.09 0 562.13 0 c 2,0,0
 71.91 0 l 1,0,0
 344.58 1409 l 1,0,0
 747.3 1409 l 2,0,0
252.64 128.25 m 1,0,0
 554.46 128.25 l 2,0,0
 762.34 128.25 762.34 128.25 918.26 209.22 c 0,0,0
 1075.84 289.19 1075.84 289.19 1159.63 440.135 c 0,0,0
 1243.42 591.08 1243.42 591.08 1243.42 792.67 c 0,0,0
 1243.42 1021.57 1243.42 1021.57 1110.655 1151.16 c 0,0,0
 977.89 1280.75 977.89 1280.75 741.32 1280.75 c 2,0,0
 477.54 1280.75 l 1,0,0
 252.64 128.25 l 1,0,0
EndSplineSet
EndChar

StartChar: E
Encoding: 69 69 40
Width: 1366
GlyphClass: 2
Flags: HW
LayerCount: 2
Fore
SplineSet
1167.82 132.24 m 1,0,0
 1142.77 0 l 1,0,0
 71.91 0 l 1,0,0
 344.91 1409 l 1,0,0
 1374.44 1409 l 1,0,0
 1349.06 1276.76 l 1,0,0
 476.21 1276.76 l 1,0,0
 381.94 792.42 l 1,0,0
 1195.12 792.42 l 1,0,0
 1169.74 662.84 l 1,0,0
 356.56 662.84 l 1,0,0
 253.97 132.24 l 1,0,0
 1167.82 132.24 l 1,0,0
EndSplineSet
EndChar

StartChar: F
Encoding: 70 70 41
Width: 1251
GlyphClass: 2
Flags: HW
LayerCount: 2
Fore
SplineSet
341.89 588.82 m 1,0,0
 228.92 0 l 1,0,0
 71.91 0 l 1,0,0
 344.91 1409 l 1,0,0
 1364.16 1409 l 1,0,0
 1338.78 1276.76 l 1,0,0
 476.21 1276.76 l 1,0,0
 368.6 723.72 l 1,0,0
 1206.84 723.72 l 1,0,0
 1180.13 588.82 l 1,0,0
 341.89 588.82 l 1,0,0
EndSplineSet
EndChar

StartChar: G
Encoding: 71 71 42
Width: 1593
GlyphClass: 2
Flags: HW
LayerCount: 2
Fore
SplineSet
742.66 -20.33 m 0,0,0
 436.01 -20.33 436.01 -20.33 268.67 134.845 c 0,0,0
 101.33 290.02 101.33 290.02 101.33 569.7 c 0,0,0
 101.33 819.37 101.33 819.37 206.33 1016.36 c 0,0,0
 311.66 1214.35 311.66 1214.35 504.49 1322.175 c 0,0,0
 697.32 1430 697.32 1430 944.66 1430 c 0,0,0
 1164.68 1430 1164.68 1430 1302.885 1352.27 c 0,0,0
 1441.09 1274.54 1441.09 1274.54 1496.75 1117.47 c 1,0,0
 1333.12 1071.39 l 1,0,0
 1293.48 1187.05 1293.48 1187.05 1191.86 1243.065 c 0,0,0
 1090.24 1299.08 1090.24 1299.08 933.98 1299.08 c 0,0,0
 732.42 1299.08 732.42 1299.08 579.17 1209.45 c 0,0,0
 425.92 1119.82 425.92 1119.82 344.63 954.555 c 0,0,0
 263.34 789.29 263.34 789.29 263.34 572.05 c 0,0,0
 263.34 350.16 263.34 350.16 388.765 230.04 c 0,0,0
 514.19 109.92 514.19 109.92 742.72 109.92 c 0,0,0
 890.62 109.92 890.62 109.92 1024.54 153.875 c 0,0,0
 1158.46 197.83 1158.46 197.83 1258.39 285.72 c 1,0,0
 1311.04 548.3 l 1,0,0
 863.97 548.3 l 1,0,0
 893.66 692.46 l 1,0,0
 1485.05 692.46 l 1,0,0
 1386.7 221.55 l 1,0,0
 1251.98 97.26 1251.98 97.26 1092.655 38.465 c 0,0,0
 933.33 -20.33 933.33 -20.33 742.66 -20.33 c 0,0,0
EndSplineSet
EndChar

StartChar: H
Encoding: 72 72 43
Width: 1479
GlyphClass: 2
Flags: HW
LayerCount: 2
Fore
SplineSet
358.89 669.17 m 1,0,0
 228.92 0 l 1,0,0
 71.91 0 l 1,0,0
 346.24 1409 l 1,0,0
 502.92 1409 l 1,0,0
 384.61 801.45 l 1,0,0
 1198.14 801.45 l 1,0,0
 1316.45 1409 l 1,0,0
 1470.11 1409 l 1,0,0
 1196.11 0 l 1,0,0
 1042.45 0 l 1,0,0
 1172.42 669.17 l 1,0,0
 358.89 669.17 l 1,0,0
EndSplineSet
EndChar

StartChar: I
Encoding: 73 73 44
Width: 569
GlyphClass: 2
Flags: HW
LayerCount: 2
Fore
SplineSet
526.86 1409 m 1,0,0
 252.86 0 l 1,0,0
 95.85 0 l 1,0,0
 370.18 1409 l 1,0,0
 526.86 1409 l 1,0,0
EndSplineSet
EndChar

StartChar: J
Encoding: 74 74 45
Width: 986
GlyphClass: 2
Flags: HW
LayerCount: 2
Fore
SplineSet
348.33 -20 m 0,0,0
 199.56 -20 199.56 -20 103.35 72.01 c 0,0,0
 7.14 164.02 7.14 164.02 -14.9 331.12 c 1,0,0
 120.43 355.87 l 1,0,0
 143.43 237.55 143.43 237.55 200.75 173.735 c 0,0,0
 258.07 109.92 258.07 109.92 364.67 109.92 c 0,0,0
 433.3 109.92 433.3 109.92 484.93 136.58 c 0,0,0
 547.2 169.89 547.2 169.89 589.155 246.475 c 0,0,0
 631.11 323.06 631.11 323.06 653.1 440 c 2,0,0
 840.1 1409 l 1,0,0
 995.78 1409 l 1,0,0
 802.78 423 l 2,0,0
 760.44 201.31 760.44 201.31 648.42 90.655 c 0,0,0
 536.4 -20 536.4 -20 348.33 -20 c 0,0,0
EndSplineSet
EndChar

StartChar: K
Encoding: 75 75 46
Width: 1328
GlyphClass: 2
Flags: HW
LayerCount: 2
Fore
SplineSet
337.23 554.24 m 1,0,0
 229.58 0 l 1,0,0
 71.91 0 l 1,0,0
 344.91 1409 l 1,0,0
 501.59 1409 l 1,0,0
 363.61 700.84 l 1,0,0
 497.34 828.19 l 1,0,0
 1183.46 1409 l 1,0,0
 1387.54 1409 l 1,0,0
 636.55 774.38 l 1,0,0
 1223.91 0 l 1,0,0
 1030.91 0 l 1,0,0
 520.3 685.22 l 1,0,0
 337.23 554.24 l 1,0,0
EndSplineSet
EndChar

StartChar: L
Encoding: 76 76 47
Width: 1102
GlyphClass: 2
Flags: HW
LayerCount: 2
Fore
SplineSet
951.45 132.24 m 1,0,0
 926.4 0 l 1,0,0
 71.91 0 l 1,0,0
 344.91 1409 l 1,0,0
 501.59 1409 l 1,0,0
 253.97 132.24 l 1,0,0
 951.45 132.24 l 1,0,0
EndSplineSet
EndChar

StartChar: M
Encoding: 77 77 48
Width: 1706
GlyphClass: 2
Flags: HW
LayerCount: 2
Fore
SplineSet
420.79 1091.82 m 2,0,0
 211.55 0 l 1,0,0
 71.91 0 l 1,0,0
 344.58 1409 l 1,0,0
 528.11 1409 l 1,0,0
 750.44 369.63 l 2,0,0
 753.78 367.13 753.78 367.13 762.275 321.405 c 0,0,0
 770.77 275.68 770.77 275.68 784.75 188.06 c 1,0,0
 813.39 245.35 813.39 245.35 842.525 304.46 c 0,0,0
 871.66 363.57 871.66 363.57 900.96 423.5 c 2,0,0
 1483.33 1409 l 1,0,0
 1694.12 1409 l 1,0,0
 1421.45 0 l 1,0,0
 1279.15 0 l 1,0,0
 1461.79 942.52 l 2,0,0
 1481.44 1043.43 1481.44 1043.43 1497.28 1116.615 c 0,0,0
 1513.12 1189.8 1513.12 1189.8 1523.82 1235.26 c 1,0,0
 1504.05 1195.36 1504.05 1195.36 1480.685 1151.775 c 0,0,0
 1457.32 1108.19 1457.32 1108.19 1434.33 1066.86 c 0,0,0
 1411.34 1025.53 1411.34 1025.53 1391.36 991.56 c 2,0,0
 798.48 0 l 1,0,0
 702.86 0 l 1,0,0
 487.83 990.57 l 2,0,0
 489.12 961.01 489.12 961.01 478.29 1022.93 c 0,0,0
 467.46 1084.85 467.46 1084.85 446.5 1235.26 c 1,0,0
 445.8 1235.62 445.8 1235.62 439.29 1200.01 c 0,0,0
 432.78 1164.4 432.78 1164.4 420.79 1091.82 c 2,0,0
EndSplineSet
EndChar

StartChar: N
Encoding: 78 78 49
Width: 1479
GlyphClass: 2
Flags: HW
LayerCount: 2
Fore
SplineSet
394.86 959.83 m 2,0,0
 211.55 0 l 1,0,0
 71.91 0 l 1,0,0
 344.58 1409 l 1,0,0
 511.04 1409 l 1,0,0
 1096.85 169.58 l 1,0,0
 1109.19 261.94 1109.19 261.94 1121.015 338.715 c 0,0,0
 1132.84 415.49 1132.84 415.49 1143.17 462.82 c 2,0,0
 1326.48 1409 l 1,0,0
 1468.78 1409 l 1,0,0
 1196.11 0 l 1,0,0
 1020.99 0 l 1,0,0
 438.18 1236.07 l 1,0,0
 427.18 1149.75 427.18 1149.75 416.35 1080.44 c 0,0,0
 405.52 1011.13 405.52 1011.13 394.86 959.83 c 2,0,0
EndSplineSet
EndChar

StartChar: O
Encoding: 79 79 50
Width: 1593
GlyphClass: 2
Flags: HW
LayerCount: 2
Fore
SplineSet
941.3 1430 m 0,0,0
 1122.67 1430 1122.67 1430 1254.36 1358.835 c 0,0,0
 1386.05 1287.67 1386.05 1287.67 1457.23 1157.505 c 0,0,0
 1528.41 1027.34 1528.41 1027.34 1528.41 851 c 0,0,0
 1523.09 578.73 1523.09 578.73 1414.1 383.71 c 0,0,0
 1306.77 190.35 1306.77 190.35 1121.76 85.175 c 0,0,0
 936.75 -20 936.75 -20 703.06 -20 c 0,0,0
 499.09 -20 499.09 -20 361.41 63.97 c 0,0,0
 242.02 134.64 242.02 134.64 178.325 264.485 c 0,0,0
 114.63 394.33 114.63 394.33 114.63 573 c 0,0,0
 114.63 814.32 114.63 814.32 220.63 1013.33 c 0,0,0
 325.63 1212.34 325.63 1212.34 515.29 1321.17 c 0,0,0
 704.95 1430 704.95 1430 941.3 1430 c 0,0,0
933.95 1302.07 m 0,0,0
 722.74 1302.07 722.74 1302.07 574.16 1208.45 c 0,0,0
 475.55 1146.48 475.55 1146.48 407.92 1040.365 c 0,0,0
 340.29 934.25 340.29 934.25 304.975 807.97 c 0,0,0
 269.66 681.69 269.66 681.69 269.66 557.06 c 0,0,0
 269.66 339.81 269.66 339.81 381.605 224.7 c 0,0,0
 493.55 109.59 493.55 109.59 710.41 109.59 c 0,0,0
 919.29 109.59 919.29 109.59 1066.54 200.55 c 0,0,0
 1163.82 261.19 1163.82 261.19 1232.615 363.145 c 0,0,0
 1301.41 465.1 1301.41 465.1 1338.055 592.71 c 0,0,0
 1374.7 720.32 1374.7 720.32 1374.7 853.6 c 0,0,0
 1374.7 1070.83 1374.7 1070.83 1259.27 1186.45 c 0,0,0
 1143.84 1302.07 1143.84 1302.07 933.95 1302.07 c 0,0,0
EndSplineSet
EndChar

StartChar: P
Encoding: 80 80 51
Width: 1366
GlyphClass: 2
Flags: HW
LayerCount: 2
Fore
SplineSet
852.66 1409 m 2,0,0
 1078.71 1409 1078.71 1409 1213.215 1307.64 c 0,0,0
 1347.72 1206.28 1347.72 1206.28 1347.72 1030.89 c 0,0,0
 1347.72 886.21 1347.72 886.21 1278.885 781.695 c 0,0,0
 1210.05 677.18 1210.05 677.18 1082.22 621.835 c 0,0,0
 954.39 566.49 954.39 566.49 777.07 566.49 c 2,0,0
 337.56 566.49 l 1,0,0
 228.92 0 l 1,0,0
 71.91 0 l 1,0,0
 344.91 1409 l 1,0,0
 852.66 1409 l 2,0,0
363.27 692.41 m 1,0,0
 782.61 692.41 l 2,0,0
 985.49 692.41 985.49 692.41 1086.93 777.01 c 0,0,0
 1188.37 861.61 1188.37 861.61 1188.37 1024.2 c 0,0,0
 1188.37 1148.81 1188.37 1148.81 1104.42 1214.945 c 0,0,0
 1020.47 1281.08 1020.47 1281.08 855.25 1281.08 c 2,0,0
 477.54 1281.08 l 1,0,0
 363.27 692.41 l 1,0,0
EndSplineSet
EndChar

StartChar: Q
Encoding: 81 81 52
Width: 1593
GlyphClass: 2
Flags: HW
LayerCount: 2
Fore
SplineSet
928 1430 m 0,0,0
 1109.37 1430 1109.37 1430 1241.06 1358.835 c 0,0,0
 1372.75 1287.67 1372.75 1287.67 1443.93 1157.505 c 0,0,0
 1515.11 1027.34 1515.11 1027.34 1515.11 851 c 0,0,0
 1509.79 564.79 1509.79 564.79 1409.615 391.43 c 0,0,0
 1309.44 218.07 1309.44 218.07 1185.32 131.19 c 0,0,0
 1019.64 12.72 1019.64 12.72 802.2 -13.32 c 1,0,0
 818.54 -141.91 818.54 -141.91 870.025 -201.205 c 0,0,0
 921.51 -260.5 921.51 -260.5 1023.81 -260.5 c 0,0,0
 1079.53 -260.5 1079.53 -260.5 1137.9 -247.83 c 1,0,0
 1128.81 -361.7 l 1,0,0
 1052.49 -382.71 1052.49 -382.71 959.81 -382.71 c 0,0,0
 823.99 -382.71 823.99 -382.71 751.405 -299.35 c 0,0,0
 678.82 -215.99 678.82 -215.99 655.82 -19.64 c 1,0,0
 525.85 -13.94 525.85 -13.94 423.215 27.915 c 0,0,0
 320.58 69.77 320.58 69.77 249.27 145.77 c 0,0,0
 101.33 300.76 101.33 300.76 101.33 573 c 0,0,0
 101.33 814.32 101.33 814.32 207.33 1013.33 c 0,0,0
 312.33 1212.34 312.33 1212.34 501.99 1321.17 c 0,0,0
 691.65 1430 691.65 1430 928 1430 c 0,0,0
920.65 1302.07 m 0,0,0
 709.44 1302.07 709.44 1302.07 560.86 1208.45 c 0,0,0
 462.25 1146.48 462.25 1146.48 394.62 1040.365 c 0,0,0
 326.99 934.25 326.99 934.25 291.675 807.97 c 0,0,0
 256.36 681.69 256.36 681.69 256.36 557.06 c 0,0,0
 256.36 339.81 256.36 339.81 368.305 224.7 c 0,0,0
 480.25 109.59 480.25 109.59 697.11 109.59 c 0,0,0
 905.99 109.59 905.99 109.59 1053.24 200.55 c 0,0,0
 1150.52 261.19 1150.52 261.19 1219.315 363.145 c 0,0,0
 1288.11 465.1 1288.11 465.1 1324.755 592.71 c 0,0,0
 1361.4 720.32 1361.4 720.32 1361.4 853.6 c 0,0,0
 1361.4 1070.83 1361.4 1070.83 1245.97 1186.45 c 0,0,0
 1130.54 1302.07 1130.54 1302.07 920.65 1302.07 c 0,0,0
EndSplineSet
EndChar

StartChar: R
Encoding: 82 82 53
Width: 1479
GlyphClass: 2
Flags: HW
LayerCount: 2
Fore
SplineSet
344.89 601.83 m 1,0,0
 228.59 0 l 1,0,0
 71.91 0 l 1,0,0
 344.58 1409 l 1,0,0
 943.71 1409 l 2,0,0
 1094.4 1409 1094.4 1409 1204.74 1353.35 c 0,0,0
 1296.46 1308.34 1296.46 1308.34 1348.145 1229.975 c 0,0,0
 1399.83 1151.61 1399.83 1151.61 1399.83 1049.89 c 0,0,0
 1399.83 854.3 1399.83 854.3 1291.995 745.95 c 0,0,0
 1184.16 637.6 1184.16 637.6 964.91 608.27 c 1,0,0
 1230.93 0 l 1,0,0
 1064.53 0 l 1,0,0
 817.24 601.83 l 1,0,0
 344.89 601.83 l 1,0,0
852.05 726.76 m 2,0,0
 1044.93 726.76 1044.93 726.76 1142.705 807.87 c 0,0,0
 1240.48 888.98 1240.48 888.98 1240.48 1035.55 c 0,0,0
 1240.48 1153.82 1240.48 1153.82 1162.35 1217.45 c 0,0,0
 1084.22 1281.08 1084.22 1281.08 925.33 1281.08 c 2,0,0
 477.54 1281.08 l 1,0,0
 369.94 726.76 l 1,0,0
 852.05 726.76 l 2,0,0
EndSplineSet
EndChar

StartChar: S
Encoding: 83 83 54
Width: 1366
GlyphClass: 2
Flags: HW
LayerCount: 2
Fore
SplineSet
621.28 -20 m 0,0,0
 378.22 -20 378.22 -20 241.545 66.52 c 0,0,0
 104.87 153.04 104.87 153.04 68.89 329.09 c 1,0,0
 208.93 362.13 l 1,0,0
 237.91 227.19 237.91 227.19 337.675 166.88 c 0,0,0
 437.44 106.57 437.44 106.57 633.3 106.57 c 0,0,0
 867.48 106.57 867.48 106.57 973.43 177.35 c 0,0,0
 1079.38 248.13 1079.38 248.13 1079.38 394.68 c 0,0,0
 1079.38 470.59 1079.38 470.59 1045.76 513.895 c 0,0,0
 1012.14 557.2 1012.14 557.2 928.94 593.5 c 0,0,0
 892.29 607.19 892.29 607.19 832.125 626.2 c 0,0,0
 771.96 645.21 771.96 645.21 686.95 669.87 c 0,0,0
 523.9 714.88 523.9 714.88 437.56 765.22 c 0,0,0
 353.55 814.23 353.55 814.23 311.205 881.42 c 0,0,0
 268.86 948.61 268.86 948.61 268.86 1042.32 c 0,0,0
 268.86 1165.64 268.86 1165.64 337.7 1252.145 c 0,0,0
 406.54 1338.65 406.54 1338.65 534.21 1384.325 c 0,0,0
 661.88 1430 661.88 1430 836.54 1430 c 0,0,0
 1050.6 1430 1050.6 1430 1179.97 1357.465 c 0,0,0
 1309.34 1284.93 1309.34 1284.93 1343.67 1145.53 c 1,0,0
 1208.62 1099.81 l 1,0,0
 1171.99 1209.76 1171.99 1209.76 1082.53 1258.605 c 0,0,0
 993.07 1307.45 993.07 1307.45 840.49 1307.45 c 0,0,0
 631.37 1307.45 631.37 1307.45 529.78 1244.325 c 0,0,0
 428.19 1181.2 428.19 1181.2 428.19 1050.99 c 0,0,0
 428.19 986.7 428.19 986.7 454.19 947.715 c 0,0,0
 480.19 908.73 480.19 908.73 540.83 878.08 c 0,0,0
 571.15 863.75 571.15 863.75 631.955 843.095 c 0,0,0
 692.76 822.44 692.76 822.44 784.05 798.45 c 0,0,0
 861.92 777.06 861.92 777.06 929.94 755.185 c 0,0,0
 997.96 733.31 997.96 733.31 1039.97 715.9 c 0,0,0
 1139.5 665.24 1139.5 665.24 1191.43 590.605 c 0,0,0
 1243.36 515.97 1243.36 515.97 1243.36 403.05 c 0,0,0
 1243.36 200.35 1243.36 200.35 1091.99 90.175 c 0,0,0
 940.62 -20 940.62 -20 621.28 -20 c 0,0,0
EndSplineSet
EndChar

StartChar: T
Encoding: 84 84 55
Width: 1251
GlyphClass: 2
Flags: HW
LayerCount: 2
Fore
SplineSet
845.79 1276.76 m 1,0,0
 597.17 0 l 1,0,0
 441.82 0 l 1,0,0
 690.44 1276.76 l 1,0,0
 196.87 1276.76 l 1,0,0
 222.25 1409 l 1,0,0
 1364.41 1409 l 1,0,0
 1339.03 1276.76 l 1,0,0
 845.79 1276.76 l 1,0,0
EndSplineSet
EndChar

StartChar: U
Encoding: 85 85 56
Width: 1479
GlyphClass: 2
Flags: HW
LayerCount: 2
Fore
SplineSet
648.06 -20 m 0,0,0
 425.29 -20 425.29 -20 294.755 101.49 c 0,0,0
 164.22 222.98 164.22 222.98 164.22 431 c 0,0,0
 164.22 475 164.22 475 171.72 536.5 c 0,0,0
 179.22 598 179.22 598 187.22 635 c 2,0,0
 337.88 1409 l 1,0,0
 494.56 1409 l 1,0,0
 329.59 555.11 l 2,0,0
 312.92 464.12 312.92 464.12 312.92 421.68 c 0,0,0
 312.92 274.79 312.92 274.79 405.205 192.355 c 0,0,0
 497.49 109.92 497.49 109.92 664.06 109.92 c 0,0,0
 864.97 109.92 864.97 109.92 990.37 219.835 c 0,0,0
 1115.77 329.75 1115.77 329.75 1155.09 541 c 2,0,0
 1323.09 1409 l 1,0,0
 1478.44 1409 l 1,0,0
 1308.77 530 l 2,0,0
 1255.1 259.64 1255.1 259.64 1086.11 119.82 c 0,0,0
 917.12 -20 917.12 -20 648.06 -20 c 0,0,0
EndSplineSet
EndChar

StartChar: V
Encoding: 86 86 57
Width: 1366
GlyphClass: 2
Flags: HW
LayerCount: 2
Fore
SplineSet
1530.28 1409 m 1,0,0
 657.2 0 l 1,0,0
 505.73 0 l 1,0,0
 178.98 1409 l 1,0,0
 336.35 1409 l 1,0,0
 562.07 388.29 l 2,0,0
 571.4 329.92 571.4 329.92 580.89 268.905 c 0,0,0
 590.38 207.89 590.38 207.89 601.36 144.9 c 1,0,0
 637.66 209.87 637.66 209.87 675.78 279.3 c 0,0,0
 713.9 348.73 713.9 348.73 753.17 420.96 c 2,0,0
 1355.28 1409 l 1,0,0
 1530.28 1409 l 1,0,0
EndSplineSet
EndChar

StartChar: W
Encoding: 87 87 58
Width: 1933
GlyphClass: 2
Flags: HW
LayerCount: 2
Fore
SplineSet
958.69 900.94 m 2,0,0
 524.84 0 l 1,0,0
 345.4 0 l 1,0,0
 185.91 1409 l 1,0,0
 355.52 1409 l 1,0,0
 448.71 487.6 l 2,0,0
 455.37 412.91 455.37 412.91 460.195 325.745 c 0,0,0
 465.02 238.58 465.02 238.58 467.68 141.6 c 1,0,0
 509.99 239.23 509.99 239.23 542.16 312.585 c 0,0,0
 574.33 385.94 574.33 385.94 598.02 434.69 c 2,0,0
 1070.06 1409 l 1,0,0
 1209.17 1409 l 1,0,0
 1298.69 525.4 l 2,0,0
 1307.01 448.07 1307.01 448.07 1312.17 352.12 c 0,0,0
 1317.33 256.17 1317.33 256.17 1317.67 141.6 c 1,0,0
 1363.59 239.78 1363.59 239.78 1384.42 290.78 c 0,0,0
 1405.25 341.78 1405.25 341.78 1416.62 365.22 c 2,0,0
 1927.65 1409 l 1,0,0
 2098.95 1409 l 1,0,0
 1394.45 0 l 1,0,0
 1213.36 0 l 1,0,0
 1127.84 922.39 l 2,0,0
 1113.87 1162.17 l 0,0,0
 1108.88 1244.82 1108.88 1244.82 1108.21 1252.99 c 1,0,0
 1067.57 1146.39 1067.57 1146.39 1029.775 1058.295 c 0,0,0
 991.98 970.2 991.98 970.2 958.69 900.94 c 2,0,0
EndSplineSet
EndChar

StartChar: X
Encoding: 88 88 59
Width: 1366
GlyphClass: 2
Flags: HW
LayerCount: 2
Fore
SplineSet
1022.43 0 m 1,0,0
 702.93 630.42 l 1,0,0
 156.16 0 l 1,0,0
 -20.85 0 l 1,0,0
 633.81 749.3 l 1,0,0
 293.15 1409 l 1,0,0
 455.85 1409 l 1,0,0
 741.03 831.6 l 1,0,0
 1240.12 1409 l 1,0,0
 1417.46 1409 l 1,0,0
 817.46 733.33 l 1,0,0
 1185.79 0 l 1,0,0
 1022.43 0 l 1,0,0
EndSplineSet
EndChar

StartChar: Y
Encoding: 89 89 60
Width: 1366
GlyphClass: 2
Flags: HW
LayerCount: 2
Fore
SplineSet
768.17 585.98 m 1,0,0
 654.84 0 l 1,0,0
 499.16 0 l 1,0,0
 615.15 585.98 l 1,0,0
 226.53 1409 l 1,0,0
 390.85 1409 l 1,0,0
 712.36 712.23 l 1,0,0
 1300.74 1409 l 1,0,0
 1478.77 1409 l 1,0,0
 768.17 585.98 l 1,0,0
EndSplineSet
EndChar

StartChar: Z
Encoding: 90 90 61
Width: 1251
GlyphClass: 2
Flags: HW
LayerCount: 2
Fore
SplineSet
1107.05 131.25 m 1,0,0
 1082 0 l 1,0,0
 -37.36 0 l 1,0,0
 -14.65 121.22 l 1,0,0
 1081.26 1277.75 l 1,0,0
 282.6 1277.75 l 1,0,0
 307.65 1409 l 1,0,0
 1305.69 1409 l 1,0,0
 1282.98 1291.78 l 1,0,0
 188.06 131.25 l 1,0,0
 1107.05 131.25 l 1,0,0
EndSplineSet
EndChar

StartChar: bracketleft
Encoding: 91 91 62
Width: 531
GlyphClass: 2
Flags: HW
LayerCount: 2
Fore
SplineSet
348.44 -316.46 m 1,0,0
 327.4 -425 l 1,0,0
 -34.05 -425 l 1,0,0
 335.95 1484 l 1,0,0
 698.4 1484 l 1,0,0
 677.36 1375.13 l 1,0,0
 458.55 1375.13 l 1,0,0
 129.63 -316.46 l 1,0,0
 348.44 -316.46 l 1,0,0
EndSplineSet
EndChar

StartChar: backslash
Encoding: 92 92 63
Width: 569
GlyphClass: 2
Flags: HW
LayerCount: 2
Fore
SplineSet
275.85 1483.67 m 1,0,0
 452.2 -13.07 l 1,0,0
 330.23 -13.07 l 1,0,0
 157.55 1483.67 l 1,0,0
 275.85 1483.67 l 1,0,0
EndSplineSet
EndChar

StartChar: bracketright
Encoding: 93 93 64
Width: 531
GlyphClass: 2
Flags: HW
LayerCount: 2
Fore
SplineSet
565.1 1484 m 1,0,0
 194.1 -425 l 1,0,0
 -167.35 -425 l 1,0,0
 -146.31 -316.46 l 1,0,0
 70.84 -316.46 l 1,0,0
 399.76 1375.13 l 1,0,0
 181.61 1375.13 l 1,0,0
 202.65 1484 l 1,0,0
 565.1 1484 l 1,0,0
EndSplineSet
EndChar

StartChar: asciicircum
Encoding: 94 94 65
Width: 883
GlyphClass: 2
Flags: HW
LayerCount: 2
Fore
SplineSet
465.76 1319.2 m 1,0,0
 165.7 725.47 l 1,0,0
 25.15 725.47 l 1,0,0
 385.56 1409 l 1,0,0
 549.29 1409 l 1,0,0
 911.7 725.47 l 1,0,0
 769.15 725.47 l 1,0,0
 465.76 1319.2 l 1,0,0
EndSplineSet
EndChar

StartChar: underscore
Encoding: 95 95 66
Width: 1139
GlyphClass: 2
Flags: HW
LayerCount: 2
Fore
SplineSet
1005.13 -174.66 m 1,0,0
 1005.13 -250 l 1,0,0
 -173.2 -250 l 1,0,0
 -173.2 -174.66 l 1,0,0
 1005.13 -174.66 l 1,0,0
EndSplineSet
EndChar

StartChar: grave
Encoding: 96 96 67
Width: 682
GlyphClass: 2
Flags: HW
LayerCount: 2
Fore
SplineSet
421.49 1223.31 m 1,0,0
 419.48 1206.94 l 1,0,0
 351.28 1206.94 l 1,0,0
 77.53 1485.6 l 1,0,0
 81.54 1509.98 l 1,0,0
 271.71 1509.98 l 1,0,0
 421.49 1223.31 l 1,0,0
EndSplineSet
EndChar

StartChar: a
Encoding: 97 97 68
Width: 1139
GlyphClass: 2
Flags: HW
LayerCount: 2
Fore
SplineSet
938.55 -10 m 0,0,0
 877.89 -10 877.89 -10 844.535 4.33 c 0,0,0
 811.18 18.66 811.18 18.66 794.99 46.325 c 0,0,0
 778.8 73.99 778.8 73.99 775.785 114.325 c 0,0,0
 772.77 154.66 772.77 154.66 775.45 207 c 1,0,0
 769.45 207 l 1,0,0
 731.79 150.34 731.79 150.34 691.965 107.84 c 0,0,0
 652.14 65.34 652.14 65.34 604.985 37.005 c 0,0,0
 557.83 8.67 557.83 8.67 501.34 -5.665 c 0,0,0
 444.85 -20 444.85 -20 375.52 -20 c 0,0,0
 308.52 -20 308.52 -20 250.69 1 c 0,0,0
 192.86 22 192.86 22 149.865 60.5 c 0,0,0
 106.87 99 106.87 99 82.375 154 c 0,0,0
 57.88 209 57.88 209 57.88 278 c 0,0,0
 57.88 384.32 57.88 384.32 97.865 453.815 c 0,0,0
 137.85 523.31 137.85 523.31 202.665 565.31 c 0,0,0
 267.48 607.31 267.48 607.31 352.455 626.98 c 0,0,0
 437.43 646.65 437.43 646.65 526.245 653.655 c 0,0,0
 615.06 660.66 615.06 660.66 703.045 659.83 c 0,0,0
 791.03 659 791.03 659 863.03 660 c 1,0,0
 868.7 690.67 868.7 690.67 875.035 722.175 c 0,0,0
 881.37 753.68 881.37 753.68 881.37 785.68 c 0,0,0
 881.37 838.96 881.37 838.96 864.725 875.595 c 0,0,0
 848.08 912.23 848.08 912.23 817.95 935.545 c 0,0,0
 787.82 958.86 787.82 958.86 747.195 969.52 c 0,0,0
 706.57 980.18 706.57 980.18 657.28 980.18 c 0,0,0
 603.65 980.18 603.65 980.18 558.68 971.85 c 0,0,0
 513.71 963.52 513.71 963.52 476.905 943.03 c 0,0,0
 440.1 922.54 440.1 922.54 412.955 887.56 c 0,0,0
 385.81 852.58 385.81 852.58 367.83 798.28 c 1,0,0
 217.88 826.62 l 1,0,0
 245.86 908.63 245.86 908.63 289.035 961.805 c 0,0,0
 332.21 1014.98 332.21 1014.98 390.225 1046.485 c 0,0,0
 448.24 1077.99 448.24 1077.99 518.42 1089.995 c 0,0,0
 588.6 1102 588.6 1102 668.93 1102 c 0,0,0
 736.62 1102 736.62 1102 801.305 1084.015 c 0,0,0
 865.99 1066.03 865.99 1066.03 916.67 1030.04 c 0,0,0
 967.35 994.05 967.35 994.05 998.19 938.545 c 0,0,0
 1029.03 883.04 1029.03 883.04 1029.03 807 c 0,0,0
 1029.03 766.34 1029.03 766.34 1024.355 727.835 c 0,0,0
 1019.68 689.33 1019.68 689.33 1011.68 650 c 2,0,0
 936.69 263.75 l 2,0,0
 931.36 240.1 931.36 240.1 928.03 217.775 c 0,0,0
 924.7 195.45 924.7 195.45 924.7 170.47 c 0,0,0
 924.7 130.48 924.7 130.48 946.37 112.655 c 0,0,0
 968.04 94.83 968.04 94.83 1006.36 94.83 c 0,0,0
 1021.03 94.83 1021.03 94.83 1035.865 96.995 c 0,0,0
 1050.7 99.16 1050.7 99.16 1065.7 101.83 c 1,0,0
 1051.7 4.02 l 1,0,0
 1023 -1.34 1023 -1.34 994.63 -5.67 c 0,0,0
 966.26 -10 966.26 -10 938.55 -10 c 0,0,0
217.2 273.13 m 0,0,0
 217.2 233.81 217.2 233.81 231.19 200.99 c 0,0,0
 245.18 168.17 245.18 168.17 269.665 145.345 c 0,0,0
 294.15 122.52 294.15 122.52 327.635 110.025 c 0,0,0
 361.12 97.53 361.12 97.53 400.44 97.53 c 0,0,0
 472.71 97.53 472.71 97.53 541.63 121.175 c 0,0,0
 610.55 144.82 610.55 144.82 666.98 188.275 c 0,0,0
 723.41 231.73 723.41 231.73 763.525 292.165 c 0,0,0
 803.64 352.6 803.64 352.6 818.63 426.18 c 2,0,0
 841.34 546.89 l 1,0,0
 644.76 545.56 l 2,0,0
 566.85 545.56 566.85 545.56 490.595 535.73 c 0,0,0
 414.34 525.9 414.34 525.9 353.9 496.92 c 0,0,0
 293.46 467.94 293.46 467.94 255.33 413.99 c 0,0,0
 217.2 360.04 217.2 360.04 217.2 273.13 c 0,0,0
EndSplineSet
EndChar

StartChar: b
Encoding: 98 98 69
Width: 1102
GlyphClass: 2
Flags: HW
LayerCount: 2
Fore
SplineSet
707.37 1102 m 0,0,0
 863.71 1102 863.71 1102 950.715 1007.5 c 0,0,0
 1037.72 913 1037.72 913 1037.72 748 c 0,0,0
 1037.72 647.99 1037.72 647.99 1022.885 548.995 c 0,0,0
 1008.05 450 1008.05 450 977.05 355 c 0,0,0
 916.38 165.66 916.38 165.66 804.545 72.83 c 0,0,0
 692.71 -20 692.71 -20 520.04 -20 c 0,0,0
 397.7 -20 397.7 -20 320.865 32 c 0,0,0
 244.03 84 244.03 84 212.03 178 c 1,0,0
 209.03 178 l 1,0,0
 206.35 162.28 206.35 162.28 198.685 126.135 c 0,0,0
 191.02 89.99 191.02 89.99 182.03 56.36 c 0,0,0
 175.7 29.72 175.7 29.72 171.53 13.385 c 0,0,0
 167.36 -2.95 167.36 -2.95 167.68 0 c 1,0,0
 27.02 0 l 1,0,0
 32.02 15 32.02 15 46.355 82 c 0,0,0
 60.69 149 60.69 149 76.02 223 c 2,0,0
 320.69 1484 l 1,0,0
 467.36 1484 l 1,0,0
 384.69 1062.32 l 2,0,0
 381.68 1042.29 381.68 1042.29 372.85 1007.62 c 0,0,0
 364.02 972.95 364.02 972.95 350.03 923.64 c 1,0,0
 354.03 923.64 l 1,0,0
 432.64 1022.27 432.64 1022.27 510.835 1062.135 c 0,0,0
 589.03 1102 589.03 1102 707.37 1102 c 0,0,0
677.81 981.48 m 0,0,0
 466.02 981.48 466.02 981.48 360.76 796.05 c 0,0,0
 334.4 745.4 334.4 745.4 314.55 681.23 c 0,0,0
 294.7 617.06 294.7 617.06 281.69 555.33 c 0,0,0
 262.03 454.01 262.03 454.01 262.03 369.08 c 0,0,0
 262.03 238.14 262.03 238.14 328.995 165.67 c 0,0,0
 395.96 93.2 395.96 93.2 514.9 93.2 c 0,0,0
 646.49 93.2 646.49 93.2 723.44 173.49 c 0,0,0
 761.75 213.8 761.75 213.8 791.735 278.945 c 0,0,0
 821.72 344.09 821.72 344.09 842.38 422.23 c 0,0,0
 863.04 500.37 863.04 500.37 873.705 579.17 c 0,0,0
 884.37 657.97 884.37 657.97 884.37 723.26 c 0,0,0
 884.37 852.2 884.37 852.2 833.575 916.84 c 0,0,0
 782.78 981.48 782.78 981.48 677.81 981.48 c 0,0,0
EndSplineSet
EndChar

StartChar: c
Encoding: 99 99 70
Width: 986
GlyphClass: 2
Flags: HW
LayerCount: 2
Fore
SplineSet
446.89 105.17 m 0,0,0
 556.49 105.17 556.49 105.17 634.43 164.32 c 0,0,0
 712.37 223.47 712.37 223.47 757.67 342.43 c 1,0,0
 875.72 293.76 l 1,0,0
 748.44 -20 748.44 -20 446.85 -20 c 0,0,0
 264.09 -20 264.09 -20 166.205 87.845 c 0,0,0
 68.32 195.69 68.32 195.69 68.32 391.7 c 0,0,0
 68.32 594.35 68.32 594.35 139.34 765.68 c 0,0,0
 209.03 938.01 209.03 938.01 324.57 1020.005 c 0,0,0
 440.11 1102 440.11 1102 606.85 1102 c 0,0,0
 769.25 1102 769.25 1102 862.965 1020.465 c 0,0,0
 956.68 938.93 956.68 938.93 965.36 798.19 c 1,0,0
 823.67 772.53 l 1,0,0
 817.34 870.19 817.34 870.19 759.38 924.175 c 0,0,0
 701.42 978.16 701.42 978.16 606.13 978.16 c 0,0,0
 445.93 978.16 445.93 978.16 358.83 880.72 c 0,0,0
 271.73 783.28 271.73 783.28 234.7 590.96 c 1,0,0
 225.03 544.93 225.03 544.93 220.36 491.625 c 0,0,0
 215.69 438.32 215.69 438.32 215.69 383.06 c 0,0,0
 215.69 105.17 215.69 105.17 446.89 105.17 c 0,0,0
EndSplineSet
EndChar

StartChar: d
Encoding: 100 100 71
Width: 1102
GlyphClass: 2
Flags: HW
LayerCount: 2
Fore
SplineSet
403.97 -21 m 0,0,0
 245.98 -21 245.98 -21 159.305 71.025 c 0,0,0
 72.63 163.05 72.63 163.05 72.63 326.07 c 0,0,0
 72.63 531.37 72.63 531.37 133.97 726.67 c 0,0,0
 195.31 920.31 195.31 920.31 304.825 1010.49 c 0,0,0
 414.34 1100.67 414.34 1100.67 590.64 1100.67 c 0,0,0
 711.99 1100.67 711.99 1100.67 789.16 1047.845 c 0,0,0
 866.33 995.02 866.33 995.02 899.32 902.67 c 1,0,0
 904.32 902.67 l 1,0,0
 912.97 950.6 912.97 950.6 920.3 991.265 c 0,0,0
 927.63 1031.93 927.63 1031.93 932.98 1064.67 c 2,0,0
 1014.32 1484 l 1,0,0
 1162.31 1484 l 1,0,0
 915 220.36 l 2,0,0
 899.68 145.74 899.68 145.74 889.355 90.4 c 0,0,0
 879.03 35.06 879.03 35.06 874.03 0 c 1,0,0
 738 0 l 1,0,0
 738 47.04 738 47.04 760.98 160 c 1,0,0
 755.65 160 l 1,0,0
 681.99 64.34 681.99 64.34 601.485 21.67 c 0,0,0
 520.98 -21 520.98 -21 403.97 -21 c 0,0,0
432.54 100.18 m 0,0,0
 636.09 100.18 636.09 100.18 738.37 270.44 c 0,0,0
 773.02 326.42 773.02 326.42 797.84 403.89 c 0,0,0
 822.66 481.36 822.66 481.36 835.655 562.825 c 0,0,0
 848.65 644.29 848.65 644.29 848.65 711.59 c 0,0,0
 848.65 838.24 848.65 838.24 779.705 912.69 c 0,0,0
 710.76 987.14 710.76 987.14 591.49 987.14 c 0,0,0
 462.56 987.14 462.56 987.14 389.58 914.15 c 0,0,0
 341.26 865.49 341.26 865.49 303.78 767.045 c 0,0,0
 266.3 668.6 266.3 668.6 245.48 556.83 c 0,0,0
 224.66 445.06 224.66 445.06 224.66 355.76 c 0,0,0
 224.66 228.47 224.66 228.47 273.97 164.325 c 0,0,0
 323.28 100.18 323.28 100.18 432.54 100.18 c 0,0,0
EndSplineSet
EndChar

StartChar: e
Encoding: 101 101 72
Width: 1139
GlyphClass: 2
Flags: HW
LayerCount: 2
Fore
SplineSet
222.34 511.91 m 1,0,0
 216.67 478.24 216.67 478.24 212.68 390.99 c 0,0,0
 212.68 249.08 212.68 249.08 285.78 173.295 c 0,0,0
 358.88 97.51 358.88 97.51 507.07 97.51 c 0,0,0
 611.66 97.51 611.66 97.51 699.24 147.49 c 0,0,0
 786.82 197.47 786.82 197.47 834.45 279.81 c 1,0,0
 937.14 220.44 l 1,0,0
 864.8 98.68 864.8 98.68 751.805 39.34 c 0,0,0
 638.81 -20 638.81 -20 485.41 -20 c 0,0,0
 288.37 -20 288.37 -20 179.675 90.18 c 0,0,0
 70.98 200.36 70.98 200.36 70.98 400.71 c 0,0,0
 70.98 597.07 70.98 597.07 141.65 761.05 c 0,0,0
 212.32 921.37 212.32 921.37 340.165 1011.685 c 0,0,0
 468.01 1102 468.01 1102 624.72 1102 c 0,0,0
 828.4 1102 828.4 1102 942.565 1000.485 c 0,0,0
 1056.73 898.97 1056.73 898.97 1056.73 713.61 c 0,0,0
 1056.73 607.96 1056.73 607.96 1032.73 511.91 c 1,0,0
 222.34 511.91 l 1,0,0
243.37 633.74 m 1,0,0
 899.14 633.74 l 1,0,0
 903.47 711.02 l 1,0,0
 903.47 840.63 903.47 840.63 834.02 912.24 c 0,0,0
 764.57 983.85 764.57 983.85 630.04 983.85 c 0,0,0
 483.5 983.85 483.5 983.85 383.42 892.08 c 0,0,0
 283.34 800.31 283.34 800.31 243.37 633.74 c 1,0,0
EndSplineSet
EndChar

StartChar: f
Encoding: 102 102 73
Width: 531
GlyphClass: 2
Flags: HW
LayerCount: 2
Fore
SplineSet
402.98 970.47 m 1,0,0
 214.35 0 l 1,0,0
 67.35 0 l 1,0,0
 255.98 970.47 l 1,0,0
 105.96 970.47 l 1,0,0
 128.33 1082 l 1,0,0
 278.35 1082 l 1,0,0
 301.68 1206.97 l 2,0,0
 323.68 1317.63 323.68 1317.63 359.71 1374.64 c 0,0,0
 394.08 1428.33 394.08 1428.33 449.805 1456.165 c 0,0,0
 505.53 1484 505.53 1484 596.92 1484 c 0,0,0
 673.57 1484 673.57 1484 710.69 1473.65 c 1,0,0
 687.99 1351.17 l 1,0,0
 675.34 1353.5 675.34 1353.5 664.335 1354.835 c 0,0,0
 653.33 1356.17 653.33 1356.17 643.65 1357.17 c 0,0,0
 633.31 1357.84 633.31 1357.84 621.64 1358.175 c 0,0,0
 609.97 1358.51 609.97 1358.51 598.64 1358.51 c 0,0,0
 535.63 1358.51 535.63 1358.51 501.64 1325.845 c 0,0,0
 467.65 1293.18 467.65 1293.18 445.34 1182.96 c 2,0,0
 425.35 1082 l 1,0,0
 635.69 1082 l 1,0,0
 613.32 970.47 l 1,0,0
 402.98 970.47 l 1,0,0
EndSplineSet
EndChar

StartChar: g
Encoding: 103 103 74
Width: 1102
GlyphClass: 2
Flags: HW
LayerCount: 2
Fore
SplineSet
385.78 -425 m 0,0,0
 226.68 -425 226.68 -425 130.985 -363.98 c 0,0,0
 35.29 -302.96 35.29 -302.96 7.63 -183.23 c 1,0,0
 131.03 -137.27 l 1,0,0
 167.34 -304.17 167.34 -304.17 380.21 -304.17 c 0,0,0
 532.77 -304.17 532.77 -304.17 616.38 -225.885 c 0,0,0
 699.99 -147.6 699.99 -147.6 731.33 27 c 0,0,0
 738.67 69.68 738.67 69.68 748 113.18 c 0,0,0
 757.33 156.68 757.33 156.68 766.32 201 c 1,0,0
 764.32 201 l 1,0,0
 703.98 113.33 703.98 113.33 655.65 73 c 0,0,0
 607.65 34 607.65 34 548.15 13 c 0,0,0
 488.65 -8 488.65 -8 411.65 -8 c 0,0,0
 259.31 -8 259.31 -8 165.48 92.665 c 0,0,0
 71.65 193.33 71.65 193.33 71.65 359.99 c 0,0,0
 71.65 456.25 71.65 456.25 91.95 567.635 c 0,0,0
 112.25 679.02 112.25 679.02 149.36 781.755 c 0,0,0
 186.47 884.49 186.47 884.49 236.73 954.8 c 0,0,0
 302.39 1029.41 302.39 1029.41 389.285 1065.205 c 0,0,0
 476.18 1101 476.18 1101 588.66 1101 c 0,0,0
 710.65 1101 710.65 1101 793.655 1043.67 c 0,0,0
 876.66 986.34 876.66 986.34 899.67 898.32 c 1,0,0
 901.67 898.32 l 1,0,0
 907 924.97 907 924.97 917 965.975 c 0,0,0
 927 1006.98 927 1006.98 936.835 1041.325 c 0,0,0
 946.67 1075.67 946.67 1075.67 949.67 1082 c 1,0,0
 1089.65 1082 l 1,0,0
 1070.65 1000.33 l 1,0,0
 1040.65 859.65 l 1,0,0
 880.97 37.93 l 2,0,0
 832.64 -207.04 832.64 -207.04 712.27 -316.02 c 0,0,0
 591.9 -425 591.9 -425 385.78 -425 c 0,0,0
226 365.41 m 0,0,0
 226 101.24 226 101.24 444.22 101.24 c 0,0,0
 558.49 101.24 558.49 101.24 651.44 184.2 c 0,0,0
 744.39 265.83 744.39 265.83 795.86 409.925 c 0,0,0
 847.33 554.02 847.33 554.02 847.33 709.94 c 0,0,0
 847.33 841.87 847.33 841.87 779.37 914.67 c 0,0,0
 711.41 987.47 711.41 987.47 593.47 987.47 c 0,0,0
 498.85 987.47 498.85 987.47 435.22 948.82 c 0,0,0
 371.59 910.17 371.59 910.17 328.61 828.53 c 0,0,0
 300.29 775.21 300.29 775.21 276.97 694.07 c 0,0,0
 253.65 612.93 253.65 612.93 239.825 525.64 c 0,0,0
 226 438.35 226 438.35 226 365.41 c 0,0,0
EndSplineSet
EndChar

StartChar: h
Encoding: 104 104 75
Width: 1102
GlyphClass: 2
Flags: HW
LayerCount: 2
Fore
SplineSet
349.01 897 m 1,0,0
 434.65 1015.63 434.65 1015.63 515.84 1058.315 c 0,0,0
 597.03 1101 597.03 1101 711.37 1101 c 0,0,0
 858.05 1101 858.05 1101 931.725 1028 c 0,0,0
 1005.4 955 1005.4 955 1005.4 817 c 0,0,0
 1005.4 782.69 1005.4 782.69 1001.06 746.145 c 0,0,0
 996.72 709.6 996.72 709.6 984.4 653 c 2,0,0
 857.4 0 l 1,0,0
 708.74 0 l 1,0,0
 837.38 661.5 l 2,0,0
 852.74 737.96 852.74 737.96 852.74 806.55 c 0,0,0
 852.74 986.09 852.74 986.09 664.83 986.09 c 0,0,0
 575.22 986.09 575.22 986.09 500.75 940.61 c 0,0,0
 426.28 895.13 426.28 895.13 373.635 810.515 c 0,0,0
 320.99 725.9 320.99 725.9 296.68 606 c 2,0,0
 178.68 0 l 1,0,0
 33.67 0 l 1,0,0
 322.33 1484 l 1,0,0
 469.33 1484 l 1,0,0
 395.65 1104.27 l 2,0,0
 386.65 1052.95 386.65 1052.95 373.99 1000.635 c 0,0,0
 361.33 948.32 361.33 948.32 346.01 897 c 1,0,0
 349.01 897 l 1,0,0
EndSplineSet
EndChar

StartChar: i
Encoding: 105 105 76
Width: 417
GlyphClass: 2
Flags: HW
LayerCount: 2
Fore
SplineSet
467.01 1484 m 1,0,0
 435.32 1323.55 l 1,0,0
 288.65 1323.55 l 1,0,0
 320.34 1484 l 1,0,0
 467.01 1484 l 1,0,0
389.01 1082 m 1,0,0
 178.01 0 l 1,0,0
 32.34 0 l 1,0,0
 242.34 1082 l 1,0,0
 389.01 1082 l 1,0,0
EndSplineSet
Substitution2: "Single Substitution lookup 3 subtable" dotlessi
EndChar

StartChar: j
Encoding: 106 106 77
Width: 417
GlyphClass: 2
Flags: HW
LayerCount: 2
Fore
SplineSet
468.34 1484 m 1,0,0
 437.65 1323.55 l 1,0,0
 290.98 1323.55 l 1,0,0
 321.67 1484 l 1,0,0
 468.34 1484 l 1,0,0
-115.18 -425 m 0,0,0
 -153.66 -425 -153.66 -425 -231.97 -412.65 c 1,0,0
 -213.26 -293.81 l 1,0,0
 -183.3 -298.8 -183.3 -298.8 -160.985 -300.965 c 0,0,0
 -138.67 -303.13 -138.67 -303.13 -122.01 -303.13 c 0,0,0
 -65.65 -303.13 -65.65 -303.13 -36.145 -258.655 c 0,0,0
 -6.64 -214.18 -6.64 -214.18 10.03 -122.51 c 2,0,0
 243.67 1082 l 1,0,0
 390.34 1082 l 1,0,0
 153.01 -135.98 l 2,0,0
 121.35 -298.6 121.35 -298.6 57.125 -361.8 c 0,0,0
 -7.1 -425 -7.1 -425 -115.18 -425 c 0,0,0
EndSplineSet
Substitution2: "Single Substitution lookup 3 subtable" uni0237
EndChar

StartChar: k
Encoding: 107 107 78
Width: 986
GlyphClass: 2
Flags: HW
LayerCount: 2
Fore
SplineSet
247.05 363.48 m 1,0,0
 179.34 0 l 1,0,0
 33.67 0 l 1,0,0
 321.67 1484 l 1,0,0
 468.34 1484 l 1,0,0
 285.38 544.89 l 1,0,0
 503.9 746.77 l 1,0,0
 883.38 1082 l 1,0,0
 1072.38 1082 l 1,0,0
 523.57 602.81 l 1,0,0
 879.7 0 l 1,0,0
 718.69 0 l 1,0,0
 424.29 503.65 l 1,0,0
 247.05 363.48 l 1,0,0
EndSplineSet
EndChar

StartChar: l
Encoding: 108 108 79
Width: 417
GlyphClass: 2
Flags: HW
LayerCount: 2
Fore
SplineSet
467.01 1484 m 1,0,0
 178.01 0 l 1,0,0
 32.34 0 l 1,0,0
 320.34 1484 l 1,0,0
 467.01 1484 l 1,0,0
EndSplineSet
EndChar

StartChar: m
Encoding: 109 109 80
Width: 1668
GlyphClass: 2
Flags: HW
LayerCount: 2
Fore
SplineSet
655.71 0 m 1,0,0
 780.04 633.67 l 2,0,0
 807.68 764.91 807.68 764.91 807.68 820.21 c 0,0,0
 807.68 899.83 807.68 899.83 767.535 942.465 c 0,0,0
 727.39 985.1 727.39 985.1 633.8 985.1 c 0,0,0
 508.56 985.1 508.56 985.1 416.12 878.345 c 0,0,0
 323.68 771.59 323.68 771.59 296.68 604 c 1,0,0
 178.68 0 l 1,0,0
 33.67 0 l 1,0,0
 199.67 851 l 2,0,0
 219.67 946 219.67 946 238.67 1082 c 1,0,0
 375.01 1082 l 1,0,0
 375.01 1075 375.01 1075 370.01 1040.5 c 0,0,0
 365.01 1006 365.01 1006 358.51 965.5 c 0,0,0
 352.01 925 352.01 925 347.01 897 c 1,0,0
 350.01 897 l 1,0,0
 421.69 1010.34 421.69 1010.34 494.86 1055.67 c 0,0,0
 568.03 1101 568.03 1101 670.03 1101 c 0,0,0
 916.38 1101 916.38 1101 945.38 869 c 1,0,0
 1029.37 1000.65 1029.37 1000.65 1109.21 1050.825 c 0,0,0
 1189.05 1101 1189.05 1101 1291.4 1101 c 0,0,0
 1425.41 1101 1425.41 1101 1497.58 1028 c 0,0,0
 1569.75 955 1569.75 955 1569.75 817 c 0,0,0
 1569.75 754 1569.75 754 1548.75 653 c 2,0,0
 1422.08 0 l 1,0,0
 1277.41 0 l 1,0,0
 1402.07 636.31 l 2,0,0
 1429.38 768.87 1429.38 768.87 1429.38 820.21 c 0,0,0
 1429.71 899.83 1429.71 899.83 1389.565 942.465 c 0,0,0
 1349.42 985.1 1349.42 985.1 1255.5 985.1 c 0,0,0
 1131.25 985.1 1131.25 985.1 1038.98 880.835 c 0,0,0
 946.71 776.57 946.71 776.57 918.05 607 c 2,0,0
 800.38 0 l 1,0,0
 655.71 0 l 1,0,0
EndSplineSet
EndChar

StartChar: n
Encoding: 110 110 81
Width: 1102
GlyphClass: 2
Flags: HW
LayerCount: 2
Fore
SplineSet
298.01 606 m 2,0,0
 180.01 0 l 1,0,0
 33.67 0 l 1,0,0
 199.67 851 l 2,0,0
 210.33 900.31 210.33 900.31 219.83 958.475 c 0,0,0
 229.33 1016.64 229.33 1016.64 239 1082 c 1,0,0
 376.66 1082 l 1,0,0
 376.66 1074.67 376.66 1074.67 371.495 1041.49 c 0,0,0
 366.33 1008.31 366.33 1008.31 359.5 968.305 c 0,0,0
 352.67 928.3 352.67 928.3 347.34 897 c 1,0,0
 350.34 897 l 1,0,0
 435.98 1015.63 435.98 1015.63 517.17 1058.315 c 0,0,0
 598.36 1101 598.36 1101 712.7 1101 c 0,0,0
 859.38 1101 859.38 1101 933.055 1028 c 0,0,0
 1006.73 955 1006.73 955 1006.73 817 c 0,0,0
 1006.73 782.69 1006.73 782.69 1002.39 746.145 c 0,0,0
 998.05 709.6 998.05 709.6 985.73 653 c 2,0,0
 858.73 0 l 1,0,0
 710.07 0 l 1,0,0
 838.71 661.5 l 2,0,0
 854.07 737.96 854.07 737.96 854.07 806.55 c 0,0,0
 854.07 986.09 854.07 986.09 666.16 986.09 c 0,0,0
 576.55 986.09 576.55 986.09 502.08 940.61 c 0,0,0
 427.61 895.13 427.61 895.13 374.965 810.515 c 0,0,0
 322.32 725.9 322.32 725.9 298.01 606 c 2,0,0
EndSplineSet
EndChar

StartChar: o
Encoding: 111 111 82
Width: 1102
GlyphClass: 2
Flags: HW
LayerCount: 2
Fore
SplineSet
1037.37 683 m 0,0,0
 1037.37 544.09 1037.37 544.09 990.77 388.415 c 0,0,0
 944.17 232.74 944.17 232.74 859.28 128.8 c 0,0,0
 786.59 52.92 786.59 52.92 692.285 16.46 c 0,0,0
 597.98 -20 597.98 -20 476.48 -20 c 0,0,0
 287.74 -20 287.74 -20 178.03 98.165 c 0,0,0
 68.32 216.33 68.32 216.33 68.32 419 c 1,0,0
 74.97 627.98 74.97 627.98 140.34 782.98 c 0,0,0
 207.04 941.97 207.04 941.97 323.615 1021.485 c 0,0,0
 440.19 1101 440.19 1101 621.54 1101 c 0,0,0
 823.29 1101 823.29 1101 930.33 991.5 c 0,0,0
 1037.37 882 1037.37 882 1037.37 683 c 0,0,0
887.01 689.93 m 1,0,0
 887.01 988.8 887.01 988.8 625.81 988.8 c 0,0,0
 483.55 988.8 483.55 988.8 398.26 916.83 c 0,0,0
 341.29 868.85 341.29 868.85 300.81 784.72 c 0,0,0
 260.33 700.59 260.33 700.59 238.675 601.8 c 0,0,0
 217.02 503.01 217.02 503.01 217.02 411.05 c 0,0,0
 217.02 257.11 217.02 257.11 284.98 175.32 c 0,0,0
 352.94 93.53 352.94 93.53 480.88 93.53 c 0,0,0
 599.39 93.53 599.39 93.53 667.83 135.295 c 0,0,0
 736.27 177.06 736.27 177.06 787.89 264.91 c 0,0,0
 828.95 344.85 828.95 344.85 855.81 457.855 c 0,0,0
 882.67 570.86 882.67 570.86 887.01 689.93 c 1,0,0
EndSplineSet
EndChar

StartChar: p
Encoding: 112 112 83
Width: 1102
GlyphClass: 2
Flags: HW
LayerCount: 2
Fore
SplineSet
518.36 -20 m 0,0,0
 396.02 -20 396.02 -20 318.685 32 c 0,0,0
 241.35 84 241.35 84 209.35 178 c 1,0,0
 203.36 178 l 1,0,0
 204.68 181.58 204.68 181.58 204.495 175.145 c 0,0,0
 204.31 168.71 204.31 168.71 203.28 153.59 c 0,0,0
 204.56 151.67 204.56 151.67 176.58 7.105 c 0,0,0
 92.69 -425 l 1,0,0
 -52.98 -425 l 1,0,0
 198 870.24 l 2,0,0
 203 892.92 203 892.92 207.17 915.93 c 0,0,0
 211.34 938.94 211.34 938.94 215.34 961.62 c 0,0,0
 224.01 1022.31 l 0,0,0
 231.68 1082 l 1,0,0
 363.04 1082 l 1,0,0
 363.04 1061.03 363.04 1061.03 360.205 1029.025 c 0,0,0
 357.37 997.02 357.37 997.02 353.7 967.835 c 0,0,0
 350.03 938.65 350.03 938.65 348.02 923.64 c 1,0,0
 352.02 923.64 l 1,0,0
 425.35 1016.99 425.35 1016.99 505.855 1059.495 c 0,0,0
 586.36 1102 586.36 1102 705.69 1102 c 0,0,0
 862.03 1102 862.03 1102 949.035 1007.5 c 0,0,0
 1036.04 913 1036.04 913 1036.04 748 c 0,0,0
 1036.04 543.01 1036.04 543.01 975.37 355 c 0,0,0
 914.7 165.66 914.7 165.66 802.865 72.83 c 0,0,0
 691.03 -20 691.03 -20 518.36 -20 c 0,0,0
676.13 981.48 m 0,0,0
 586.04 981.48 586.04 981.48 517.19 956.655 c 0,0,0
 448.34 931.83 448.34 931.83 394.39 882.51 c 0,0,0
 353.48 820.92 353.48 820.92 322.88 730.245 c 0,0,0
 292.28 639.57 292.28 639.57 276.315 544.25 c 0,0,0
 260.35 448.93 260.35 448.93 260.35 369.08 c 0,0,0
 260.35 238.14 260.35 238.14 327.315 165.67 c 0,0,0
 394.28 93.2 394.28 93.2 513.22 93.2 c 0,0,0
 644.15 93.2 644.15 93.2 720.77 173.16 c 0,0,0
 758.75 213.14 758.75 213.14 788.9 278.945 c 0,0,0
 819.05 344.75 819.05 344.75 840.205 423.715 c 0,0,0
 861.36 502.68 861.36 502.68 872.52 581.315 c 0,0,0
 883.68 659.95 883.68 659.95 883.68 723.26 c 0,0,0
 883.68 851.87 883.68 851.87 833.875 916.675 c 0,0,0
 784.07 981.48 784.07 981.48 676.13 981.48 c 0,0,0
EndSplineSet
EndChar

StartChar: q
Encoding: 113 113 84
Width: 1102
GlyphClass: 2
Flags: HW
LayerCount: 2
Fore
SplineSet
403.31 -21 m 0,0,0
 244.66 -21 244.66 -21 158.48 72.345 c 0,0,0
 72.3 165.69 72.3 165.69 72.3 328.05 c 0,0,0
 72.3 531.7 72.3 531.7 133.64 727 c 0,0,0
 194.98 920.64 194.98 920.64 304.33 1010.655 c 0,0,0
 413.68 1100.67 413.68 1100.67 590.64 1100.67 c 0,0,0
 711.33 1100.67 711.33 1100.67 790.975 1046.525 c 0,0,0
 870.62 992.38 870.62 992.38 899.65 903 c 1,0,0
 904.65 903 l 1,0,0
 912.32 937.35 912.32 937.35 922.48 982.155 c 0,0,0
 932.64 1026.96 932.64 1026.96 941.97 1062.105 c 0,0,0
 951.3 1097.25 951.3 1097.25 954.31 1100.62 c 1,0,0
 1095.3 1100.62 l 1,0,0
 1081.99 1053.04 1081.99 1053.04 1062.52 966.34 c 0,0,0
 1043.05 879.64 1043.05 879.64 1018.75 752.16 c 0,0,0
 943.91 362.67 943.91 362.67 886.22 67.715 c 0,0,0
 828.53 -227.24 828.53 -227.24 790.32 -425 c 1,0,0
 643.65 -425 l 1,0,0
 728.65 16.31 l 1,0,0
 759.33 159.01 l 1,0,0
 755.33 159.01 l 1,0,0
 682.99 65 682.99 65 603.145 22 c 0,0,0
 523.3 -21 523.3 -21 403.31 -21 c 0,0,0
431.55 100.18 m 0,0,0
 521.31 100.18 521.31 100.18 590.325 124.84 c 0,0,0
 659.34 149.5 659.34 149.5 713.95 199.82 c 0,0,0
 755.86 261.74 755.86 261.74 785.96 352.08 c 0,0,0
 816.06 442.42 816.06 442.42 832.19 538.075 c 0,0,0
 848.32 633.73 848.32 633.73 848.32 711.92 c 0,0,0
 848.32 840.22 848.32 840.22 778.22 913.68 c 0,0,0
 708.12 987.14 708.12 987.14 586.54 987.14 c 0,0,0
 460.91 987.14 460.91 987.14 387.93 912.5 c 0,0,0
 339.94 862.85 339.94 862.85 302.79 764.735 c 0,0,0
 265.64 666.62 265.64 666.62 244.985 556.005 c 0,0,0
 224.33 445.39 224.33 445.39 224.33 358.07 c 0,0,0
 224.33 228.8 224.33 228.8 273.475 164.49 c 0,0,0
 322.62 100.18 322.62 100.18 431.55 100.18 c 0,0,0
EndSplineSet
EndChar

StartChar: r
Encoding: 114 114 85
Width: 644
GlyphClass: 2
Flags: HW
LayerCount: 2
Fore
SplineSet
676.42 966.05 m 1,0,0
 643.33 978.39 643.33 978.39 594.34 978.39 c 0,0,0
 528.3 978.39 528.3 978.39 466.135 923.93 c 0,0,0
 403.97 869.47 403.97 869.47 357.98 779.665 c 0,0,0
 311.99 689.86 311.99 689.86 293.31 580.5 c 2,0,0
 180.34 0 l 1,0,0
 33.67 0 l 1,0,0
 196 830 l 2,0,0
 202 866.98 202 866.98 208.83 903.295 c 0,0,0
 215.66 939.61 215.66 939.61 222.32 974.93 c 0,0,0
 226.99 1002.61 226.99 1002.61 231.16 1029.295 c 0,0,0
 235.33 1055.98 235.33 1055.98 239.33 1082 c 1,0,0
 376.99 1082 l 1,0,0
 348.34 913.99 l 1,0,0
 340.34 861 l 1,0,0
 344.34 861 l 1,0,0
 408.03 993.67 408.03 993.67 469.72 1047.835 c 0,0,0
 531.41 1102 531.41 1102 612.77 1102 c 0,0,0
 656.44 1102 656.44 1102 705.13 1088 c 1,0,0
 676.42 966.05 l 1,0,0
EndSplineSet
EndChar

StartChar: s
Encoding: 115 115 86
Width: 986
GlyphClass: 2
Flags: HW
LayerCount: 2
Fore
SplineSet
876.31 311.39 m 0,0,0
 876.31 153.35 876.31 153.35 753.795 66.675 c 0,0,0
 631.28 -20 631.28 -20 401.24 -20 c 0,0,0
 236.15 -20 236.15 -20 138.105 34.375 c 0,0,0
 40.06 88.75 40.06 88.75 -0.94 207.16 c 1,0,0
 111.74 269.76 l 1,0,0
 148.7 177.47 148.7 177.47 222.655 135.16 c 0,0,0
 296.61 92.85 296.61 92.85 415.92 92.85 c 0,0,0
 729.69 92.85 729.69 92.85 729.69 300.67 c 0,0,0
 729.69 366.3 729.69 366.3 675.39 412.59 c 0,0,0
 620.09 458.21 620.09 458.21 448.5 516.14 c 0,0,0
 316.53 564.42 316.53 564.42 258.15 603.09 c 0,0,0
 202.07 641.11 202.07 641.11 169.555 690.98 c 0,0,0
 137.04 740.85 137.04 740.85 137.04 806.24 c 0,0,0
 137.04 946.29 137.04 946.29 249.905 1022.645 c 0,0,0
 362.77 1099 362.77 1099 566.51 1099 c 0,0,0
 733.94 1099 733.94 1099 832.945 1037.81 c 0,0,0
 931.95 976.62 931.95 976.62 953.29 854.89 c 1,0,0
 819.33 831.21 l 1,0,0
 795.68 913.51 795.68 913.51 730.72 949.83 c 0,0,0
 665.76 986.15 665.76 986.15 556.82 986.15 c 0,0,0
 425.89 986.15 425.89 986.15 354.275 943.515 c 0,0,0
 282.66 900.88 282.66 900.88 282.66 824.92 c 0,0,0
 282.66 779.95 282.66 779.95 303.99 749.305 c 0,0,0
 325.32 718.66 325.32 718.66 366.31 693.35 c 0,0,0
 407.63 668.04 407.63 668.04 549.63 619.08 c 0,0,0
 674.99 576.11 674.99 576.11 735.03 538.08 c 0,0,0
 800.36 497.41 800.36 497.41 838.335 442.235 c 0,0,0
 876.31 387.06 876.31 387.06 876.31 311.39 c 0,0,0
EndSplineSet
EndChar

StartChar: t
Encoding: 116 116 87
Width: 531
GlyphClass: 2
Flags: HW
LayerCount: 2
Fore
SplineSet
241.67 -21.32 m 0,0,0
 169.54 -21.32 169.54 -21.32 127.475 27.205 c 0,0,0
 85.41 75.73 85.41 75.73 85.41 151.81 c 0,0,0
 85.41 200.54 85.41 200.54 100.08 272.9 c 2,0,0
 234 970.47 l 1,0,0
 116.59 970.47 l 1,0,0
 138.96 1082 l 1,0,0
 254.41 1082 l 1,0,0
 348.85 1320.04 l 1,0,0
 450.37 1320.04 l 1,0,0
 403.7 1082 l 1,0,0
 603.04 1082 l 1,0,0
 580.01 970.47 l 1,0,0
 381.66 970.47 l 1,0,0
 249.73 289.17 l 2,0,0
 237.4 228.51 237.4 228.51 237.4 192.19 c 0,0,0
 237.4 148.85 237.4 148.85 259.57 127.015 c 0,0,0
 281.74 105.18 281.74 105.18 328.39 105.18 c 0,0,0
 369.04 105.18 369.04 105.18 425.75 119.51 c 1,0,0
 411.04 2.68 l 1,0,0
 306.1 -21.32 306.1 -21.32 241.67 -21.32 c 0,0,0
EndSplineSet
EndChar

StartChar: u
Encoding: 117 117 88
Width: 1102
GlyphClass: 2
Flags: HW
LayerCount: 2
Fore
SplineSet
742.72 185 m 1,0,0
 657.41 67.36 657.41 67.36 576.22 24.18 c 0,0,0
 495.03 -19 495.03 -19 380.36 -19 c 0,0,0
 233.68 -19 233.68 -19 160.005 54 c 0,0,0
 86.33 127 86.33 127 86.33 265 c 0,0,0
 86.33 288.65 86.33 288.65 88.5 311.505 c 0,0,0
 90.67 334.36 90.67 334.36 95.005 362.705 c 0,0,0
 99.34 391.05 99.34 391.05 107.33 429 c 2,0,0
 234.33 1082 l 1,0,0
 382.99 1082 l 1,0,0
 254.35 420.5 l 2,0,0
 238.99 344.71 238.99 344.71 238.99 275.45 c 0,0,0
 238.99 95.91 238.99 95.91 426.9 95.91 c 0,0,0
 516.18 95.91 516.18 95.91 590.98 141.555 c 0,0,0
 665.78 187.2 665.78 187.2 718.925 272.315 c 0,0,0
 772.07 357.43 772.07 357.43 795.05 476 c 2,0,0
 913.05 1082 l 1,0,0
 1059.39 1082 l 1,0,0
 893.39 231 l 2,0,0
 882.73 181.69 882.73 181.69 873.23 123.525 c 0,0,0
 863.73 65.36 863.73 65.36 854.06 0 c 1,0,0
 716.4 0 l 1,0,0
 716.4 8.66 716.4 8.66 721.565 41.175 c 0,0,0
 726.73 73.69 726.73 73.69 734.06 114.195 c 0,0,0
 741.39 154.7 741.39 154.7 745.72 185 c 1,0,0
 742.72 185 l 1,0,0
EndSplineSet
EndChar

StartChar: v
Encoding: 118 118 89
Width: 986
GlyphClass: 2
Flags: HW
LayerCount: 2
Fore
SplineSet
1085.7 1082 m 1,0,0
 469.05 0 l 1,0,0
 296.64 0 l 1,0,0
 112.66 1082 l 1,0,0
 266 1082 l 1,0,0
 376.9 345.33 l 2,0,0
 380.23 321.02 380.23 321.02 383.065 295.82 c 0,0,0
 385.9 270.62 385.9 270.62 389.235 241.58 c 0,0,0
 392.57 212.54 392.57 212.54 395.9 172.55 c 2,0,0
 400.23 118.89 l 1,0,0
 427.55 173.21 l 2,0,0
 449.89 216.58 449.89 216.58 472.23 259.275 c 0,0,0
 494.57 301.97 494.57 301.97 518.24 343.66 c 2,0,0
 924.68 1082 l 1,0,0
 1085.7 1082 l 1,0,0
EndSplineSet
EndChar

StartChar: w
Encoding: 119 119 90
Width: 1441
GlyphClass: 2
Flags: HW
LayerCount: 2
Fore
SplineSet
760.35 850.85 m 2,0,0
 381.21 0 l 1,0,0
 202.58 0 l 1,0,0
 102.99 1082 l 1,0,0
 254.59 1082 l 1,0,0
 303.17 334.13 l 2,0,0
 305.5 279.85 305.5 279.85 308.325 224.74 c 0,0,0
 311.15 169.63 311.15 169.63 312.48 114.02 c 1,0,0
 332.48 160.69 332.48 160.69 353.64 208.69 c 0,0,0
 374.8 256.69 374.8 256.69 394.14 303.69 c 2,0,0
 750.65 1082 l 1,0,0
 908.01 1082 l 1,0,0
 952.67 303.69 l 2,0,0
 955.67 247.71 955.67 247.71 957.5 200.21 c 0,0,0
 959.33 152.71 959.33 152.71 959 114.02 c 1,0,0
 963.69 123.08 963.69 123.08 985.335 172.04 c 0,0,0
 1046.58 307.2 l 2,0,0
 1405.41 1082 l 1,0,0
 1551.71 1082 l 1,0,0
 1022.13 0 l 1,0,0
 842.17 0 l 1,0,0
 807.15 710.54 l 1,0,0
 800.82 948.52 l 1,0,0
 789.45 922.74 789.45 922.74 779.415 897.99 c 0,0,0
 769.38 873.24 769.38 873.24 760.35 850.85 c 2,0,0
EndSplineSet
EndChar

StartChar: x
Encoding: 120 120 91
Width: 986
GlyphClass: 2
Flags: HW
LayerCount: 2
Fore
SplineSet
483.47 464.13 m 1,0,0
 85.98 0 l 1,0,0
 -79.36 0 l 1,0,0
 407.36 554.02 l 1,0,0
 148.31 1082 l 1,0,0
 303.32 1082 l 1,0,0
 502.92 636.58 l 1,0,0
 870.74 1082 l 1,0,0
 1043.08 1082 l 1,0,0
 578.7 558.33 l 1,0,0
 855.41 0 l 1,0,0
 700.06 0 l 1,0,0
 483.47 464.13 l 1,0,0
EndSplineSet
EndChar

StartChar: y
Encoding: 121 121 92
Width: 986
GlyphClass: 2
Flags: HW
LayerCount: 2
Fore
SplineSet
-7.76 -425 m 0,0,0
 -69.18 -425 -69.18 -425 -126.23 -412.32 c 1,0,0
 -97.54 -298.78 l 1,0,0
 -47.23 -306.45 -47.23 -306.45 -23.84 -306.45 c 0,0,0
 76.77 -306.45 76.77 -306.45 153.56 -236.51 c 0,0,0
 230.35 -166.57 230.35 -166.57 303.98 -38.63 c 2,0,0
 330.65 8.04 l 1,0,0
 112 1082 l 1,0,0
 259.36 1082 l 1,0,0
 384.89 450.67 l 2,0,0
 394.21 407.37 394.21 407.37 401.54 364.355 c 0,0,0
 408.87 321.34 408.87 321.34 415.035 283.47 c 0,0,0
 421.2 245.6 421.2 245.6 425.2 218.395 c 0,0,0
 429.2 191.19 429.2 191.19 429.2 177.85 c 1,0,0
 434.2 189.18 434.2 189.18 441.525 204.165 c 0,0,0
 458.17 237.46 l 2,0,0
 574.56 440.02 l 1,0,0
 929.32 1082 l 1,0,0
 1094.99 1082 l 1,0,0
 478.23 18.81 l 1,0,0
 364.91 -184.77 364.91 -184.77 298.91 -262.74 c 0,0,0
 231.91 -344.04 231.91 -344.04 157.91 -384.52 c 0,0,0
 83.91 -425 83.91 -425 -7.76 -425 c 0,0,0
EndSplineSet
EndChar

StartChar: z
Encoding: 122 122 93
Width: 1024
GlyphClass: 2
Flags: HW
LayerCount: 2
Fore
SplineSet
838.79 117.22 m 1,0,0
 818.74 0 l 1,0,0
 -12.66 0 l 1,0,0
 5.39 116.54 l 1,0,0
 789.96 964.12 l 1,0,0
 182.38 964.12 l 1,0,0
 202.43 1082 l 1,0,0
 991.38 1082 l 1,0,0
 972.33 966.12 l 1,0,0
 186.77 117.22 l 1,0,0
 838.79 117.22 l 1,0,0
EndSplineSet
EndChar

StartChar: braceleft
Encoding: 123 123 94
Width: 646
GlyphClass: 2
Flags: HW
LayerCount: 2
Fore
SplineSet
358.74 -425 m 2,0,0
 250.38 -425 250.38 -425 185.87 -356.52 c 0,0,0
 121.36 -288.04 121.36 -288.04 121.36 -166.09 c 0,0,0
 121.36 -94.5 121.36 -94.5 131.03 -43.81 c 2,0,0
 185.38 236.26 l 2,0,0
 195.04 284.22 195.04 284.22 195.04 316.23 c 0,0,0
 195.04 401.21 195.04 401.21 149.035 436.72 c 0,0,0
 103.03 472.23 103.03 472.23 21.66 476.89 c 1,0,0
 42.37 582.44 l 1,0,0
 253.42 590.43 253.42 590.43 299.08 821.41 c 2,0,0
 370.07 1191.33 l 2,0,0
 397.74 1333.34 397.74 1333.34 470.6 1408.67 c 0,0,0
 543.46 1484 543.46 1484 681.5 1484 c 2,0,0
 797.03 1484 l 1,0,0
 775.99 1375.13 l 1,0,0
 717.28 1375.13 l 2,0,0
 625.97 1375.13 625.97 1375.13 575.655 1327.965 c 0,0,0
 525.34 1280.8 525.34 1280.8 500.68 1156.83 c 2,0,0
 428.71 785.65 l 2,0,0
 409.71 690.32 409.71 690.32 345.695 622.49 c 0,0,0
 281.68 554.66 281.68 554.66 190 532 c 1,0,0
 190.33 530.66 l 1,0,0
 257.68 514.32 257.68 514.32 296.86 464.485 c 0,0,0
 336.04 414.65 336.04 414.65 336.04 335.66 c 0,0,0
 336.04 308.66 336.04 308.66 329.71 274.35 c 2,0,0
 270.03 -39.7 l 2,0,0
 264.7 -64.69 264.7 -64.69 260.205 -115.61 c 0,0,0
 255.71 -166.53 255.71 -166.53 255.71 -184.86 c 0,0,0
 255.71 -241.85 255.71 -241.85 290.705 -279.155 c 0,0,0
 325.7 -316.46 325.7 -316.46 409.63 -316.46 c 2,0,0
 447.07 -316.46 l 1,0,0
 426.03 -425 l 1,0,0
 358.74 -425 l 2,0,0
EndSplineSet
EndChar

StartChar: bar
Encoding: 124 124 95
Width: 518
GlyphClass: 2
Flags: HW
LayerCount: 2
Fore
SplineSet
354.58 1484 m 1,0,0
 354.58 -463.57 l 1,0,0
 220.26 -463.57 l 1,0,0
 220.26 1484 l 1,0,0
 354.58 1484 l 1,0,0
EndSplineSet
EndChar

StartChar: braceright
Encoding: 125 125 96
Width: 646
GlyphClass: 2
Flags: HW
LayerCount: 2
Fore
SplineSet
277.97 1483.67 m 2,0,0
 386.33 1483.67 386.33 1483.67 450.84 1415.19 c 0,0,0
 515.35 1346.71 515.35 1346.71 515.35 1224.76 c 0,0,0
 515.35 1153.83 515.35 1153.83 505.68 1102.48 c 2,0,0
 451.33 822.41 l 2,0,0
 441.67 775.45 441.67 775.45 441.67 742.44 c 0,0,0
 441.67 657.46 441.67 657.46 488.17 621.95 c 0,0,0
 534.67 586.44 534.67 586.44 615.05 581.78 c 1,0,0
 594.34 476.23 l 1,0,0
 383.29 468.24 383.29 468.24 337.63 237.59 c 2,0,0
 266.64 -132.66 l 2,0,0
 239.63 -272.69 239.63 -272.69 167.1 -348.845 c 0,0,0
 94.57 -425 94.57 -425 -44.79 -425 c 2,0,0
 -160.32 -425 l 1,0,0
 -139.28 -316.13 l 1,0,0
 -80.57 -316.13 l 2,0,0
 10.74 -316.13 10.74 -316.13 61.055 -268.965 c 0,0,0
 111.37 -221.8 111.37 -221.8 136.03 -97.83 c 2,0,0
 208 273.35 l 2,0,0
 227 368.35 227 368.35 291.015 436.18 c 0,0,0
 355.03 504.01 355.03 504.01 446.71 526.67 c 1,0,0
 446.38 528.34 l 1,0,0
 379.36 544.68 379.36 544.68 340.015 594.185 c 0,0,0
 300.67 643.69 300.67 643.69 300.67 723.01 c 0,0,0
 300.67 751.34 300.67 751.34 307 784.32 c 2,0,0
 366.68 1098.7 l 2,0,0
 371.68 1123.03 371.68 1123.03 376.34 1175.28 c 0,0,0
 381 1227.53 381 1227.53 381 1243.53 c 0,0,0
 381 1300.52 381 1300.52 346.005 1337.825 c 0,0,0
 311.01 1375.13 311.01 1375.13 227.08 1375.13 c 2,0,0
 189.64 1375.13 l 1,0,0
 210.68 1483.67 l 1,0,0
 277.97 1483.67 l 2,0,0
EndSplineSet
EndChar

StartChar: asciitilde
Encoding: 126 126 97
Width: 1196
GlyphClass: 2
Flags: HW
LayerCount: 2
Fore
SplineSet
869.05 565.21 m 0,0,0
 802.03 565.21 802.03 565.21 729.53 587.54 c 0,0,0
 657.03 609.87 657.03 609.87 584.69 635.87 c 0,0,0
 458 680.21 458 680.21 369.01 680.21 c 0,0,0
 303.33 680.21 303.33 680.21 245.825 660.04 c 0,0,0
 188.32 639.87 188.32 639.87 123.32 592.21 c 1,0,0
 123.32 712.11 l 1,0,0
 233.66 796.11 233.66 796.11 383.68 796.11 c 0,0,0
 425.11 796.11 425.11 796.11 477.67 788.075 c 0,0,0
 530.23 780.04 530.23 780.04 594.92 758.03 c 0,0,0
 710.41 717.76 710.41 717.76 763.705 701.275 c 0,0,0
 817 684.79 817 684.79 838.86 681.95 c 0,0,0
 860.72 679.11 860.72 679.11 884.06 679.11 c 0,0,0
 1011.74 679.11 1011.74 679.11 1126.74 771.11 c 1,0,0
 1126.74 645.21 l 1,0,0
 1068.06 603.87 1068.06 603.87 1010.89 584.54 c 0,0,0
 953.72 565.21 953.72 565.21 869.05 565.21 c 0,0,0
EndSplineSet
EndChar

StartChar: exclamdown
Encoding: 161 161 99
Width: 682
GlyphClass: 2
Flags: HW
LayerCount: 2
Fore
SplineSet
518.84 1083.33 m 1,0,0
 483.13 905.1 l 1,0,0
 320.15 905.1 l 1,0,0
 355.86 1083.33 l 1,0,0
 518.84 1083.33 l 1,0,0
297.86 696.56 m 1,0,0
 418.8 696.56 l 1,0,0
 242.18 -325.67 l 1,0,0
 78.52 -325.67 l 1,0,0
 297.86 696.56 l 1,0,0
EndSplineSet
EndChar

StartChar: cent
Encoding: 162 162 100
Width: 1139
GlyphClass: 2
Flags: HW
LayerCount: 2
Fore
SplineSet
563.63 261.5 m 0,0,0
 673.23 261.5 673.23 261.5 751.17 320.65 c 0,0,0
 829.11 379.8 829.11 379.8 874.41 498.76 c 1,0,0
 992.46 450.09 l 1,0,0
 932.48 301.04 932.48 301.04 832.275 222.025 c 0,0,0
 732.07 143.01 732.07 143.01 589.32 136 c 1,0,0
 557.32 -31 l 1,0,0
 445.86 -31 l 1,0,0
 480.52 141.67 l 1,0,0
 336.8 162.35 336.8 162.35 260.93 268.355 c 0,0,0
 185.06 374.36 185.06 374.36 185.06 548.03 c 0,0,0
 185.06 672.65 185.06 672.65 217.69 806.83 c 0,0,0
 234.38 870.62 234.38 870.62 257.43 931.69 c 0,0,0
 280.48 992.76 280.48 992.76 309.89 1040.8 c 0,0,0
 373.57 1141.4 373.57 1141.4 466.735 1196.53 c 0,0,0
 559.9 1251.66 559.9 1251.66 697.85 1257.66 c 1,0,0
 724.86 1409 l 1,0,0
 836.32 1409 l 1,0,0
 808.31 1251.99 l 1,0,0
 935.68 1234.31 935.68 1234.31 1005.385 1155.94 c 0,0,0
 1075.09 1077.57 1075.09 1077.57 1082.1 954.52 c 1,0,0
 940.41 928.86 l 1,0,0
 934.08 1026.52 934.08 1026.52 876.12 1080.505 c 0,0,0
 818.16 1134.49 818.16 1134.49 722.87 1134.49 c 0,0,0
 589.27 1134.49 589.27 1134.49 506.66 1069.47 c 0,0,0
 452.05 1025.15 452.05 1025.15 413.245 941.035 c 0,0,0
 374.44 856.92 374.44 856.92 355.43 765.91 c 0,0,0
 345.09 715.56 345.09 715.56 338.76 657.765 c 0,0,0
 332.43 599.97 332.43 599.97 332.43 539.39 c 0,0,0
 332.43 261.5 332.43 261.5 563.63 261.5 c 0,0,0
EndSplineSet
EndChar

StartChar: sterling
Encoding: 163 163 101
Width: 1139
GlyphClass: 2
Flags: HW
LayerCount: 2
Fore
SplineSet
975.67 0 m 1,0,0
 0.87 0 l 1,0,0
 26.57 137.17 l 1,0,0
 124.56 185.81 124.56 185.81 183.555 268.27 c 0,0,0
 242.55 350.73 242.55 350.73 267.54 481 c 2,0,0
 296.53 631.93 l 1,0,0
 110.86 631.93 l 1,0,0
 133.55 747.4 l 1,0,0
 322.19 747.4 l 1,0,0
 378.51 1034 l 2,0,0
 418.84 1238.34 418.84 1238.34 532.165 1334.17 c 0,0,0
 645.49 1430 645.49 1430 830.52 1430 c 0,0,0
 969.28 1430 969.28 1430 1061.81 1373.11 c 0,0,0
 1154.34 1316.22 1154.34 1316.22 1179.32 1223.1 c 1,0,0
 1042.05 1172.44 l 1,0,0
 1020.4 1229.84 1020.4 1229.84 959.615 1263.015 c 0,0,0
 898.83 1296.19 898.83 1296.19 825.17 1296.19 c 0,0,0
 699.29 1296.19 699.29 1296.19 628.695 1234.895 c 0,0,0
 558.1 1173.6 558.1 1173.6 532.78 1042 c 2,0,0
 475.79 747.4 l 1,0,0
 924.05 747.4 l 1,0,0
 901.69 631.93 l 1,0,0
 453.43 631.93 l 1,0,0
 426.43 478 l 2,0,0
 406.76 362.38 406.76 362.38 342.775 270.11 c 0,0,0
 278.79 177.84 278.79 177.84 191.77 134.19 c 1,0,0
 1001.7 134.19 l 1,0,0
 975.67 0 l 1,0,0
EndSplineSet
EndChar

StartChar: currency
Encoding: 164 164 102
Width: 1139
GlyphClass: 2
Flags: HW
LayerCount: 2
Fore
SplineSet
170.28 684 m 0,0,0
 170.28 827.61 170.28 827.61 254.22 946.23 c 1,0,0
 165.11 1035.34 l 1,0,0
 251.62 1120.85 l 1,0,0
 340.06 1030.41 l 1,0,0
 457.02 1120 457.02 1120 605.28 1120 c 0,0,0
 746.23 1120 746.23 1120 866.84 1033.07 c 1,0,0
 951.3 1117.53 l 1,0,0
 1037.48 1030.02 l 1,0,0
 954.68 946.89 l 1,0,0
 1041.28 822.62 1041.28 822.62 1041.28 684 c 0,0,0
 1041.28 538.4 1041.28 538.4 951.36 420.45 c 1,0,0
 1040.14 331.34 l 1,0,0
 956.62 244.49 l 1,0,0
 866.18 334.27 l 1,0,0
 747.89 250 747.89 250 605.28 250 c 0,0,0
 456.68 250 456.68 250 342.72 337.59 c 1,0,0
 247.62 243.15 l 1,0,0
 163.77 330.66 l 1,0,0
 254.88 421.11 l 1,0,0
 170.28 540.39 170.28 540.39 170.28 684 c 0,0,0
300.52 686 m 0,0,0
 300.52 603.73 300.52 603.73 341.82 534.95 c 0,0,0
 383.12 466.17 383.12 466.17 451.9 424.37 c 0,0,0
 520.68 382.57 520.68 382.57 605.28 382.57 c 0,0,0
 687.55 382.57 687.55 382.57 756.495 423.04 c 0,0,0
 825.44 463.51 825.44 463.51 867.24 532.125 c 0,0,0
 909.04 600.74 909.04 600.74 909.04 686 c 0,0,0
 909.04 770.6 909.04 770.6 867.74 839.545 c 0,0,0
 826.44 908.49 826.44 908.49 757.495 949.625 c 0,0,0
 688.55 990.76 688.55 990.76 605.28 990.76 c 0,0,0
 520.35 990.76 520.35 990.76 451.57 948.795 c 0,0,0
 382.79 906.83 382.79 906.83 341.655 837.385 c 0,0,0
 300.52 767.94 300.52 767.94 300.52 686 c 0,0,0
EndSplineSet
EndChar

StartChar: yen
Encoding: 165 165 103
Width: 1139
GlyphClass: 2
Flags: HW
LayerCount: 2
Fore
SplineSet
589.81 325.11 m 1,0,0
 526.52 0 l 1,0,0
 379.54 0 l 1,0,0
 442.83 325.11 l 1,0,0
 46.98 325.11 l 1,0,0
 70.99 445.51 l 1,0,0
 466.51 445.51 l 1,0,0
 498.51 596.87 l 1,0,0
 100.33 596.87 l 1,0,0
 123.01 714.94 l 1,0,0
 457.53 714.94 l 1,0,0
 152.4 1409 l 1,0,0
 315.37 1409 l 1,0,0
 591.73 745.17 l 1,0,0
 1128.03 1409 l 1,0,0
 1303.66 1409 l 1,0,0
 727.84 714.94 l 1,0,0
 1063.69 714.94 l 1,0,0
 1041.01 596.87 l 1,0,0
 643.16 596.87 l 1,0,0
 613.82 445.51 l 1,0,0
 1011.67 445.51 l 1,0,0
 987.66 325.11 l 1,0,0
 589.81 325.11 l 1,0,0
EndSplineSet
EndChar

StartChar: brokenbar
Encoding: 166 166 104
Width: 518
GlyphClass: 2
Flags: HW
LayerCount: 2
Fore
SplineSet
354.25 1485.33 m 1,0,0
 354.25 697.43 l 1,0,0
 219.93 697.43 l 1,0,0
 219.93 1485.33 l 1,0,0
 354.25 1485.33 l 1,0,0
354.25 324 m 1,0,0
 354.25 -464.9 l 1,0,0
 219.93 -464.9 l 1,0,0
 219.93 324 l 1,0,0
 354.25 324 l 1,0,0
EndSplineSet
EndChar

StartChar: section
Encoding: 167 167 105
Width: 1139
GlyphClass: 2
Flags: HW
LayerCount: 2
Fore
SplineSet
987.23 674.65 m 0,0,0
 987.23 562.65 987.23 562.65 915.265 492.31 c 0,0,0
 843.3 421.97 843.3 421.97 704.98 394.6 c 1,0,0
 836.98 309.96 836.98 309.96 836.98 172.59 c 0,0,0
 836.98 17.19 836.98 17.19 717.765 -68 c 0,0,0
 598.55 -153.19 598.55 -153.19 369.14 -153.19 c 0,0,0
 214.31 -153.19 214.31 -153.19 114.94 -98.32 c 0,0,0
 15.57 -43.45 15.57 -43.45 -31.36 74.96 c 1,0,0
 83.63 137.23 l 1,0,0
 122.9 47.58 122.9 47.58 196.195 6.26 c 0,0,0
 269.49 -35.06 269.49 -35.06 390.12 -35.06 c 0,0,0
 535.43 -35.06 535.43 -35.06 610.42 16.245 c 0,0,0
 685.41 67.55 685.41 67.55 685.41 166.82 c 0,0,0
 685.41 193.54 685.41 193.54 675.705 218.555 c 0,0,0
 666 243.57 666 243.57 646.93 265.9 c 0,0,0
 594.28 314.83 594.28 314.83 430.63 369.45 c 0,0,0
 104.31 479.02 104.31 479.02 104.31 702.04 c 0,0,0
 104.31 929.66 104.31 929.66 381.96 988.68 c 1,0,0
 251.59 1076.99 251.59 1076.99 251.59 1209.06 c 0,0,0
 251.59 1347.46 251.59 1347.46 366.61 1425.135 c 0,0,0
 481.63 1502.81 481.63 1502.81 687.41 1502.81 c 0,0,0
 850.18 1502.81 850.18 1502.81 943.72 1441.455 c 0,0,0
 1037.26 1380.1 1037.26 1380.1 1064.21 1254.08 c 1,0,0
 927.94 1229.08 l 1,0,0
 905.3 1305.06 905.3 1305.06 845.975 1344.87 c 0,0,0
 786.65 1384.68 786.65 1384.68 685.03 1384.68 c 0,0,0
 401.17 1384.68 401.17 1384.68 401.17 1211.78 c 0,0,0
 401.17 1152.17 401.17 1152.17 464.41 1103.22 c 0,0,0
 489.09 1084.85 489.09 1084.85 540.765 1061.025 c 0,0,0
 592.44 1037.2 592.44 1037.2 666.14 1010.88 c 0,0,0
 849.13 948.6 849.13 948.6 918.18 867.12 c 0,0,0
 987.23 785.64 987.23 785.64 987.23 674.65 c 0,0,0
252.9 708.46 m 0,0,0
 252.9 661.14 252.9 661.14 280.56 619.67 c 0,0,0
 308.22 578.2 308.22 578.2 375.16 539.91 c 0,0,0
 441.43 502.95 441.43 502.95 533.5 472.62 c 1,0,0
 672.43 476.3 672.43 476.3 754.54 531.42 c 0,0,0
 836.65 586.54 836.65 586.54 836.65 683.12 c 0,0,0
 836.65 739.4 836.65 739.4 803.2 780.365 c 0,0,0
 769.75 821.33 769.75 821.33 706.84 853.3 c 0,0,0
 654.5 878 654.5 878 520.46 920.98 c 1,0,0
 398.84 914.98 398.84 914.98 325.87 856.03 c 0,0,0
 252.9 797.08 252.9 797.08 252.9 708.46 c 0,0,0
EndSplineSet
EndChar

StartChar: dieresis
Encoding: 168 168 106
Width: 682
GlyphClass: 2
Flags: HW
LayerCount: 2
Fore
SplineSet
696.33 1398.05 m 1,0,0
 663.97 1225.6 l 1,0,0
 505.49 1225.6 l 1,0,0
 537.85 1398.05 l 1,0,0
 696.33 1398.05 l 1,0,0
332.48 1398.05 m 1,0,0
 300.12 1225.6 l 1,0,0
 137.66 1225.6 l 1,0,0
 170.35 1398.05 l 1,0,0
 332.48 1398.05 l 1,0,0
EndSplineSet
EndChar

StartChar: copyright
Encoding: 169 169 107
Width: 1509
GlyphClass: 2
Flags: HW
LayerCount: 2
Fore
SplineSet
1509.33 707 m 0,0,0
 1509.33 514 1509.33 514 1413.33 346 c 0,0,0
 1316.33 177 1316.33 177 1147.83 80.5 c 0,0,0
 979.33 -16 979.33 -16 786.33 -16 c 0,0,0
 590.33 -16 590.33 -16 420.33 85 c 0,0,0
 251.33 186 251.33 186 157.33 352 c 0,0,0
 63.33 518 63.33 518 63.33 707 c 0,0,0
 63.33 901 63.33 901 160.33 1068 c 0,0,0
 257.33 1236 257.33 1236 425.33 1333 c 0,0,0
 593.33 1430 593.33 1430 786.33 1430 c 0,0,0
 980.33 1430 980.33 1430 1149.33 1333 c 0,0,0
 1317.33 1236 1317.33 1236 1413.33 1068.5 c 0,0,0
 1509.33 901 1509.33 901 1509.33 707 c 0,0,0
1423.93 707 m 0,0,0
 1423.93 877.65 1423.93 877.65 1339.27 1024.3 c 0,0,0
 1253.28 1172.28 1253.28 1172.28 1105.295 1256.94 c 0,0,0
 957.31 1341.6 957.31 1341.6 786.33 1341.6 c 0,0,0
 614.7 1341.6 614.7 1341.6 466.72 1255.62 c 0,0,0
 318.74 1168.31 318.74 1168.31 235.235 1020.825 c 0,0,0
 151.73 873.34 151.73 873.34 151.73 707 c 0,0,0
 151.73 534.69 151.73 534.69 237.72 388.7 c 0,0,0
 322.71 241.38 322.71 241.38 469.195 156.72 c 0,0,0
 615.68 72.06 615.68 72.06 786.33 72.06 c 0,0,0
 959.64 72.06 959.64 72.06 1106.96 158.05 c 0,0,0
 1254.28 242.71 1254.28 242.71 1339.105 389.365 c 0,0,0
 1423.93 536.02 1423.93 536.02 1423.93 707 c 0,0,0
796.67 277.02 m 0,0,0
 610.32 277.02 610.32 277.02 506.815 390.68 c 0,0,0
 403.31 504.34 403.31 504.34 403.31 709 c 0,0,0
 403.31 912 403.31 912 502.65 1023.985 c 0,0,0
 601.99 1135.97 601.99 1135.97 790.33 1135.97 c 0,0,0
 1029.38 1135.97 1029.38 1135.97 1126.04 933.57 c 1,0,0
 1025.9 903.21 l 1,0,0
 991.92 974.85 991.92 974.85 930.785 1008.85 c 0,0,0
 869.65 1042.85 869.65 1042.85 791.34 1042.85 c 0,0,0
 658.4 1042.85 658.4 1042.85 586.94 958.885 c 0,0,0
 515.48 874.92 515.48 874.92 515.48 709 c 0,0,0
 515.48 547.4 515.48 547.4 590.44 458.105 c 0,0,0
 665.4 368.81 665.4 368.81 796.67 368.81 c 0,0,0
 958.61 368.81 958.61 368.81 1041.88 529.1 c 1,0,0
 1142.03 498.06 l 1,0,0
 1078.71 378.38 1078.71 378.38 995.035 327.7 c 0,0,0
 911.36 277.02 911.36 277.02 796.67 277.02 c 0,0,0
EndSplineSet
EndChar

StartChar: ordfeminine
Encoding: 170 170 108
Width: 758
GlyphClass: 2
Flags: HW
LayerCount: 2
Fore
SplineSet
737.52 643.8 m 0,0,0
 671.52 643.8 671.52 643.8 636.02 674.455 c 0,0,0
 600.52 705.11 600.52 705.11 600.52 755.1 c 1,0,0
 604.85 794.77 l 1,0,0
 600.52 794.77 l 1,0,0
 531.22 710.43 531.22 710.43 462.26 674.445 c 0,0,0
 393.3 638.46 393.3 638.46 313.31 638.46 c 0,0,0
 208.35 638.46 208.35 638.46 146.2 695.12 c 0,0,0
 84.05 751.78 84.05 751.78 84.05 849.42 c 0,0,0
 84.05 977.06 84.05 977.06 177.69 1041.055 c 0,0,0
 271.33 1105.05 271.33 1105.05 451.68 1106.72 c 2,0,0
 649.16 1111.38 l 1,0,0
 668.48 1207.98 668.48 1207.98 668.48 1232.96 c 0,0,0
 668.48 1341.56 668.48 1341.56 526.63 1341.56 c 0,0,0
 445.35 1341.56 445.35 1341.56 394.07 1304.595 c 0,0,0
 342.79 1267.63 342.79 1267.63 325.47 1192.04 c 1,0,0
 206.34 1208.38 l 1,0,0
 238.31 1325.64 238.31 1325.64 319.625 1381.13 c 0,0,0
 400.94 1436.62 400.94 1436.62 528.3 1436.62 c 0,0,0
 652.66 1436.62 652.66 1436.62 724.47 1380.81 c 0,0,0
 796.28 1325 796.28 1325 796.28 1234.98 c 0,0,0
 796.28 1215.32 796.28 1215.32 794.11 1194.155 c 0,0,0
 791.94 1172.99 791.94 1172.99 786.94 1149.33 c 2,0,0
 733.28 867.07 l 2,0,0
 729.62 849.75 729.62 849.75 727.955 836.255 c 0,0,0
 726.29 822.76 726.29 822.76 726.95 812.09 c 0,0,0
 726.95 753.13 726.95 753.13 773.63 753.13 c 0,0,0
 791.96 753.13 791.96 753.13 818.62 761.79 c 1,0,0
 801.97 657.13 l 1,0,0
 765.31 643.8 765.31 643.8 737.52 643.8 c 0,0,0
224.85 848.83 m 0,0,0
 224.85 803.15 224.85 803.15 255.005 773.665 c 0,0,0
 285.16 744.18 285.16 744.18 340.45 744.18 c 0,0,0
 408.7 744.18 408.7 744.18 468.795 776.645 c 0,0,0
 528.89 809.11 528.89 809.11 570.845 861.565 c 0,0,0
 612.8 914.02 612.8 914.02 623.47 972.99 c 2,0,0
 631.49 1022.35 l 1,0,0
 478.96 1017.69 l 2,0,0
 340.78 1014.36 340.78 1014.36 282.815 972.56 c 0,0,0
 224.85 930.76 224.85 930.76 224.85 848.83 c 0,0,0
EndSplineSet
EndChar

StartChar: guillemotleft
Encoding: 171 171 109
Width: 1139
GlyphClass: 2
Flags: HW
LayerCount: 2
Fore
SplineSet
990.92 159.38 m 1,0,0
 985.92 141.66 l 1,0,0
 849.68 141.66 l 1,0,0
 557.93 507.98 l 1,0,0
 569.27 568.34 l 1,0,0
 1007.98 940.66 l 1,0,0
 1139.25 940.66 l 1,0,0
 1133.25 904.98 l 1,0,0
 696.52 531 l 1,0,0
 990.92 159.38 l 1,0,0
506.32 158.05 m 1,0,0
 501.32 141.66 l 1,0,0
 366.41 141.66 l 1,0,0
 77.32 507.98 l 1,0,0
 88.66 568.34 l 1,0,0
 524.71 940.66 l 1,0,0
 654.65 940.66 l 1,0,0
 648.65 903.65 l 1,0,0
 215.91 529.67 l 1,0,0
 506.32 158.05 l 1,0,0
EndSplineSet
EndChar

StartChar: logicalnot
Encoding: 172 172 110
Width: 1196
GlyphClass: 2
Flags: HW
LayerCount: 2
Fore
SplineSet
1092.69 741.13 m 1,0,0
 1092.69 192.87 l 1,0,0
 973.76 192.87 l 1,0,0
 973.76 620.87 l 1,0,0
 108.25 620.87 l 1,0,0
 108.25 741.13 l 1,0,0
 1092.69 741.13 l 1,0,0
EndSplineSet
EndChar

StartChar: registered
Encoding: 174 174 111
Width: 1509
GlyphClass: 2
Flags: HW
LayerCount: 2
Fore
SplineSet
1509.33 707 m 0,0,0
 1509.33 514 1509.33 514 1413.33 346 c 0,0,0
 1316.33 177 1316.33 177 1147.83 80.5 c 0,0,0
 979.33 -16 979.33 -16 786.33 -16 c 0,0,0
 590.33 -16 590.33 -16 420.33 85 c 0,0,0
 251.33 186 251.33 186 157.33 352 c 0,0,0
 63.33 518 63.33 518 63.33 707 c 0,0,0
 63.33 901 63.33 901 160.33 1068 c 0,0,0
 257.33 1236 257.33 1236 425.33 1333 c 0,0,0
 593.33 1430 593.33 1430 786.33 1430 c 0,0,0
 980.33 1430 980.33 1430 1149.33 1333 c 0,0,0
 1317.33 1236 1317.33 1236 1413.33 1068.5 c 0,0,0
 1509.33 901 1509.33 901 1509.33 707 c 0,0,0
1423.93 707 m 0,0,0
 1423.93 877.65 1423.93 877.65 1339.27 1024.3 c 0,0,0
 1253.28 1172.28 1253.28 1172.28 1105.295 1256.94 c 0,0,0
 957.31 1341.6 957.31 1341.6 786.33 1341.6 c 0,0,0
 614.7 1341.6 614.7 1341.6 466.72 1255.62 c 0,0,0
 318.74 1168.31 318.74 1168.31 235.235 1020.825 c 0,0,0
 151.73 873.34 151.73 873.34 151.73 707 c 0,0,0
 151.73 534.69 151.73 534.69 237.72 388.7 c 0,0,0
 322.71 241.38 322.71 241.38 469.195 156.72 c 0,0,0
 615.68 72.06 615.68 72.06 786.33 72.06 c 0,0,0
 959.64 72.06 959.64 72.06 1106.96 158.05 c 0,0,0
 1254.28 242.71 1254.28 242.71 1339.105 389.365 c 0,0,0
 1423.93 536.02 1423.93 536.02 1423.93 707 c 0,0,0
616.77 629.95 m 1,0,0
 616.77 286.36 l 1,0,0
 506.6 286.36 l 1,0,0
 506.6 1122.64 l 1,0,0
 806.01 1122.64 l 2,0,0
 944.38 1122.64 944.38 1122.64 1019.715 1060.135 c 0,0,0
 1095.05 997.63 1095.05 997.63 1095.05 887.29 c 0,0,0
 1095.05 782.65 1095.05 782.65 1041.73 720.325 c 0,0,0
 988.41 658 988.41 658 901.1 640.98 c 1,0,0
 1124.74 286.36 l 1,0,0
 998.22 286.36 l 1,0,0
 792.29 629.95 l 1,0,0
 616.77 629.95 l 1,0,0
985.54 885.29 m 0,0,0
 985.54 958.25 985.54 958.25 934.74 996.23 c 0,0,0
 883.94 1034.21 883.94 1034.21 798.98 1034.21 c 2,0,0
 616.77 1034.21 l 1,0,0
 616.77 715.06 l 1,0,0
 811.31 715.06 l 2,0,0
 895.93 715.06 895.93 715.06 940.735 759.87 c 0,0,0
 985.54 804.68 985.54 804.68 985.54 885.29 c 0,0,0
EndSplineSet
EndChar

StartChar: macron
Encoding: 175 175 112
Width: 1131
GlyphClass: 2
Flags: HW
LayerCount: 2
Fore
SplineSet
1148 1644.42 m 1,0,0
 1148 1519.83 l 1,0,0
 -17 1519.83 l 1,0,0
 -17 1644.42 l 1,0,0
 1148 1644.42 l 1,0,0
EndSplineSet
EndChar

StartChar: degree
Encoding: 176 176 113
Width: 819
GlyphClass: 2
Flags: HW
LayerCount: 2
Fore
SplineSet
750.2 1156.55 m 0,0,0
 750.2 1080.19 750.2 1080.19 712.52 1017.335 c 0,0,0
 674.84 954.48 674.84 954.48 612.315 917.965 c 0,0,0
 549.79 881.45 549.79 881.45 474.42 881.45 c 0,0,0
 399.72 881.45 399.72 881.45 336.53 919.46 c 0,0,0
 273.34 957.47 273.34 957.47 235.825 1019.66 c 0,0,0
 198.31 1081.85 198.31 1081.85 198.31 1156.22 c 0,0,0
 198.31 1230.92 198.31 1230.92 235.325 1293.94 c 0,0,0
 272.34 1356.96 272.34 1356.96 334.7 1394.305 c 0,0,0
 397.06 1431.65 397.06 1431.65 474.42 1431.65 c 0,0,0
 551.12 1431.65 551.12 1431.65 613.645 1395.135 c 0,0,0
 676.17 1358.62 676.17 1358.62 713.185 1296.43 c 0,0,0
 750.2 1234.24 750.2 1234.24 750.2 1156.55 c 0,0,0
657.37 1156.55 m 0,0,0
 657.37 1234.53 657.37 1234.53 604.22 1287.85 c 0,0,0
 551.07 1341.17 551.07 1341.17 474.42 1341.17 c 0,0,0
 398.1 1341.17 398.1 1341.17 345.28 1286.685 c 0,0,0
 292.46 1232.2 292.46 1232.2 292.46 1156.55 c 0,0,0
 292.46 1080.9 292.46 1080.9 346.115 1026.745 c 0,0,0
 399.77 972.59 399.77 972.59 474.42 972.59 c 0,0,0
 550.73 972.59 550.73 972.59 604.05 1026.245 c 0,0,0
 657.37 1079.9 657.37 1079.9 657.37 1156.55 c 0,0,0
EndSplineSet
EndChar

StartChar: plusminus
Encoding: 177 177 114
Width: 1124
GlyphClass: 2
Flags: HW
LayerCount: 2
Fore
SplineSet
610.92 671.09 m 1,0,0
 610.92 258.27 l 1,0,0
 489.33 258.27 l 1,0,0
 489.33 671.09 l 1,0,0
 57.74 671.09 l 1,0,0
 57.74 790.35 l 1,0,0
 489.33 790.35 l 1,0,0
 489.33 1202.17 l 1,0,0
 610.92 1202.17 l 1,0,0
 610.92 790.35 l 1,0,0
 1042.18 790.35 l 1,0,0
 1042.18 671.09 l 1,0,0
 610.92 671.09 l 1,0,0
1042.18 119.26 m 1,0,0
 1042.18 0 l 1,0,0
 57.74 0 l 1,0,0
 57.74 119.26 l 1,0,0
 1042.18 119.26 l 1,0,0
EndSplineSet
EndChar

StartChar: uni00B2
Encoding: 178 178 115
Width: 682
GlyphClass: 2
Flags: HW
LayerCount: 2
Fore
SplineSet
16.47 519.11 m 1,0,0
 32.49 616.5 l 1,0,0
 61.82 664.16 61.82 664.16 101.49 705.82 c 0,0,0
 127.82 732.48 127.82 732.48 153.665 756.145 c 0,0,0
 179.51 779.81 179.51 779.81 223.495 809.795 c 0,0,0
 267.48 839.78 267.48 839.78 343.74 885.4 c 0,0,0
 504.14 979.57 504.14 979.57 542.47 1014.22 c 0,0,0
 583.14 1048.88 583.14 1048.88 605.13 1088.69 c 0,0,0
 627.12 1128.5 627.12 1128.5 627.12 1179.13 c 0,0,0
 627.12 1237.39 627.12 1237.39 589.16 1278.835 c 0,0,0
 551.2 1320.28 551.2 1320.28 476.3 1320.28 c 0,0,0
 397.72 1320.28 397.72 1320.28 340.625 1276.33 c 0,0,0
 283.53 1232.38 283.53 1232.38 269.2 1164.76 c 1,0,0
 156.41 1173.49 l 1,0,0
 184.75 1292.44 184.75 1292.44 269.045 1355.895 c 0,0,0
 353.34 1419.35 353.34 1419.35 480.33 1419.35 c 0,0,0
 600.65 1419.35 600.65 1419.35 673.965 1356.215 c 0,0,0
 747.28 1293.08 747.28 1293.08 747.28 1195.11 c 0,0,0
 747.28 1151.4 747.28 1151.4 732.92 1105.74 c 0,0,0
 722.55 1071.38 722.55 1071.38 702.005 1039.54 c 0,0,0
 681.46 1007.7 681.46 1007.7 653.41 976.71 c 0,0,0
 625.42 950.41 625.42 950.41 566.675 910.145 c 0,0,0
 507.93 869.88 507.93 869.88 417.1 816.65 c 0,0,0
 303.27 750.42 303.27 750.42 248.975 707.3 c 0,0,0
 194.68 664.18 194.68 664.18 167.36 622.21 c 1,0,0
 648.03 622.21 l 1,0,0
 629.68 519.11 l 1,0,0
 16.47 519.11 l 1,0,0
EndSplineSet
EndChar

StartChar: uni00B3
Encoding: 179 179 116
Width: 682
GlyphClass: 2
Flags: HW
LayerCount: 2
Fore
SplineSet
329.03 1023.59 m 1,0,0
 385.04 1023.59 l 2,0,0
 493.59 1023.59 493.59 1023.59 550.21 1070.535 c 0,0,0
 606.83 1117.48 606.83 1117.48 606.83 1198.39 c 0,0,0
 606.83 1248.7 606.83 1248.7 569.87 1283.665 c 0,0,0
 532.91 1318.63 532.91 1318.63 470.63 1318.63 c 0,0,0
 395.04 1318.63 395.04 1318.63 339.94 1279.835 c 0,0,0
 284.84 1241.04 284.84 1241.04 263.86 1170.1 c 1,0,0
 151.4 1195.43 l 1,0,0
 188.04 1306.73 188.04 1306.73 270.675 1363.04 c 0,0,0
 353.31 1419.35 353.31 1419.35 477.33 1419.35 c 0,0,0
 586.02 1419.35 586.02 1419.35 657.34 1358.89 c 0,0,0
 728.66 1298.43 728.66 1298.43 728.66 1208.43 c 0,0,0
 728.66 1113.49 728.66 1113.49 672.84 1055.84 c 0,0,0
 617.02 998.19 617.02 998.19 499.11 971.24 c 1,0,0
 499.44 969.24 l 1,0,0
 575.41 955.91 575.41 955.91 622.39 905.44 c 0,0,0
 669.37 854.97 669.37 854.97 669.37 785.32 c 0,0,0
 669.37 657.72 669.37 657.72 579.05 581.755 c 0,0,0
 488.73 505.79 488.73 505.79 343.73 505.79 c 0,0,0
 77.78 505.79 77.78 505.79 38.81 752 c 1,0,0
 150.65 765.03 l 1,0,0
 159.98 685.44 159.98 685.44 211.585 644.48 c 0,0,0
 263.19 603.52 263.19 603.52 346.43 603.52 c 0,0,0
 445.63 603.52 445.63 603.52 498.08 653.96 c 0,0,0
 550.53 704.4 550.53 704.4 550.53 788.65 c 0,0,0
 550.53 846.28 550.53 846.28 501.085 883.24 c 0,0,0
 451.64 920.2 451.64 920.2 367.71 920.2 c 2,0,0
 309.02 920.2 l 1,0,0
 329.03 1023.59 l 1,0,0
EndSplineSet
EndChar

StartChar: acute
Encoding: 180 180 117
Width: 682
GlyphClass: 2
Flags: HW
LayerCount: 2
Fore
SplineSet
598.78 1485.6 m 1,0,0
 225.44 1206.94 l 1,0,0
 148.6 1206.94 l 1,0,0
 150.61 1223.31 l 1,0,0
 405.59 1509.98 l 1,0,0
 602.79 1509.98 l 1,0,0
 598.78 1485.6 l 1,0,0
EndSplineSet
EndChar

StartChar: mu
Encoding: 181 181 118
Width: 1180
GlyphClass: 2
Flags: HW
LayerCount: 2
Fore
SplineSet
235.51 -43.67 m 1,0,0
 161.18 -425 l 1,0,0
 14.18 -425 l 1,0,0
 307.84 1082 l 1,0,0
 455.84 1082 l 1,0,0
 316.56 369.27 l 2,0,0
 311.56 336.28 311.56 336.28 308.725 312.93 c 0,0,0
 305.89 289.58 305.89 289.58 306.22 274.21 c 0,0,0
 306.22 94.58 306.22 94.58 480.43 94.58 c 0,0,0
 602.66 94.58 602.66 94.58 692.585 194.53 c 0,0,0
 782.51 294.48 782.51 294.48 811.17 461.44 c 2,0,0
 931.15 1082 l 1,0,0
 1077.82 1082 l 1,0,0
 917.52 258.5 l 2,0,0
 908.52 220.15 908.52 220.15 908.52 170.89 c 0,0,0
 908.52 97.9 908.52 97.9 967.83 97.9 c 0,0,0
 972.88 97.9 972.88 97.9 1027.13 106.23 c 1,0,0
 1003.15 -1.65 l 1,0,0
 939.05 -20 939.05 -20 901.6 -20 c 0,0,0
 841.53 -20 841.53 -20 812.34 21.145 c 0,0,0
 783.15 62.29 783.15 62.29 776.5 135.3 c 2,0,0
 774.51 170.65 l 1,0,0
 773.17 170.65 l 1,0,0
 701.91 74.34 701.91 74.34 616.325 27.17 c 0,0,0
 530.74 -20 530.74 -20 437.77 -20 c 0,0,0
 374.78 -20 374.78 -20 327.635 -0.155 c 0,0,0
 280.49 19.69 280.49 19.69 254.85 55.37 c 1,0,0
 256.83 55.37 l 1,0,0
 235.51 -43.67 l 1,0,0
EndSplineSet
EndChar

StartChar: paragraph
Encoding: 182 182 119
Width: 1087
GlyphClass: 2
Flags: HW
LayerCount: 2
Fore
SplineSet
617.35 1320.53 m 1,0,0
 617.35 -264 l 1,0,0
 518.21 -264 l 1,0,0
 518.21 694 l 1,0,0
 350.54 694 350.54 694 253.54 786.5 c 0,0,0
 156.54 879 156.54 879 156.54 1049 c 0,0,0
 156.54 1218 156.54 1218 255.04 1313.5 c 0,0,0
 353.54 1409 353.54 1409 526.21 1409 c 2,0,0
 1067.43 1409 l 1,0,0
 1067.43 1320.53 l 1,0,0
 939.09 1320.53 l 1,0,0
 939.09 -264 l 1,0,0
 841.61 -264 l 1,0,0
 841.61 1320.53 l 1,0,0
 617.35 1320.53 l 1,0,0
EndSplineSet
EndChar

StartChar: periodcentered
Encoding: 183 183 120
Width: 682
GlyphClass: 2
Flags: HW
LayerCount: 2
Fore
SplineSet
433.59 609.9 m 1,0,0
 395.87 417.95 l 1,0,0
 231.56 417.95 l 1,0,0
 269.28 609.9 l 1,0,0
 433.59 609.9 l 1,0,0
EndSplineSet
EndChar

StartChar: cedilla
Encoding: 184 184 121
Width: 682
GlyphClass: 2
Flags: HW
LayerCount: 2
Fore
SplineSet
296.88 -100.29 m 1,0,0
 381.51 -106.61 381.51 -106.61 421.02 -143.765 c 0,0,0
 460.53 -180.92 460.53 -180.92 460.53 -237.61 c 0,0,0
 460.53 -334.61 460.53 -334.61 387.835 -379.805 c 0,0,0
 315.14 -425 315.14 -425 171.39 -425 c 0,0,0
 146.39 -425 146.39 -425 119.89 -423.5 c 0,0,0
 93.39 -422 93.39 -422 65.39 -417.67 c 1,0,0
 83.75 -335.25 l 1,0,0
 134.72 -340.92 134.72 -340.92 173.73 -340.92 c 0,0,0
 268.03 -340.92 268.03 -340.92 305.695 -317.435 c 0,0,0
 343.36 -293.95 343.36 -293.95 343.36 -247.96 c 0,0,0
 343.36 -172.99 343.36 -172.99 221.39 -172.99 c 0,0,0
 196.42 -172.66 196.42 -172.66 181.425 -173.325 c 0,0,0
 166.43 -173.99 166.43 -173.99 161.74 -174.99 c 1,0,0
 263.73 0 l 1,0,0
 359.51 0 l 1,0,0
 296.88 -100.29 l 1,0,0
EndSplineSet
EndChar

StartChar: uni00B9
Encoding: 185 185 122
Width: 682
GlyphClass: 2
Flags: HW
LayerCount: 2
Fore
SplineSet
631.73 622.48 m 1,0,0
 611.39 520.1 l 1,0,0
 48.79 520.1 l 1,0,0
 67.8 622.48 l 1,0,0
 287.71 622.48 l 1,0,0
 414.62 1278.01 l 1,0,0
 174.07 1130.11 l 1,0,0
 200.73 1264.08 l 1,0,0
 449.28 1407.68 l 1,0,0
 555.12 1407.68 l 1,0,0
 401.88 622.48 l 1,0,0
 631.73 622.48 l 1,0,0
EndSplineSet
EndChar

StartChar: ordmasculine
Encoding: 186 186 123
Width: 748
GlyphClass: 2
Flags: HW
LayerCount: 2
Fore
SplineSet
401.02 638.46 m 0,0,0
 255.03 638.46 255.03 638.46 177.85 716.96 c 0,0,0
 100.67 795.46 100.67 795.46 100.67 940.1 c 0,0,0
 100.67 1001.44 100.67 1001.44 113.34 1069.09 c 0,0,0
 147.67 1256.98 147.67 1256.98 247.685 1346.8 c 0,0,0
 347.7 1436.62 347.7 1436.62 521.65 1436.62 c 0,0,0
 664.01 1436.62 664.01 1436.62 742.015 1356.47 c 0,0,0
 820.02 1276.32 820.02 1276.32 820.02 1130.03 c 0,0,0
 820.02 1067.04 820.02 1067.04 806.03 995.43 c 0,0,0
 770.38 811.83 770.38 811.83 671.685 725.145 c 0,0,0
 572.99 638.46 572.99 638.46 401.02 638.46 c 0,0,0
516.96 1339.85 m 0,0,0
 416.69 1339.85 416.69 1339.85 358.39 1292.85 c 0,0,0
 319.09 1258.87 319.09 1258.87 290.12 1193.605 c 0,0,0
 261.15 1128.34 261.15 1128.34 245.005 1055.075 c 0,0,0
 228.86 981.81 228.86 981.81 228.86 921.83 c 0,0,0
 228.86 735.56 228.86 735.56 401.07 735.56 c 0,0,0
 449.74 735.56 449.74 735.56 491.035 748.06 c 0,0,0
 532.33 760.56 532.33 760.56 562.64 785.89 c 0,0,0
 604.26 820.87 604.26 820.87 633.395 886.32 c 0,0,0
 662.53 951.77 662.53 951.77 679.01 1026.705 c 0,0,0
 695.49 1101.64 695.49 1101.64 695.49 1162.58 c 0,0,0
 695.49 1263.51 695.49 1263.51 648.03 1301.68 c 0,0,0
 600.57 1339.85 600.57 1339.85 516.96 1339.85 c 0,0,0
EndSplineSet
EndChar

StartChar: guillemotright
Encoding: 187 187 124
Width: 1139
GlyphClass: 2
Flags: HW
LayerCount: 2
Fore
SplineSet
1046.03 506 m 1,0,0
 608.65 141.66 l 1,0,0
 477.38 141.66 l 1,0,0
 484.71 180 l 1,0,0
 921.44 547.33 l 1,0,0
 632.36 925.6 l 1,0,0
 636.03 940.66 l 1,0,0
 766.95 940.66 l 1,0,0
 1057.37 566.36 l 1,0,0
 1046.03 506 l 1,0,0
561.43 506 m 1,0,0
 128.04 141.66 l 1,0,0
 -5.89 141.66 l 1,0,0
 1.44 180 l 1,0,0
 438.17 547.33 l 1,0,0
 149.09 925.6 l 1,0,0
 152.76 940.66 l 1,0,0
 286.34 940.66 l 1,0,0
 572.77 566.36 l 1,0,0
 561.43 506 l 1,0,0
EndSplineSet
EndChar

StartChar: questiondown
Encoding: 191 191 128
Width: 1251
GlyphClass: 2
Flags: HW
LayerCount: 2
Fore
SplineSet
890.09 1083.33 m 1,0,0
 855.38 905.1 l 1,0,0
 691.4 905.1 l 1,0,0
 726.11 1083.33 l 1,0,0
 890.09 1083.33 l 1,0,0
499.31 -346.67 m 0,0,0
 371.94 -346.67 371.94 -346.67 276.75 -300.18 c 0,0,0
 181.56 -253.69 181.56 -253.69 129.715 -172.195 c 0,0,0
 77.87 -90.7 77.87 -90.7 77.87 10.99 c 0,0,0
 77.87 125.15 77.87 125.15 115.3 202.89 c 0,0,0
 152.73 280.63 152.73 280.63 211.63 336.91 c 0,0,0
 245.94 366.29 245.94 366.29 284.27 389.17 c 0,0,0
 322.6 412.05 322.6 412.05 355.51 429.12 c 0,0,0
 388.42 446.19 388.42 446.19 407.3 456.31 c 1,0,0
 476.23 493.62 476.23 493.62 522.85 528.085 c 0,0,0
 569.47 562.55 569.47 562.55 602.42 595.5 c 0,0,0
 632.08 628.15 632.08 628.15 645.92 659.315 c 0,0,0
 659.76 690.48 659.76 690.48 667.42 722.5 c 1,0,0
 812.06 722.5 l 1,0,0
 798.06 640.18 798.06 640.18 763.07 581.85 c 0,0,0
 739.08 541.19 739.08 541.19 708.92 508.19 c 0,0,0
 678.76 475.19 678.76 475.19 626.11 438.36 c 0,0,0
 573.46 401.53 573.46 401.53 479.83 349.87 c 0,0,0
 433.44 325.49 433.44 325.49 397.915 302.465 c 0,0,0
 362.39 279.44 362.39 279.44 340.71 262.74 c 0,0,0
 288.44 217.11 288.44 217.11 260.815 162.17 c 0,0,0
 233.19 107.23 233.19 107.23 233.19 32.32 c 0,0,0
 233.19 -77.23 233.19 -77.23 314.44 -143.335 c 0,0,0
 395.69 -209.44 395.69 -209.44 516.64 -209.44 c 0,0,0
 665.55 -209.44 665.55 -209.44 763.48 -132.18 c 0,0,0
 861.41 -54.92 861.41 -54.92 903.37 75.33 c 1,0,0
 1035.04 35.33 l 1,0,0
 970.39 -160.99 970.39 -160.99 836.54 -253.83 c 0,0,0
 702.69 -346.67 702.69 -346.67 499.31 -346.67 c 0,0,0
EndSplineSet
EndChar

StartChar: AE
Encoding: 198 198 135
Width: 2048
GlyphClass: 2
Flags: HW
LayerCount: 2
Fore
SplineSet
382.52 429.16 m 1,0,0
 91.31 0 l 1,0,0
 -75.72 0 l 1,0,0
 881.3 1409 l 1,0,0
 2056.44 1409 l 1,0,0
 2031.39 1276.43 l 1,0,0
 1279.85 1276.43 l 1,0,0
 1185.58 792.42 l 1,0,0
 1877.78 792.42 l 1,0,0
 1852.07 660.53 l 1,0,0
 1159.87 660.53 l 1,0,0
 1057.61 132.57 l 1,0,0
 1850.15 132.57 l 1,0,0
 1823.44 0 l 1,0,0
 871.58 0 l 1,0,0
 956.21 429.16 l 1,0,0
 382.52 429.16 l 1,0,0
466.34 554.07 m 1,0,0
 980.59 554.07 l 1,0,0
 1122.53 1285.1 l 1,0,0
 941.83 1285.1 l 1,0,0
 805.83 1066.79 l 1,0,0
 466.34 554.07 l 1,0,0
EndSplineSet
EndChar

StartChar: Eth
Encoding: 208 208 145
Width: 1479
GlyphClass: 2
Flags: HW
LayerCount: 2
Fore
SplineSet
773.9 1409 m 2,0,0
 977.28 1409 977.28 1409 1126.125 1332.85 c 0,0,0
 1274.97 1256.7 1274.97 1256.7 1355.965 1117.38 c 0,0,0
 1436.96 978.06 1436.96 978.06 1436.96 785.72 c 0,0,0
 1436.96 553.38 1436.96 553.38 1339.29 375.37 c 0,0,0
 1240.29 198.36 1240.29 198.36 1048.965 99.18 c 0,0,0
 857.64 0 857.64 0 611.34 0 c 2,0,0
 71.91 0 l 1,0,0
 200.21 664.49 l 1,0,0
 37.63 664.49 l 1,0,0
 63.67 797.04 l 1,0,0
 225.92 797.04 l 1,0,0
 344.58 1409 l 1,0,0
 773.9 1409 l 2,0,0
252.64 128.25 m 1,0,0
 581.06 128.25 l 2,0,0
 788.94 128.25 788.94 128.25 944.86 209.22 c 0,0,0
 1102.44 289.19 1102.44 289.19 1186.23 440.135 c 0,0,0
 1270.02 591.08 1270.02 591.08 1270.02 792.67 c 0,0,0
 1270.02 1021.57 1270.02 1021.57 1137.255 1151.16 c 0,0,0
 1004.49 1280.75 1004.49 1280.75 767.92 1280.75 c 2,0,0
 477.54 1280.75 l 1,0,0
 382.93 797.04 l 1,0,0
 805.1 797.04 l 1,0,0
 779.72 664.49 l 1,0,0
 356.89 664.49 l 1,0,0
 252.64 128.25 l 1,0,0
EndSplineSet
EndChar

StartChar: multiply
Encoding: 215 215 152
Width: 1196
GlyphClass: 2
Flags: HW
LayerCount: 2
Fore
SplineSet
626.7 597.82 m 1,0,0
 270.7 243.81 l 1,0,0
 187.18 331.32 l 1,0,0
 540.52 684 l 1,0,0
 188.52 1036 l 1,0,0
 274.7 1121.51 l 1,0,0
 624.04 767.52 l 1,0,0
 973.38 1118.19 l 1,0,0
 1060.89 1030.68 l 1,0,0
 711.55 684.66 l 1,0,0
 1063.55 332 l 1,0,0
 980.03 245.15 l 1,0,0
 626.7 597.82 l 1,0,0
EndSplineSet
EndChar

StartChar: Oslash
Encoding: 216 216 153
Width: 1593
GlyphClass: 2
Flags: HW
LayerCount: 2
Fore
SplineSet
1419.04 1197.74 m 1,0,0
 1515.11 1053.73 1515.11 1053.73 1515.11 851 c 0,0,0
 1509.79 578.73 1509.79 578.73 1400.8 383.71 c 0,0,0
 1293.47 190.35 1293.47 190.35 1108.46 85.175 c 0,0,0
 923.45 -20 923.45 -20 689.76 -20 c 0,0,0
 426.53 -20 426.53 -20 273.21 114.89 c 1,0,0
 97.03 -53 l 1,0,0
 -86.03 -53 l 1,0,0
 192.12 212.22 l 1,0,0
 101.33 356.92 101.33 356.92 101.33 573 c 0,0,0
 101.33 814.32 101.33 814.32 207.33 1013.33 c 0,0,0
 312.33 1212.34 312.33 1212.34 501.99 1321.17 c 0,0,0
 691.65 1430 691.65 1430 928 1430 c 0,0,0
 1181.29 1430 1181.29 1430 1334.64 1295.41 c 1,0,0
 1513.52 1466 l 1,0,0
 1701.89 1466 l 1,0,0
 1419.04 1197.74 l 1,0,0
920.65 1302.07 m 0,0,0
 709.44 1302.07 709.44 1302.07 560.86 1208.45 c 0,0,0
 462.25 1146.48 462.25 1146.48 394.62 1040.365 c 0,0,0
 326.99 934.25 326.99 934.25 291.675 807.97 c 0,0,0
 256.36 681.69 256.36 681.69 256.36 557.06 c 0,0,0
 256.36 413.45 256.36 413.45 304.67 316.49 c 1,0,0
 1231.1 1200.15 l 1,0,0
 1114.51 1302.07 1114.51 1302.07 920.65 1302.07 c 0,0,0
1361.4 853.6 m 0,0,0
 1361.4 999.15 1361.4 999.15 1309.79 1097.76 c 1,0,0
 379.73 213.46 l 1,0,0
 491.98 109.59 491.98 109.59 697.11 109.59 c 0,0,0
 905.99 109.59 905.99 109.59 1053.24 200.55 c 0,0,0
 1150.52 261.19 1150.52 261.19 1219.315 363.145 c 0,0,0
 1288.11 465.1 1288.11 465.1 1324.755 592.71 c 0,0,0
 1361.4 720.32 1361.4 720.32 1361.4 853.6 c 0,0,0
EndSplineSet
EndChar

StartChar: Thorn
Encoding: 222 222 159
Width: 1366
GlyphClass: 2
Flags: HW
LayerCount: 2
Fore
SplineSet
290.9 305.58 m 1,0,0
 228.59 0 l 1,0,0
 71.91 0 l 1,0,0
 345.91 1409 l 1,0,0
 502.59 1409 l 1,0,0
 451.94 1148.09 l 1,0,0
 805.67 1148.09 l 2,0,0
 1039.7 1148.09 1039.7 1148.09 1170.215 1049.39 c 0,0,0
 1300.73 950.69 1300.73 950.69 1300.73 769.98 c 0,0,0
 1300.73 625.3 1300.73 625.3 1231.895 520.785 c 0,0,0
 1163.06 416.27 1163.06 416.27 1035.23 360.925 c 0,0,0
 907.4 305.58 907.4 305.58 730.08 305.58 c 2,0,0
 290.9 305.58 l 1,0,0
316.28 431.5 m 1,0,0
 735.62 431.5 l 2,0,0
 938.5 431.5 938.5 431.5 1039.94 516.1 c 0,0,0
 1141.38 600.7 1141.38 600.7 1141.38 763.29 c 0,0,0
 1141.38 887.9 1141.38 887.9 1057.43 954.035 c 0,0,0
 973.48 1020.17 973.48 1020.17 808.26 1020.17 c 2,0,0
 430.55 1020.17 l 1,0,0
 316.28 431.5 l 1,0,0
EndSplineSet
EndChar

StartChar: germandbls
Encoding: 223 223 160
Width: 1251
GlyphClass: 2
Flags: HW
LayerCount: 2
Fore
SplineSet
1113.43 295.79 m 0,0,0
 1113.43 139.43 1113.43 139.43 1006.255 53.73 c 0,0,0
 899.08 -31.97 899.08 -31.97 702.45 -31.97 c 0,0,0
 621.4 -31.97 621.4 -31.97 539.57 -15.475 c 0,0,0
 457.74 1.02 457.74 1.02 413.37 22.37 c 1,0,0
 465.41 151.18 l 1,0,0
 516.81 127.15 516.81 127.15 582.765 112.66 c 0,0,0
 648.72 98.17 648.72 98.17 718.67 98.17 c 0,0,0
 838.57 98.17 838.57 98.17 903.345 150.145 c 0,0,0
 968.12 202.12 968.12 202.12 968.12 299.39 c 0,0,0
 968.12 357.04 968.12 357.04 934.8 412.5 c 0,0,0
 901.48 467.96 901.48 467.96 824.84 538.24 c 0,0,0
 748.87 606.85 748.87 606.85 714.715 661.01 c 0,0,0
 680.56 715.17 680.56 715.17 680.56 768.54 c 0,0,0
 680.56 847.18 680.56 847.18 720.38 905.005 c 0,0,0
 760.2 962.83 760.2 962.83 835.54 1003.54 c 0,0,0
 918.86 1047.91 918.86 1047.91 954.19 1090.925 c 0,0,0
 989.52 1133.94 989.52 1133.94 989.52 1191.94 c 0,0,0
 989.52 1266.22 989.52 1266.22 921.765 1314.84 c 0,0,0
 854.01 1363.46 854.01 1363.46 741.45 1363.46 c 0,0,0
 586.88 1363.46 586.88 1363.46 499.765 1278.845 c 0,0,0
 412.65 1194.23 412.65 1194.23 378.67 1021 c 2,0,0
 180.34 0 l 1,0,0
 33.67 0 l 1,0,0
 233.67 1027 l 2,0,0
 279.68 1264 279.68 1264 407.54 1374 c 0,0,0
 535.4 1484 535.4 1484 750.45 1484 c 0,0,0
 926.13 1484 926.13 1484 1033.29 1401.68 c 0,0,0
 1140.45 1319.36 1140.45 1319.36 1140.45 1196 c 0,0,0
 1140.45 1049.62 1140.45 1049.62 981.49 945.28 c 0,0,0
 881.85 880.94 881.85 880.94 853.19 849.28 c 0,0,0
 822.86 818.61 822.86 818.61 822.86 782.94 c 0,0,0
 822.86 744.91 822.86 744.91 847.59 705.89 c 0,0,0
 864.25 680.92 864.25 680.92 893.89 647.965 c 0,0,0
 923.53 615.01 923.53 615.01 968.81 571.74 c 0,0,0
 1113.43 428.53 1113.43 428.53 1113.43 295.79 c 0,0,0
EndSplineSet
EndChar

StartChar: ae
Encoding: 230 230 167
Width: 1821
GlyphClass: 2
Flags: HW
LayerCount: 2
Fore
SplineSet
976.46 511.91 m 1,0,0
 970.79 478.24 970.79 478.24 966.8 390.99 c 0,0,0
 966.8 249.08 966.8 249.08 1033.25 173.295 c 0,0,0
 1099.7 97.51 1099.7 97.51 1230.6 97.51 c 0,0,0
 1321.89 97.51 1321.89 97.51 1398.165 144.165 c 0,0,0
 1474.44 190.82 1474.44 190.82 1522.07 279.81 c 1,0,0
 1624.76 220.44 l 1,0,0
 1555.08 97.35 1555.08 97.35 1450.73 38.675 c 0,0,0
 1346.38 -20 1346.38 -20 1207.61 -20 c 0,0,0
 1055.62 -20 1055.62 -20 961.775 54.95 c 0,0,0
 867.93 129.9 867.93 129.9 837.55 264.17 c 1,0,0
 735.01 120.66 735.01 120.66 606.18 46.73 c 0,0,0
 543.18 13.36 543.18 13.36 475.665 -3.32 c 0,0,0
 408.15 -20 408.15 -20 346.34 -20 c 0,0,0
 258.93 -20 258.93 -20 191.23 10.08 c 0,0,0
 112.63 47.42 112.63 47.42 70.665 118.56 c 0,0,0
 28.7 189.7 28.7 189.7 28.7 278 c 0,0,0
 28.7 461.02 28.7 461.02 164.365 555.19 c 0,0,0
 300.03 649.36 300.03 649.36 606.94 656.01 c 2,0,0
 860.45 660 l 1,0,0
 878.79 755 878.79 755 878.79 785.68 c 0,0,0
 878.79 980.18 878.79 980.18 644.06 980.18 c 0,0,0
 510.16 980.18 510.16 980.18 440.885 936.365 c 0,0,0
 371.61 892.55 371.61 892.55 338.65 798.28 c 1,0,0
 188.7 826.62 l 1,0,0
 239.99 974.61 239.99 974.61 354.17 1038.305 c 0,0,0
 468.35 1102 468.35 1102 662.36 1102 c 0,0,0
 887.98 1102 887.98 1102 995.61 929.15 c 1,0,0
 1115.66 1102 1115.66 1102 1341.6 1102 c 0,0,0
 1531.98 1102 1531.98 1102 1638.165 999.155 c 0,0,0
 1744.35 896.31 1744.35 896.31 1744.35 713.61 c 0,0,0
 1744.35 665.94 1744.35 665.94 1736.355 601.965 c 0,0,0
 1728.36 537.99 1728.36 537.99 1721.68 511.91 c 1,0,0
 976.46 511.91 l 1,0,0
997.49 633.74 m 1,0,0
 1586.76 633.74 l 1,0,0
 1591.09 711.02 l 1,0,0
 1591.09 840.63 1591.09 840.63 1528.955 912.24 c 0,0,0
 1466.82 983.85 1466.82 983.85 1345.59 983.85 c 0,0,0
 1213.68 983.85 1213.68 983.85 1123.575 892.745 c 0,0,0
 1033.47 801.64 1033.47 801.64 997.49 633.74 c 1,0,0
184.06 273.13 m 0,0,0
 184.06 194.48 184.06 194.48 234.52 146.005 c 0,0,0
 284.98 97.53 284.98 97.53 367.27 97.53 c 0,0,0
 480.16 97.53 480.16 97.53 573.08 141.87 c 0,0,0
 674.26 190.16 674.26 190.16 740.17 276.065 c 0,0,0
 806.08 361.97 806.08 361.97 822.08 456.22 c 2,0,0
 837.43 545.22 l 1,0,0
 616.58 539.9 l 2,0,0
 451.74 533.25 451.74 533.25 367.8 510.55 c 0,0,0
 184.06 454.91 184.06 454.91 184.06 273.13 c 0,0,0
EndSplineSet
EndChar

StartChar: eth
Encoding: 240 240 177
Width: 1102
GlyphClass: 2
Flags: HW
LayerCount: 2
Fore
SplineSet
613.12 1335.59 m 1,0,0
 525.7 1416.02 525.7 1416.02 427.03 1484 c 1,0,0
 564.42 1484 l 1,0,0
 603.08 1465 603.08 1465 643.235 1438.84 c 0,0,0
 683.39 1412.68 683.39 1412.68 725.37 1379.36 c 1,0,0
 977.81 1479.05 l 1,0,0
 963.1 1393.49 l 1,0,0
 786.18 1322.2 l 1,0,0
 910.44 1177.92 910.44 1177.92 962.75 1035.455 c 0,0,0
 1015.06 892.99 1015.06 892.99 1015.06 728 c 0,0,0
 1015.06 515.68 1015.06 515.68 950.07 328.09 c 0,0,0
 888.38 148.41 888.38 148.41 777.45 67.53 c 0,0,0
 666.52 -13.35 666.52 -13.35 479.12 -13.35 c 0,0,0
 286.72 -13.35 286.72 -13.35 178.345 98.825 c 0,0,0
 69.97 211 69.97 211 69.97 400.69 c 0,0,0
 69.97 545.5 69.97 545.5 124.08 684.5 c 0,0,0
 186.11 831.07 186.11 831.07 300.64 905.035 c 0,0,0
 415.17 979 415.17 979 590.48 979 c 0,0,0
 675.42 979 675.42 979 749.735 945.87 c 0,0,0
 824.05 912.74 824.05 912.74 858.39 860.14 c 1,0,0
 838.4 987.33 838.4 987.33 789.445 1095.89 c 0,0,0
 740.49 1204.45 740.49 1204.45 678.86 1271.77 c 1,0,0
 407.18 1158.11 l 1,0,0
 424.22 1258.64 l 1,0,0
 613.12 1335.59 l 1,0,0
584.85 865.47 m 0,0,0
 457.6 865.47 457.6 865.47 379.28 808.48 c 0,0,0
 326.97 769.83 326.97 769.83 290.815 697.385 c 0,0,0
 254.66 624.94 254.66 624.94 236.165 541.82 c 0,0,0
 217.67 458.7 217.67 458.7 217.67 385.69 c 0,0,0
 217.67 246.45 217.67 246.45 283.31 173.315 c 0,0,0
 348.95 100.18 348.95 100.18 473.87 100.18 c 0,0,0
 684.56 100.18 684.56 100.18 778.84 265.91 c 0,0,0
 802.9 315.88 802.9 315.88 820.11 387.18 c 0,0,0
 837.32 458.48 837.32 458.48 846.675 528.485 c 0,0,0
 856.03 598.49 856.03 598.49 856.03 644.57 c 0,0,0
 856.03 695.93 856.03 695.93 823.04 748.24 c 0,0,0
 787.07 801.2 787.07 801.2 723.615 833.335 c 0,0,0
 660.16 865.47 660.16 865.47 584.85 865.47 c 0,0,0
EndSplineSet
EndChar

StartChar: divide
Encoding: 247 247 184
Width: 1124
GlyphClass: 2
Flags: HW
LayerCount: 2
Fore
SplineSet
650.79 1123.51 m 1,0,0
 650.79 957.01 l 1,0,0
 505.89 957.01 l 1,0,0
 505.89 1123.51 l 1,0,0
 650.79 1123.51 l 1,0,0
1070.73 741.13 m 1,0,0
 1070.73 620.87 l 1,0,0
 86.29 620.87 l 1,0,0
 86.29 741.13 l 1,0,0
 1070.73 741.13 l 1,0,0
650.79 406.99 m 1,0,0
 650.79 240.49 l 1,0,0
 505.89 240.49 l 1,0,0
 505.89 406.99 l 1,0,0
 650.79 406.99 l 1,0,0
EndSplineSet
EndChar

StartChar: oslash
Encoding: 248 248 185
Width: 1251
GlyphClass: 2
Flags: HW
LayerCount: 2
Fore
SplineSet
210.24 155.23 m 1,0,0
 145.46 262.25 145.46 262.25 145.46 419 c 0,0,0
 152.11 627.98 152.11 627.98 217.48 782.98 c 0,0,0
 284.18 941.97 284.18 941.97 400.755 1021.485 c 0,0,0
 517.33 1101 517.33 1101 698.68 1101 c 0,0,0
 863 1101 863 1101 963.7 1029.71 c 1,0,0
 1037 1116 l 1,0,0
 1196.74 1116 l 1,0,0
 1046.78 942.71 l 1,0,0
 1114.51 839.04 1114.51 839.04 1114.51 683 c 0,0,0
 1114.51 612.99 1114.51 612.99 1106.66 517.16 c 0,0,0
 1060.57 249.76 1060.57 249.76 925.035 118.205 c 0,0,0
 789.5 -13.35 789.5 -13.35 553.62 -13.35 c 0,0,0
 394.67 -13.35 394.67 -13.35 291 64.91 c 1,0,0
 203.74 -38 l 1,0,0
 44.66 -38 l 1,0,0
 210.24 155.23 l 1,0,0
294.16 411.05 m 0,0,0
 294.16 329.47 294.16 329.47 311.47 272.83 c 1,0,0
 879.52 932.83 l 1,0,0
 810.9 988.8 810.9 988.8 702.95 988.8 c 0,0,0
 560.69 988.8 560.69 988.8 475.4 916.83 c 0,0,0
 418.43 868.85 418.43 868.85 377.95 784.72 c 0,0,0
 337.47 700.59 337.47 700.59 315.815 601.8 c 0,0,0
 294.16 503.01 294.16 503.01 294.16 411.05 c 0,0,0
964.15 689.93 m 0,0,0
 964.15 763.5 964.15 763.5 946.85 825.74 c 1,0,0
 375.17 162.11 l 1,0,0
 441.46 100.18 441.46 100.18 558.02 100.18 c 0,0,0
 703.27 100.18 703.27 100.18 783.9 170.48 c 0,0,0
 864.86 239.78 864.86 239.78 911.67 382.045 c 0,0,0
 958.48 524.31 958.48 524.31 964.15 689.93 c 0,0,0
EndSplineSet
EndChar

StartChar: thorn
Encoding: 254 254 191
Width: 1102
GlyphClass: 2
Flags: HW
LayerCount: 2
Fore
SplineSet
518.36 -20 m 0,0,0
 396.02 -20 396.02 -20 318.685 32 c 0,0,0
 241.35 84 241.35 84 209.35 178 c 1,0,0
 203.36 178 l 1,0,0
 200.69 152.01 200.69 152.01 197.025 126.185 c 0,0,0
 193.36 100.36 193.36 100.36 189.36 73.37 c 0,0,0
 185.36 56.35 185.36 56.35 182.19 37.67 c 0,0,0
 179.02 18.99 179.02 18.99 175.35 0.64 c 2,0,0
 93.02 -425 l 1,0,0
 -52.65 -425 l 1,0,0
 319.01 1484 l 1,0,0
 465.68 1484 l 1,0,0
 382.68 1062.32 l 2,0,0
 380.33 1046.91 380.33 1046.91 371.83 1012.24 c 0,0,0
 363.33 977.57 363.33 977.57 348.68 923.64 c 1,0,0
 352.02 923.64 l 1,0,0
 425.35 1016.99 425.35 1016.99 505.855 1059.495 c 0,0,0
 586.36 1102 586.36 1102 705.69 1102 c 0,0,0
 862.03 1102 862.03 1102 949.035 1007.5 c 0,0,0
 1036.04 913 1036.04 913 1036.04 748 c 0,0,0
 1036.04 543.01 1036.04 543.01 975.37 355 c 0,0,0
 914.7 165.66 914.7 165.66 802.865 72.83 c 0,0,0
 691.03 -20 691.03 -20 518.36 -20 c 0,0,0
676.13 981.48 m 0,0,0
 469.95 981.48 469.95 981.48 366.34 805.62 c 0,0,0
 338.34 758.63 338.34 758.63 317.505 695.31 c 0,0,0
 296.67 631.99 296.67 631.99 282.67 569.96 c 0,0,0
 260.35 469.97 260.35 469.97 260.35 369.08 c 0,0,0
 260.35 238.14 260.35 238.14 327.315 165.67 c 0,0,0
 394.28 93.2 394.28 93.2 513.22 93.2 c 0,0,0
 644.15 93.2 644.15 93.2 720.77 173.16 c 0,0,0
 758.75 213.14 758.75 213.14 788.9 278.945 c 0,0,0
 819.05 344.75 819.05 344.75 840.205 423.715 c 0,0,0
 861.36 502.68 861.36 502.68 872.52 581.315 c 0,0,0
 883.68 659.95 883.68 659.95 883.68 723.26 c 0,0,0
 883.68 851.87 883.68 851.87 833.875 916.675 c 0,0,0
 784.07 981.48 784.07 981.48 676.13 981.48 c 0,0,0
EndSplineSet
EndChar

StartChar: dcroat
Encoding: 273 273 210
Width: 1102
GlyphClass: 2
Flags: HW
LayerCount: 2
Fore
SplineSet
403.97 -21 m 0,0,0
 245.98 -21 245.98 -21 159.305 72.345 c 0,0,0
 72.63 165.69 72.63 165.69 72.63 330.69 c 0,0,0
 72.63 539.29 72.63 539.29 134.3 736.24 c 0,0,0
 195.97 932.19 195.97 932.19 305.815 1023.195 c 0,0,0
 415.66 1114.2 415.66 1114.2 593.61 1114.2 c 0,0,0
 715.29 1114.2 715.29 1114.2 791.965 1061.045 c 0,0,0
 868.64 1007.89 868.64 1007.89 901.63 913.56 c 1,0,0
 906.3 913.56 l 1,0,0
 916.28 960.83 916.28 960.83 924.775 1001.675 c 0,0,0
 933.27 1042.52 933.27 1042.52 937.96 1074.28 c 2,0,0
 964.29 1216.23 l 1,0,0
 660.66 1216.23 l 1,0,0
 683.02 1334.36 l 1,0,0
 986.32 1334.36 l 1,0,0
 1015.65 1484 l 1,0,0
 1163.64 1484 l 1,0,0
 1133.98 1334.36 l 1,0,0
 1265.98 1334.36 l 1,0,0
 1243.62 1216.23 l 1,0,0
 1111.29 1216.23 l 1,0,0
 915 220.36 l 2,0,0
 899.68 145.74 899.68 145.74 889.355 90.4 c 0,0,0
 879.03 35.06 879.03 35.06 874.03 0 c 1,0,0
 738 0 l 1,0,0
 738 47.04 738 47.04 760.98 160 c 1,0,0
 756.98 160 l 1,0,0
 683.32 64.34 683.32 64.34 602.815 21.67 c 0,0,0
 522.31 -21 522.31 -21 403.97 -21 c 0,0,0
432.54 100.18 m 0,0,0
 652.92 100.18 652.92 100.18 759.16 296.18 c 0,0,0
 787.87 354.14 787.87 354.14 808.4 429.63 c 0,0,0
 828.93 505.12 828.93 505.12 839.78 581.635 c 0,0,0
 850.63 658.15 850.63 658.15 850.63 719.84 c 0,0,0
 850.63 848.14 850.63 848.14 781.685 923.58 c 0,0,0
 712.74 999.02 712.74 999.02 593.47 999.02 c 0,0,0
 463.22 999.02 463.22 999.02 389.91 924.38 c 0,0,0
 341.26 874.73 341.26 874.73 303.78 775.295 c 0,0,0
 266.3 675.86 266.3 675.86 245.48 562.935 c 0,0,0
 224.66 450.01 224.66 450.01 224.66 359.39 c 0,0,0
 224.66 230.45 224.66 230.45 273.97 165.315 c 0,0,0
 323.28 100.18 323.28 100.18 432.54 100.18 c 0,0,0
EndSplineSet
EndChar

StartChar: Hbar
Encoding: 294 294 231
Width: 1479
GlyphClass: 2
Flags: HW
LayerCount: 2
Fore
SplineSet
356.23 669.17 m 1,0,0
 227.59 0 l 1,0,0
 70.58 0 l 1,0,0
 268.59 1018.4 l 1,0,0
 104.36 1018.4 l 1,0,0
 133.37 1167.12 l 1,0,0
 297.6 1167.12 l 1,0,0
 343.58 1409 l 1,0,0
 500.26 1409 l 1,0,0
 454.28 1167.12 l 1,0,0
 1267.81 1167.12 l 1,0,0
 1313.79 1409 l 1,0,0
 1467.45 1409 l 1,0,0
 1421.47 1167.12 l 1,0,0
 1584.37 1167.12 l 1,0,0
 1555.36 1018.4 l 1,0,0
 1392.46 1018.4 l 1,0,0
 1194.78 0 l 1,0,0
 1041.12 0 l 1,0,0
 1169.76 669.17 l 1,0,0
 356.23 669.17 l 1,0,0
383.28 801.45 m 1,0,0
 1196.81 801.45 l 1,0,0
 1238.8 1018.4 l 1,0,0
 425.27 1018.4 l 1,0,0
 383.28 801.45 l 1,0,0
EndSplineSet
EndChar

StartChar: hbar
Encoding: 295 295 232
Width: 1102
GlyphClass: 2
Flags: HW
LayerCount: 2
Fore
SplineSet
341.01 857 m 1,0,0
 426.65 975.63 426.65 975.63 507.84 1018.315 c 0,0,0
 589.03 1061 589.03 1061 703.37 1061 c 0,0,0
 850.05 1061 850.05 1061 923.725 988 c 0,0,0
 997.4 915 997.4 915 997.4 777 c 0,0,0
 997.4 742.69 997.4 742.69 993.06 706.145 c 0,0,0
 988.72 669.6 988.72 669.6 976.4 613 c 2,0,0
 857.4 0 l 1,0,0
 708.74 0 l 1,0,0
 829.38 621.5 l 2,0,0
 844.74 697.96 844.74 697.96 844.74 766.55 c 0,0,0
 844.74 946.09 844.74 946.09 656.83 946.09 c 0,0,0
 567.22 946.09 567.22 946.09 492.75 900.61 c 0,0,0
 418.28 855.13 418.28 855.13 365.635 770.515 c 0,0,0
 312.99 685.9 312.99 685.9 288.68 566 c 2,0,0
 178.68 0 l 1,0,0
 33.67 0 l 1,0,0
 270.31 1216.23 l 1,0,0
 141.29 1216.23 l 1,0,0
 163.65 1334.36 l 1,0,0
 292.67 1334.36 l 1,0,0
 322.33 1484 l 1,0,0
 469.33 1484 l 1,0,0
 439.67 1334.36 l 1,0,0
 736.71 1334.36 l 1,0,0
 714.35 1216.23 l 1,0,0
 417.64 1216.23 l 1,0,0
 386.01 1041.44 386.01 1041.44 362.86 951.3 c 0,0,0
 339.71 861.16 339.71 861.16 338.01 857 c 1,0,0
 341.01 857 l 1,0,0
EndSplineSet
EndChar

StartChar: dotlessi
Encoding: 305 305 242
Width: 569
GlyphClass: 2
Flags: HW
LayerCount: 2
Fore
SplineSet
463.49 1082 m 1,0,0
 252.49 0 l 1,0,0
 106.82 0 l 1,0,0
 316.82 1082 l 1,0,0
 463.49 1082 l 1,0,0
EndSplineSet
EndChar

StartChar: jcircumflex
Encoding: 309 309 246
Width: 417
GlyphClass: 2
Flags: HW
LayerCount: 2
Fore
SplineSet
370.15 1368.35 m 1,0,0
 99.54 1206.94 l 1,0,0
 1.03 1206.94 l 1,0,0
 4.7 1224.3 l 1,0,0
 279.48 1478.46 l 1,0,0
 475.23 1478.46 l 1,0,0
 640.62 1224.3 l 1,0,0
 636.95 1206.94 l 1,0,0
 564.09 1206.94 l 1,0,0
 371.49 1368.35 l 1,0,0
 370.15 1368.35 l 1,0,0
-115.18 -425 m 0,0,0
 -153.66 -425 -153.66 -425 -231.97 -412.65 c 1,0,0
 -213.26 -293.81 l 1,0,0
 -183.3 -298.8 -183.3 -298.8 -160.985 -301.13 c 0,0,0
 -138.67 -303.46 -138.67 -303.46 -122.01 -303.13 c 0,0,0
 -65.65 -303.13 -65.65 -303.13 -36.145 -258.655 c 0,0,0
 -6.64 -214.18 -6.64 -214.18 10.03 -122.51 c 2,0,0
 243.67 1082 l 1,0,0
 390.34 1082 l 1,0,0
 153.01 -135.98 l 2,0,0
 121.35 -298.6 121.35 -298.6 57.125 -361.8 c 0,0,0
 -7.1 -425 -7.1 -425 -115.18 -425 c 0,0,0
EndSplineSet
EndChar

StartChar: kgreenlandic
Encoding: 312 312 249
Width: 986
GlyphClass: 2
Flags: HW
LayerCount: 2
Fore
SplineSet
247.05 363.48 m 1,0,0
 179.34 0 l 1,0,0
 33.67 0 l 1,0,0
 243.67 1082 l 1,0,0
 390.34 1082 l 1,0,0
 285.05 544.89 l 1,0,0
 504.56 747.43 l 1,0,0
 883.38 1082 l 1,0,0
 1072.38 1082 l 1,0,0
 523.57 602.81 l 1,0,0
 879.7 0 l 1,0,0
 718.69 0 l 1,0,0
 424.29 503.65 l 1,0,0
 247.05 363.48 l 1,0,0
EndSplineSet
EndChar

StartChar: Lslash
Encoding: 321 321 258
Width: 1102
GlyphClass: 2
Flags: HW
LayerCount: 2
Fore
SplineSet
251.31 132.24 m 1,0,0
 948.79 132.24 l 1,0,0
 922.41 0 l 1,0,0
 67.92 0 l 1,0,0
 176.88 556.48 l 1,0,0
 8.93 464.55 l 1,0,0
 32.98 600.44 l 1,0,0
 203.59 692.04 l 1,0,0
 342.25 1409 l 1,0,0
 498.93 1409 l 1,0,0
 379.29 792.14 l 1,0,0
 675.39 939.81 l 1,0,0
 648.35 804.59 l 1,0,0
 352.25 655.59 l 1,0,0
 251.31 132.24 l 1,0,0
EndSplineSet
EndChar

StartChar: lslash
Encoding: 322 322 259
Width: 417
GlyphClass: 2
Flags: HW
LayerCount: 2
Fore
SplineSet
298.06 622.57 m 1,0,0
 176.68 0 l 1,0,0
 31.01 0 l 1,0,0
 135.02 535.73 l 1,0,0
 0.68 468.06 l 1,0,0
 28.38 607.25 l 1,0,0
 161.06 674.92 l 1,0,0
 319.01 1484 l 1,0,0
 465.68 1484 l 1,0,0
 325.76 761.76 l 1,0,0
 461.78 833.1 l 1,0,0
 434.41 691.92 l 1,0,0
 298.06 622.57 l 1,0,0
EndSplineSet
EndChar

StartChar: Eng
Encoding: 330 330 267
Width: 1481
GlyphClass: 2
Flags: HW
LayerCount: 2
Fore
SplineSet
902.92 -425 m 0,0,0
 864.44 -425 864.44 -425 786.13 -412.65 c 1,0,0
 804.84 -293.81 l 1,0,0
 833.48 -298.8 833.48 -298.8 854.64 -301.13 c 0,0,0
 875.8 -303.46 875.8 -303.46 891.14 -303.13 c 0,0,0
 953.77 -303.13 953.77 -303.13 983.93 -252.55 c 0,0,0
 1014.09 -201.97 1014.09 -201.97 1030.76 -91.49 c 0,0,0
 1034.77 -61.52 1034.77 -61.52 1038.785 -38.98 c 0,0,0
 1042.8 -16.44 1042.8 -16.44 1046.15 0 c 1,0,0
 439.18 1238.73 l 1,0,0
 428.18 1160.39 428.18 1160.39 422.005 1117.015 c 0,0,0
 415.83 1073.64 415.83 1073.64 414.48 1063.57 c 2,0,0
 212.55 0 l 1,0,0
 72.91 0 l 1,0,0
 345.58 1409 l 1,0,0
 510.71 1409 l 1,0,0
 1098.57 194.21 l 1,0,0
 1101.27 222.34 l 0,0,0
 1103.95 245.05 1103.95 245.05 1110.95 285.05 c 2,0,0
 1327.48 1409 l 1,0,0
 1469.78 1409 l 1,0,0
 1171.11 -135.98 l 2,0,0
 1139.45 -298.6 1139.45 -298.6 1075.225 -361.8 c 0,0,0
 1011 -425 1011 -425 902.92 -425 c 0,0,0
EndSplineSet
EndChar

StartChar: eng
Encoding: 331 331 268
Width: 1102
GlyphClass: 2
Flags: HW
LayerCount: 2
Fore
SplineSet
562.55 -425 m 0,0,0
 524.07 -425 524.07 -425 445.76 -412.65 c 1,0,0
 464.47 -293.81 l 1,0,0
 494.43 -298.8 494.43 -298.8 516.745 -301.13 c 0,0,0
 539.06 -303.46 539.06 -303.46 555.72 -303.13 c 0,0,0
 612.08 -303.13 612.08 -303.13 641.585 -258.985 c 0,0,0
 671.09 -214.84 671.09 -214.84 687.76 -122.51 c 2,0,0
 838.71 661.5 l 2,0,0
 854.07 737.96 854.07 737.96 854.07 806.55 c 0,0,0
 854.07 986.09 854.07 986.09 666.16 986.09 c 0,0,0
 576.55 986.09 576.55 986.09 502.08 940.61 c 0,0,0
 427.61 895.13 427.61 895.13 374.965 810.515 c 0,0,0
 322.32 725.9 322.32 725.9 298.01 606 c 2,0,0
 180.01 0 l 1,0,0
 33.67 0 l 1,0,0
 199.67 851 l 2,0,0
 210.33 900.31 210.33 900.31 219.83 958.475 c 0,0,0
 229.33 1016.64 229.33 1016.64 239 1082 c 1,0,0
 376.66 1082 l 1,0,0
 376.66 1076.65 376.66 1076.65 371.495 1043.47 c 0,0,0
 366.33 1010.29 366.33 1010.29 359.5 969.46 c 0,0,0
 352.67 928.63 352.67 928.63 347.34 897 c 1,0,0
 350.34 897 l 1,0,0
 435.98 1015.63 435.98 1015.63 517.17 1058.315 c 0,0,0
 598.36 1101 598.36 1101 712.7 1101 c 0,0,0
 859.38 1101 859.38 1101 933.055 1028 c 0,0,0
 1006.73 955 1006.73 955 1006.73 817 c 0,0,0
 1006.73 782.69 1006.73 782.69 1002.39 746.145 c 0,0,0
 998.05 709.6 998.05 709.6 985.73 653 c 2,0,0
 830.74 -135.98 l 2,0,0
 797.76 -300.58 797.76 -300.58 733.535 -362.79 c 0,0,0
 669.31 -425 669.31 -425 562.55 -425 c 0,0,0
EndSplineSet
EndChar

StartChar: OE
Encoding: 338 338 275
Width: 2048
GlyphClass: 2
Flags: HW
LayerCount: 2
Fore
SplineSet
885.08 0 m 1,0,0
 807.79 -10 807.79 -10 700.68 -10 c 0,0,0
 513.34 -10 513.34 -10 379.005 61.16 c 0,0,0
 244.67 132.32 244.67 132.32 172.505 263.485 c 0,0,0
 100.34 394.65 100.34 394.65 100.34 573 c 0,0,0
 100.34 680.49 100.34 680.49 116.945 775.315 c 0,0,0
 133.55 870.14 133.55 870.14 166.09 960.21 c 0,0,0
 270.78 1178.96 270.78 1178.96 467.35 1299.48 c 0,0,0
 663.92 1420 663.92 1420 917.08 1420 c 0,0,0
 962.4 1420 962.4 1420 1014.19 1418.5 c 0,0,0
 1065.98 1417 1065.98 1417 1125.57 1413.67 c 2,0,0
 1208.52 1409 l 1,0,0
 2056.44 1409 l 1,0,0
 2031.06 1276.43 l 1,0,0
 1306.87 1276.43 l 1,0,0
 1212.6 792.42 l 1,0,0
 1877.12 792.42 l 1,0,0
 1851.41 660.53 l 1,0,0
 1186.89 660.53 l 1,0,0
 1084.63 131.25 l 1,0,0
 1849.82 131.25 l 1,0,0
 1824.77 0 l 1,0,0
 885.08 0 l 1,0,0
704.08 119.59 m 0,0,0
 773.7 119.59 773.7 119.59 829.17 121.93 c 0,0,0
 884.64 124.27 884.64 124.27 927.62 127.62 c 1,0,0
 1151.51 1283.38 l 1,0,0
 1105.88 1286.73 1105.88 1286.73 1048.235 1289.235 c 0,0,0
 990.59 1291.74 990.59 1291.74 907.08 1291.74 c 0,0,0
 732.88 1291.74 732.88 1291.74 592.22 1232.8 c 0,0,0
 483.71 1175.47 483.71 1175.47 408.65 1071.71 c 0,0,0
 333.59 967.95 333.59 967.95 294.48 836.57 c 0,0,0
 255.37 705.19 255.37 705.19 255.37 563 c 0,0,0
 255.37 347.13 255.37 347.13 372.625 233.36 c 0,0,0
 489.88 119.59 489.88 119.59 704.08 119.59 c 0,0,0
EndSplineSet
EndChar

StartChar: oe
Encoding: 339 339 276
Width: 1933
GlyphClass: 2
Flags: HW
LayerCount: 2
Fore
SplineSet
1019.36 511.91 m 1,0,0
 1007.04 452.97 1007.04 452.97 1007.04 390.99 c 0,0,0
 1007.04 249.08 1007.04 249.08 1080.14 173.295 c 0,0,0
 1153.24 97.51 1153.24 97.51 1301.43 97.51 c 0,0,0
 1404.69 97.51 1404.69 97.51 1490.275 146.16 c 0,0,0
 1575.86 194.81 1575.86 194.81 1624.82 279.81 c 1,0,0
 1727.51 220.44 l 1,0,0
 1653.84 96.02 1653.84 96.02 1541.51 38.01 c 0,0,0
 1429.18 -20 1429.18 -20 1279.77 -20 c 0,0,0
 1004.84 -20 1004.84 -20 904.46 186.53 c 1,0,0
 829.81 86.26 829.81 86.26 724.3 36.455 c 0,0,0
 618.79 -13.35 618.79 -13.35 478.13 -13.35 c 0,0,0
 285.4 -13.35 285.4 -13.35 179.015 102.155 c 0,0,0
 72.63 217.66 72.63 217.66 72.63 419 c 1,0,0
 79.28 623.99 79.28 623.99 144.65 781.65 c 0,0,0
 210.02 940.64 210.02 940.64 326.595 1020.82 c 0,0,0
 443.17 1101 443.17 1101 623.19 1101 c 0,0,0
 768.14 1101 768.14 1101 867.11 1048.215 c 0,0,0
 966.08 995.43 966.08 995.43 1009.48 892.17 c 1,0,0
 1085.48 992.43 1085.48 992.43 1190.79 1047.215 c 0,0,0
 1296.1 1102 1296.1 1102 1419.08 1102 c 0,0,0
 1621.43 1102 1621.43 1102 1734.265 1000.485 c 0,0,0
 1847.1 898.97 1847.1 898.97 1847.1 713.61 c 0,0,0
 1847.1 607.96 1847.1 607.96 1823.1 511.91 c 1,0,0
 1019.36 511.91 l 1,0,0
888.66 689.93 m 1,0,0
 888.66 988.8 888.66 988.8 627.46 988.8 c 0,0,0
 483.87 988.8 483.87 988.8 399.91 915.5 c 0,0,0
 342.94 866.19 342.94 866.19 303.125 781.395 c 0,0,0
 263.31 696.6 263.31 696.6 242.32 599.14 c 0,0,0
 221.33 501.68 221.33 501.68 221.33 411.05 c 0,0,0
 221.33 253.8 221.33 253.8 286.63 176.99 c 0,0,0
 351.93 100.18 351.93 100.18 482.2 100.18 c 0,0,0
 626.79 100.18 626.79 100.18 707.75 169.82 c 0,0,0
 788.71 238.13 788.71 238.13 835.685 379.9 c 0,0,0
 882.66 521.67 882.66 521.67 888.66 689.93 c 1,0,0
1037.73 633.74 m 1,0,0
 1689.51 633.74 l 1,0,0
 1693.84 711.02 l 1,0,0
 1693.84 840.63 1693.84 840.63 1627.05 912.24 c 0,0,0
 1560.26 983.85 1560.26 983.85 1424.4 983.85 c 0,0,0
 1277.86 983.85 1277.86 983.85 1177.78 892.08 c 0,0,0
 1077.7 800.31 1077.7 800.31 1037.73 633.74 c 1,0,0
EndSplineSet
EndChar

StartChar: Tbar
Encoding: 358 358 295
Width: 1251
GlyphClass: 2
Flags: HW
LayerCount: 2
Fore
SplineSet
724.49 653.93 m 1,0,0
 598.5 0 l 1,0,0
 443.15 0 l 1,0,0
 569.14 653.93 l 1,0,0
 272.98 653.93 l 1,0,0
 300.67 796.05 l 1,0,0
 596.83 796.05 l 1,0,0
 690.44 1276.76 l 1,0,0
 196.87 1276.76 l 1,0,0
 222.25 1409 l 1,0,0
 1364.41 1409 l 1,0,0
 1339.03 1276.76 l 1,0,0
 845.79 1276.76 l 1,0,0
 752.18 796.05 l 1,0,0
 1050.67 796.05 l 1,0,0
 1022.98 653.93 l 1,0,0
 724.49 653.93 l 1,0,0
EndSplineSet
EndChar

StartChar: tbar
Encoding: 359 359 296
Width: 531
GlyphClass: 2
Flags: HW
LayerCount: 2
Fore
SplineSet
237.4 192.19 m 0,0,0
 237.4 148.85 237.4 148.85 259.57 127.015 c 0,0,0
 281.74 105.18 281.74 105.18 328.39 105.18 c 0,0,0
 369.04 105.18 369.04 105.18 425.75 119.51 c 1,0,0
 411.04 2.68 l 1,0,0
 306.1 -21.32 306.1 -21.32 241.67 -21.32 c 0,0,0
 169.54 -21.32 169.54 -21.32 127.475 27.205 c 0,0,0
 85.41 75.73 85.41 75.73 85.41 151.81 c 0,0,0
 85.41 200.54 85.41 200.54 100.08 272.9 c 2,0,0
 149.34 530.19 l 1,0,0
 24.67 530.19 l 1,0,0
 46.04 641.72 l 1,0,0
 170.38 641.72 l 1,0,0
 234 970.47 l 1,0,0
 116.59 970.47 l 1,0,0
 138.96 1082 l 1,0,0
 254.41 1082 l 1,0,0
 348.85 1320.04 l 1,0,0
 450.37 1320.04 l 1,0,0
 403.7 1082 l 1,0,0
 603.04 1082 l 1,0,0
 580.01 970.47 l 1,0,0
 381.66 970.47 l 1,0,0
 318.04 641.72 l 1,0,0
 522.99 641.72 l 1,0,0
 501.95 530.19 l 1,0,0
 295.67 530.19 l 1,0,0
 249.73 289.17 l 2,0,0
 237.4 228.51 237.4 228.51 237.4 192.19 c 0,0,0
EndSplineSet
EndChar

StartChar: longs
Encoding: 383 383 320
Width: 417
GlyphClass: 2
Flags: HW
LayerCount: 2
Fore
SplineSet
32.34 0 m 1,0,0
 266.67 1206.97 l 2,0,0
 295.34 1363.3 295.34 1363.3 359.915 1423.65 c 0,0,0
 424.49 1484 424.49 1484 543.29 1484 c 0,0,0
 613.29 1484 613.29 1484 649.08 1473.65 c 1,0,0
 629.04 1351.17 l 1,0,0
 603.41 1355.83 603.41 1355.83 586.04 1357.17 c 0,0,0
 568.67 1358.51 568.67 1358.51 549 1358.51 c 0,0,0
 518.25 1358.51 518.25 1358.51 494.23 1350.12 c 0,0,0
 458.28 1332.79 458.28 1332.79 441.795 1293.66 c 0,0,0
 425.31 1254.53 425.31 1254.53 410.33 1182.96 c 2,0,0
 179.34 0 l 1,0,0
 32.34 0 l 1,0,0
EndSplineSet
EndChar

StartChar: uni0180
Encoding: 384 384 321
Width: 1102
GlyphClass: 2
Flags: HW
LayerCount: 2
Fore
SplineSet
168.98 1334.36 m 1,0,0
 291.03 1334.36 l 1,0,0
 320.69 1484 l 1,0,0
 467.36 1484 l 1,0,0
 437.7 1334.36 l 1,0,0
 763.16 1334.36 l 1,0,0
 739.15 1216.23 l 1,0,0
 414.01 1216.23 l 1,0,0
 387 1074.53 l 2,0,0
 380.66 1046.83 380.66 1046.83 372.495 1011.825 c 0,0,0
 364.33 976.82 364.33 976.82 352.34 936.84 c 1,0,0
 356.34 936.84 l 1,0,0
 432.64 1032.17 432.64 1032.17 510.01 1073.685 c 0,0,0
 587.38 1115.2 587.38 1115.2 709.68 1115.2 c 0,0,0
 866.02 1115.2 866.02 1115.2 953.025 1020.7 c 0,0,0
 1040.03 926.2 1040.03 926.2 1040.03 761.2 c 0,0,0
 1040.03 562.48 1040.03 562.48 979.69 367.21 c 0,0,0
 919.68 170.28 919.68 170.28 808.505 75.14 c 0,0,0
 697.33 -20 697.33 -20 520.04 -20 c 0,0,0
 397.7 -20 397.7 -20 321.03 32 c 0,0,0
 244.36 84 244.36 84 212.36 178 c 1,0,0
 209.03 178 l 1,0,0
 209.67 175.89 209.67 175.89 199.99 133.7 c 0,0,0
 190.31 91.51 190.31 91.51 167.68 0 c 1,0,0
 27.02 0 l 1,0,0
 31.02 13 31.02 13 43.52 68.5 c 0,0,0
 56.02 124 56.02 124 76.02 223 c 2,0,0
 269 1216.23 l 1,0,0
 146.62 1216.23 l 1,0,0
 168.98 1334.36 l 1,0,0
680.12 994.68 m 0,0,0
 579.47 994.68 579.47 994.68 503.195 950.55 c 0,0,0
 426.92 906.42 426.92 906.42 374.29 819.48 c 0,0,0
 340.31 761.52 340.31 761.52 314.495 681.9 c 0,0,0
 288.68 602.28 288.68 602.28 275.355 520.325 c 0,0,0
 262.03 438.37 262.03 438.37 262.03 369.08 c 0,0,0
 262.03 238.14 262.03 238.14 328.995 165.67 c 0,0,0
 395.96 93.2 395.96 93.2 514.9 93.2 c 0,0,0
 642.52 93.2 642.52 93.2 712.19 161.25 c 0,0,0
 764.81 211.56 764.81 211.56 803.77 315.28 c 0,0,0
 842.73 419 842.73 419 864.705 534.895 c 0,0,0
 886.68 650.79 886.68 650.79 886.68 736.46 c 0,0,0
 886.68 863.42 886.68 863.42 837.7 929.05 c 0,0,0
 788.72 994.68 788.72 994.68 680.12 994.68 c 0,0,0
EndSplineSet
EndChar

StartChar: uni0181
Encoding: 385 385 322
Width: 1451
GlyphClass: 2
Flags: HW
LayerCount: 2
Fore
SplineSet
1311.66 441.64 m 0,0,0
 1311.66 227.98 1311.66 227.98 1155.825 113.99 c 0,0,0
 999.99 0 999.99 0 735.2 0 c 2,0,0
 176.5 0 l 1,0,0
 425.79 1282.78 l 1,0,0
 411.11 1282.78 l 2,0,0
 309.85 1282.78 309.85 1282.78 260.545 1227.49 c 0,0,0
 211.24 1172.2 211.24 1172.2 211.24 1073.27 c 0,0,0
 212.57 1062.25 212.57 1062.25 212.91 1054.21 c 0,0,0
 213.25 1046.17 213.25 1046.17 212.6 1038.78 c 1,0,0
 90.01 1021.78 l 1,0,0
 85.35 1034.13 85.35 1034.13 83.185 1046.985 c 0,0,0
 81.02 1059.84 81.02 1059.84 81.02 1070.21 c 0,0,0
 81.02 1230.64 81.02 1230.64 170.2 1319.82 c 0,0,0
 259.38 1409 259.38 1409 422.8 1409 c 2,0,0
 934.75 1409 l 2,0,0
 1129.89 1409 1129.89 1409 1247.585 1321.18 c 0,0,0
 1365.28 1233.36 1365.28 1233.36 1365.28 1088.32 c 0,0,0
 1365.28 801.01 1365.28 801.01 1021.33 744.65 c 1,0,0
 1159.99 721.65 1159.99 721.65 1235.825 640.48 c 0,0,0
 1311.66 559.31 1311.66 559.31 1311.66 441.64 c 0,0,0
488.2 799.77 m 1,0,0
 831.41 799.77 l 2,0,0
 1010.4 799.77 1010.4 799.77 1103.85 870.375 c 0,0,0
 1197.3 940.98 1197.3 940.98 1197.3 1077.9 c 0,0,0
 1197.3 1176.52 1197.3 1176.52 1127 1227.15 c 0,0,0
 1056.7 1277.78 1056.7 1277.78 922.7 1277.78 c 2,0,0
 581.8 1277.78 l 1,0,0
 488.2 799.77 l 1,0,0
357.89 131.22 m 1,0,0
 739.09 131.22 l 2,0,0
 949.42 131.22 949.42 131.22 1052.365 212.31 c 0,0,0
 1155.31 293.4 1155.31 293.4 1155.31 443.65 c 0,0,0
 1155.31 556.26 1155.31 556.26 1072.015 614.9 c 0,0,0
 988.72 673.54 988.72 673.54 841.37 673.54 c 2,0,0
 463.49 673.54 l 1,0,0
 357.89 131.22 l 1,0,0
EndSplineSet
EndChar

StartChar: uni0182
Encoding: 386 386 323
Width: 1294
GlyphClass: 2
Flags: HW
LayerCount: 2
Fore
SplineSet
344.91 1409 m 1,0,0
 1227.02 1409 l 1,0,0
 1201.64 1276.43 l 1,0,0
 476.21 1276.43 l 1,0,0
 384.61 801.45 l 1,0,0
 692.11 801.45 l 2,0,0
 918.79 801.45 918.79 801.45 1043.98 705.265 c 0,0,0
 1169.17 609.08 1169.17 609.08 1169.17 428.75 c 0,0,0
 1169.17 226.37 1169.17 226.37 1026.455 113.185 c 0,0,0
 883.74 0 883.74 0 634.97 0 c 2,0,0
 70.58 0 l 1,0,0
 344.91 1409 l 1,0,0
251.31 124.93 m 1,0,0
 619.7 124.93 l 2,0,0
 817.9 124.93 817.9 124.93 914.685 198.55 c 0,0,0
 1011.47 272.17 1011.47 272.17 1011.47 422.38 c 0,0,0
 1011.47 543.3 1011.47 543.3 931.515 608.75 c 0,0,0
 851.56 674.2 851.56 674.2 701.26 674.2 c 2,0,0
 359.23 674.2 l 1,0,0
 251.31 124.93 l 1,0,0
EndSplineSet
EndChar

StartChar: uni0183
Encoding: 387 387 324
Width: 1102
GlyphClass: 2
Flags: HW
LayerCount: 2
Fore
SplineSet
707.37 1102 m 0,0,0
 863.71 1102 863.71 1102 950.715 1007.5 c 0,0,0
 1037.72 913 1037.72 913 1037.72 748 c 0,0,0
 1037.72 543.01 1037.72 543.01 977.05 355 c 0,0,0
 916.38 165.66 916.38 165.66 804.545 72.83 c 0,0,0
 692.71 -20 692.71 -20 520.04 -20 c 0,0,0
 397.7 -20 397.7 -20 320.865 32 c 0,0,0
 244.03 84 244.03 84 212.03 178 c 1,0,0
 209.03 178 l 1,0,0
 209.67 175.89 209.67 175.89 199.99 133.7 c 0,0,0
 190.31 91.51 190.31 91.51 167.68 0 c 1,0,0
 27.02 0 l 1,0,0
 31.35 14.65 31.35 14.65 45.995 79.555 c 0,0,0
 60.64 144.46 60.64 144.46 83.94 260.95 c 2,0,0
 320.69 1484 l 1,0,0
 1052.48 1484 l 1,0,0
 1023.13 1342.82 l 1,0,0
 439.99 1342.82 l 1,0,0
 421.68 1249.94 421.68 1249.94 407.695 1177.025 c 0,0,0
 393.71 1104.11 393.71 1104.11 384.05 1053.15 c 0,0,0
 376.03 1014.39 376.03 1014.39 367.525 982.345 c 0,0,0
 359.02 950.3 359.02 950.3 350.03 923.64 c 1,0,0
 354.03 923.64 l 1,0,0
 430.33 1018.97 430.33 1018.97 507.7 1060.485 c 0,0,0
 585.07 1102 585.07 1102 707.37 1102 c 0,0,0
677.81 981.48 m 0,0,0
 475.59 981.48 475.59 981.48 372.31 812.55 c 0,0,0
 338.66 756.57 338.66 756.57 313.34 678.435 c 0,0,0
 288.02 600.3 288.02 600.3 275.025 519.17 c 0,0,0
 262.03 438.04 262.03 438.04 262.03 369.08 c 0,0,0
 262.03 238.14 262.03 238.14 328.995 165.67 c 0,0,0
 395.96 93.2 395.96 93.2 514.9 93.2 c 0,0,0
 645.16 93.2 645.16 93.2 719.45 169.5 c 0,0,0
 757.76 207.15 757.76 207.15 787.745 271.63 c 0,0,0
 817.73 336.11 817.73 336.11 839.72 414.25 c 0,0,0
 861.71 492.39 861.71 492.39 873.04 573.185 c 0,0,0
 884.37 653.98 884.37 653.98 884.37 723.26 c 0,0,0
 884.37 852.2 884.37 852.2 833.575 916.84 c 0,0,0
 782.78 981.48 782.78 981.48 677.81 981.48 c 0,0,0
EndSplineSet
EndChar

StartChar: uni0184
Encoding: 388 388 325
Width: 1294
GlyphClass: 2
Flags: HW
LayerCount: 2
Fore
SplineSet
383.28 801.45 m 1,0,0
 676.15 801.45 l 2,0,0
 902.83 801.45 902.83 801.45 1028.02 705.265 c 0,0,0
 1153.21 609.08 1153.21 609.08 1153.21 428.75 c 0,0,0
 1153.21 226.37 1153.21 226.37 1010.495 113.185 c 0,0,0
 867.78 0 867.78 0 619.01 0 c 2,0,0
 69.25 0 l 1,0,0
 267.24 1013.64 l 1,0,0
 138.6 1166.1 l 1,0,0
 144.6 1198.11 l 1,0,0
 450.53 1409 l 1,0,0
 500.26 1409 l 1,0,0
 383.28 801.45 l 1,0,0
249.98 124.93 m 1,0,0
 603.74 124.93 l 2,0,0
 801.94 124.93 801.94 124.93 898.725 198.55 c 0,0,0
 995.51 272.17 995.51 272.17 995.51 422.38 c 0,0,0
 995.51 543.3 995.51 543.3 915.555 608.75 c 0,0,0
 835.6 674.2 835.6 674.2 685.3 674.2 c 2,0,0
 357.9 674.2 l 1,0,0
 249.98 124.93 l 1,0,0
EndSplineSet
EndChar

StartChar: uni0185
Encoding: 389 389 326
Width: 1102
GlyphClass: 2
Flags: HW
LayerCount: 2
Fore
SplineSet
707.37 1102 m 0,0,0
 883.33 1102 883.33 1102 969.34 984.72 c 0,0,0
 1037.72 895.04 1037.72 895.04 1037.72 748 c 0,0,0
 1037.72 692.66 1037.72 692.66 1033.385 637.985 c 0,0,0
 1029.05 583.31 1029.05 583.31 1019.38 530.63 c 0,0,0
 994.04 376.66 994.04 376.66 928.76 240.58 c 0,0,0
 863.48 104.5 863.48 104.5 762.91 39.5 c 0,0,0
 713.21 10.41 713.21 10.41 652.66 -4.795 c 0,0,0
 592.11 -20 592.11 -20 520.04 -20 c 0,0,0
 397.7 -20 397.7 -20 321.03 32 c 0,0,0
 244.36 84 244.36 84 212.36 178 c 1,0,0
 209.03 178 l 1,0,0
 209.67 175.89 209.67 175.89 199.99 133.7 c 0,0,0
 190.31 91.51 190.31 91.51 167.68 0 c 1,0,0
 27.02 0 l 1,0,0
 29.36 7.35 29.36 7.35 34.7 31.55 c 0,0,0
 40.04 55.75 40.04 55.75 50.705 102.085 c 0,0,0
 61.37 148.42 61.37 148.42 76.02 223 c 2,0,0
 242.03 1082.37 l 1,0,0
 155.3 1258.08 l 1,0,0
 162.96 1290.42 l 1,0,0
 423.29 1484 l 1,0,0
 467.36 1484 l 1,0,0
 457.02 1428.31 457.02 1428.31 444.69 1368.82 c 0,0,0
 432.36 1309.33 432.36 1309.33 420.7 1246.37 c 0,0,0
 415 1214.88 415 1214.88 406.49 1172.495 c 0,0,0
 397.98 1130.11 397.98 1130.11 388.65 1080.14 c 0,0,0
 380.66 1044.52 380.66 1044.52 372.495 1008.855 c 0,0,0
 364.33 973.19 364.33 973.19 350.03 923.64 c 1,0,0
 354.03 923.64 l 1,0,0
 431.98 1021.61 431.98 1021.61 509.845 1061.805 c 0,0,0
 587.71 1102 587.71 1102 707.37 1102 c 0,0,0
677.81 981.48 m 0,0,0
 563.63 981.48 563.63 981.48 485.54 933.06 c 0,0,0
 407.45 884.64 407.45 884.64 355.48 790.11 c 0,0,0
 330.11 738.14 330.11 738.14 311.245 672.3 c 0,0,0
 292.38 606.46 292.38 606.46 280.36 550.01 c 0,0,0
 262.03 456.35 262.03 456.35 262.03 369.08 c 0,0,0
 262.03 238.47 262.03 238.47 328.83 165.835 c 0,0,0
 395.63 93.2 395.63 93.2 514.9 93.2 c 0,0,0
 579.2 93.2 579.2 93.2 630.34 112.025 c 0,0,0
 681.48 130.85 681.48 130.85 717.14 167.19 c 0,0,0
 765.1 214.5 765.1 214.5 801.905 306.27 c 0,0,0
 838.71 398.04 838.71 398.04 858.38 489.4 c 0,0,0
 884.37 616 884.37 616 884.37 723.26 c 0,0,0
 884.37 852.2 884.37 852.2 833.575 916.84 c 0,0,0
 782.78 981.48 782.78 981.48 677.81 981.48 c 0,0,0
EndSplineSet
EndChar

StartChar: uni0186
Encoding: 390 390 327
Width: 1479
GlyphClass: 2
Flags: HW
LayerCount: 2
Fore
SplineSet
192.82 1088.18 m 1,0,0
 318.82 1268.59 318.82 1268.59 474.53 1349.295 c 0,0,0
 630.24 1430 630.24 1430 834.98 1430 c 0,0,0
 1013.68 1430 1013.68 1430 1144.7 1357.01 c 0,0,0
 1276.72 1283.02 1276.72 1283.02 1344.235 1146.71 c 0,0,0
 1411.75 1010.4 1411.75 1010.4 1411.75 831.1 c 0,0,0
 1411.75 591.05 1411.75 591.05 1306.09 392.04 c 0,0,0
 1200.43 195.02 1200.43 195.02 1015.25 87.51 c 0,0,0
 830.07 -20 830.07 -20 607.66 -20 c 0,0,0
 395.28 -20 395.28 -20 246.11 66.21 c 0,0,0
 96.94 152.42 96.94 152.42 44.98 309.49 c 1,0,0
 193.96 359.21 l 1,0,0
 235.57 244.9 235.57 244.9 343.36 177.91 c 0,0,0
 451.15 110.92 451.15 110.92 608.09 110.92 c 0,0,0
 802.32 110.92 802.32 110.92 951.56 202.23 c 0,0,0
 1100.47 293.87 1100.47 293.87 1180.585 457.995 c 0,0,0
 1260.7 622.12 1260.7 622.12 1260.7 838.72 c 0,0,0
 1260.7 1051.59 1260.7 1051.59 1147.245 1176 c 0,0,0
 1033.79 1300.41 1033.79 1300.41 832.54 1300.41 c 0,0,0
 679.26 1300.41 679.26 1300.41 543.835 1224.765 c 0,0,0
 408.41 1149.12 408.41 1149.12 304.47 1001.82 c 1,0,0
 192.82 1088.18 l 1,0,0
EndSplineSet
EndChar

StartChar: uni0187
Encoding: 391 391 328
Width: 1479
GlyphClass: 2
Flags: HW
LayerCount: 2
Fore
SplineSet
1352.06 330.72 m 1,0,0
 1218.8 142.06 1218.8 142.06 1061.44 61.03 c 0,0,0
 904.08 -20 904.08 -20 696.37 -20 c 0,0,0
 519 -20 519 -20 387.65 53.33 c 0,0,0
 256.3 125.33 256.3 125.33 186.795 259.33 c 0,0,0
 117.29 393.33 117.29 393.33 117.29 569 c 0,0,0
 117.29 813.02 117.29 813.02 222.29 1012.02 c 0,0,0
 327.29 1211.35 327.29 1211.35 513.13 1320.675 c 0,0,0
 698.97 1430 698.97 1430 925.67 1430 c 0,0,0
 1228.14 1430 1228.14 1430 1389.1 1263.85 c 1,0,0
 1394.79 1289.32 l 2,0,0
 1426.78 1438.97 1426.78 1438.97 1502 1512.47 c 0,0,0
 1577.22 1585.97 1577.22 1585.97 1694.3 1585.97 c 0,0,0
 1755.33 1585.97 1755.33 1585.97 1803.4 1563.65 c 1,0,0
 1778.03 1430.14 l 1,0,0
 1736.33 1450.12 1736.33 1450.12 1691.7 1450.12 c 0,0,0
 1618.42 1450.12 1618.42 1450.12 1575.77 1402.83 c 0,0,0
 1533.12 1355.54 1533.12 1355.54 1515.79 1259.91 c 2,0,0
 1485.71 1100.51 l 1,0,0
 1336.73 1050.79 l 1,0,0
 1297.09 1164.44 1297.09 1164.44 1187.325 1231.76 c 0,0,0
 1077.56 1299.08 1077.56 1299.08 915.34 1299.08 c 0,0,0
 719.12 1299.08 719.12 1299.08 571.21 1204.48 c 0,0,0
 424.94 1111.2 424.94 1111.2 347.135 944.26 c 0,0,0
 269.33 777.32 269.33 777.32 269.33 563.69 c 0,0,0
 269.33 354.78 269.33 354.78 386.085 232.35 c 0,0,0
 502.84 109.92 502.84 109.92 707.06 109.92 c 0,0,0
 860.01 109.92 860.01 109.92 995.765 186.39 c 0,0,0
 1131.52 262.86 1131.52 262.86 1236.78 411.81 c 1,0,0
 1352.06 330.72 l 1,0,0
EndSplineSet
EndChar

StartChar: uni0188
Encoding: 392 392 329
Width: 986
GlyphClass: 2
Flags: HW
LayerCount: 2
Fore
SplineSet
446.89 105.17 m 0,0,0
 552.5 105.17 552.5 105.17 629.775 160.995 c 0,0,0
 707.05 216.82 707.05 216.82 757.67 342.43 c 1,0,0
 875.72 293.76 l 1,0,0
 748.11 -20 748.11 -20 446.85 -20 c 0,0,0
 262.76 -20 262.76 -20 165.54 89.175 c 0,0,0
 68.32 198.35 68.32 198.35 68.32 391.7 c 0,0,0
 68.32 594.35 68.32 594.35 139.34 765.68 c 0,0,0
 209.03 938.01 209.03 938.01 324.57 1020.005 c 0,0,0
 440.11 1102 440.11 1102 606.85 1102 c 0,0,0
 780.42 1102 780.42 1102 875.44 1014.42 c 1,0,0
 912.75 1145.11 912.75 1145.11 979.98 1210.62 c 0,0,0
 1047.21 1276.13 1047.21 1276.13 1149.64 1276.13 c 0,0,0
 1213 1276.13 1213 1276.13 1253.75 1253.81 c 1,0,0
 1228.05 1119.31 l 1,0,0
 1181.03 1141.95 1181.03 1141.95 1151.03 1141.95 c 0,0,0
 1084.4 1141.95 1084.4 1141.95 1047.735 1090.005 c 0,0,0
 1011.07 1038.06 1011.07 1038.06 991.08 935.78 c 2,0,0
 965.36 798.19 l 1,0,0
 823.67 772.53 l 1,0,0
 817.34 870.19 817.34 870.19 759.38 924.175 c 0,0,0
 701.42 978.16 701.42 978.16 606.13 978.16 c 0,0,0
 467.25 978.16 467.25 978.16 382.99 905.88 c 0,0,0
 332.35 862.23 332.35 862.23 296.03 785.25 c 0,0,0
 259.71 708.27 259.71 708.27 242.68 625.54 c 1,0,0
 215.69 515.52 215.69 515.52 215.69 383.06 c 0,0,0
 215.69 105.17 215.69 105.17 446.89 105.17 c 0,0,0
EndSplineSet
EndChar

StartChar: uni018A
Encoding: 394 394 331
Width: 1600
GlyphClass: 2
Flags: HW
LayerCount: 2
Fore
SplineSet
859.45 1409 m 2,0,0
 1062.83 1409 1062.83 1409 1211.675 1332.85 c 0,0,0
 1360.52 1256.7 1360.52 1256.7 1441.515 1117.38 c 0,0,0
 1522.51 978.06 1522.51 978.06 1522.51 785.72 c 0,0,0
 1522.51 548.06 1522.51 548.06 1418.19 374.04 c 0,0,0
 1313.87 198.36 1313.87 198.36 1118.555 99.18 c 0,0,0
 923.24 0 923.24 0 674.28 0 c 2,0,0
 173.5 0 l 1,0,0
 421.46 1282.78 l 1,0,0
 407.12 1282.78 l 2,0,0
 305.86 1282.78 305.86 1282.78 256.555 1227.49 c 0,0,0
 207.25 1172.2 207.25 1172.2 207.25 1073.27 c 0,0,0
 208.58 1062.25 208.58 1062.25 208.92 1054.21 c 0,0,0
 209.26 1046.17 209.26 1046.17 208.61 1038.78 c 1,0,0
 86.02 1021.78 l 1,0,0
 81.36 1034.13 81.36 1034.13 79.195 1046.985 c 0,0,0
 77.03 1059.84 77.03 1059.84 77.03 1070.21 c 0,0,0
 77.03 1230.64 77.03 1230.64 166.21 1319.82 c 0,0,0
 255.39 1409 255.39 1409 418.81 1409 c 2,0,0
 859.45 1409 l 2,0,0
354.23 128.25 m 1,0,0
 666.61 128.25 l 2,0,0
 875.82 128.25 875.82 128.25 1031.74 209.22 c 0,0,0
 1187.99 289.19 1187.99 289.19 1271.78 440.135 c 0,0,0
 1355.57 591.08 1355.57 591.08 1355.57 792.67 c 0,0,0
 1355.57 1021.57 1355.57 1021.57 1222.805 1151.16 c 0,0,0
 1090.04 1280.75 1090.04 1280.75 853.47 1280.75 c 2,0,0
 579.13 1280.75 l 1,0,0
 354.23 128.25 l 1,0,0
EndSplineSet
EndChar

StartChar: uni018B
Encoding: 395 395 332
Width: 1322
GlyphClass: 2
Flags: HW
LayerCount: 2
Fore
SplineSet
578.42 0 m 2,0,0
 399.52 0 399.52 0 277.91 57.97 c 0,0,0
 183.56 103.97 183.56 103.97 133.55 184.645 c 0,0,0
 83.54 265.32 83.54 265.32 83.54 377.98 c 0,0,0
 83.54 577.51 83.54 577.51 220.38 692.82 c 0,0,0
 291.05 747.95 291.05 747.95 394.45 775.855 c 0,0,0
 497.85 803.76 497.85 803.76 629.62 803.76 c 2,0,0
 1030.64 803.76 l 1,0,0
 1123.24 1276.43 l 1,0,0
 345.42 1276.43 l 1,0,0
 370.8 1409 l 1,0,0
 1305.3 1409 l 1,0,0
 1030.97 0 l 1,0,0
 578.42 0 l 2,0,0
1004.6 674.87 m 1,0,0
 631.69 674.87 l 2,0,0
 436.8 674.87 436.8 674.87 339.35 602.735 c 0,0,0
 241.9 530.6 241.9 530.6 241.9 384.02 c 0,0,0
 241.9 262.11 241.9 262.11 323.01 196 c 0,0,0
 404.12 129.89 404.12 129.89 560.69 129.89 c 2,0,0
 909.64 129.89 l 1,0,0
 1004.6 674.87 l 1,0,0
EndSplineSet
EndChar

StartChar: uni018C
Encoding: 396 396 333
Width: 1102
GlyphClass: 2
Flags: HW
LayerCount: 2
Fore
SplineSet
403.97 -21 m 0,0,0
 245.98 -21 245.98 -21 159.305 71.025 c 0,0,0
 72.63 163.05 72.63 163.05 72.63 326.07 c 0,0,0
 72.63 531.37 72.63 531.37 133.97 726.67 c 0,0,0
 195.31 920.31 195.31 920.31 304.825 1010.49 c 0,0,0
 414.34 1100.67 414.34 1100.67 590.64 1100.67 c 0,0,0
 713.31 1100.67 713.31 1100.67 789.82 1048.175 c 0,0,0
 866.33 995.68 866.33 995.68 899.32 902.67 c 1,0,0
 904.32 902.67 l 1,0,0
 912.97 951.92 912.97 951.92 921.29 998.855 c 0,0,0
 929.61 1045.79 929.61 1045.79 937.6 1090.74 c 0,0,0
 952.24 1168.94 952.24 1168.94 964.91 1231.96 c 0,0,0
 987.28 1342.82 l 1,0,0
 404.14 1342.82 l 1,0,0
 430.19 1484 l 1,0,0
 1162.31 1484 l 1,0,0
 915 220.36 l 2,0,0
 905 165.69 905 165.69 895.34 110.35 c 0,0,0
 885.68 55.01 885.68 55.01 874.03 0 c 1,0,0
 738 0 l 1,0,0
 738 24.35 738 24.35 743.83 60.55 c 0,0,0
 749.66 96.75 749.66 96.75 760.98 160 c 1,0,0
 755.65 160 l 1,0,0
 681.99 64.34 681.99 64.34 601.485 21.67 c 0,0,0
 520.98 -21 520.98 -21 403.97 -21 c 0,0,0
432.54 100.18 m 0,0,0
 636.42 100.18 636.42 100.18 738.7 270.44 c 0,0,0
 773.35 326.42 773.35 326.42 798.005 403.89 c 0,0,0
 822.66 481.36 822.66 481.36 835.655 562.825 c 0,0,0
 848.65 644.29 848.65 644.29 848.65 711.59 c 0,0,0
 848.65 838.24 848.65 838.24 779.705 912.69 c 0,0,0
 710.76 987.14 710.76 987.14 591.49 987.14 c 0,0,0
 459.9 987.14 459.9 987.14 385.59 910.16 c 0,0,0
 335.94 858.84 335.94 858.84 299.79 759.065 c 0,0,0
 263.64 659.29 263.64 659.29 244.15 549.515 c 0,0,0
 224.66 439.74 224.66 439.74 224.66 355.76 c 0,0,0
 224.66 228.47 224.66 228.47 273.97 164.325 c 0,0,0
 323.28 100.18 323.28 100.18 432.54 100.18 c 0,0,0
EndSplineSet
EndChar

StartChar: uni018D
Encoding: 397 397 334
Width: 1101
GlyphClass: 2
Flags: HW
LayerCount: 2
Fore
SplineSet
1031.43 684.65 m 0,0,0
 1031.43 508.66 1031.43 508.66 966.1 326.44 c 0,0,0
 899.44 145.88 899.44 145.88 777.27 56.87 c 0,0,0
 655.1 -32.14 655.1 -32.14 474.12 -28.24 c 1,0,0
 761.48 -309.17 l 1,0,0
 739.78 -425.33 l 1,0,0
 61.5 -425.33 l 1,0,0
 85.54 -299.47 l 1,0,0
 438.67 -299.47 l 1,0,0
 597.27 -310.11 l 1,0,0
 205.17 59.62 l 2,0,0
 125.5 133.95 125.5 133.95 89.51 225.85 c 0,0,0
 73.13 270.54 73.13 270.54 67.425 317.26 c 0,0,0
 61.72 363.98 61.72 363.98 61.72 410.75 c 0,0,0
 61.72 594.76 61.72 594.76 124.77 764.05 c 0,0,0
 187.82 932.67 187.82 932.67 306.4 1016.67 c 0,0,0
 424.98 1100.67 424.98 1100.67 608.01 1100.67 c 0,0,0
 815.04 1100.67 815.04 1100.67 923.235 991.995 c 0,0,0
 1031.43 883.32 1031.43 883.32 1031.43 684.65 c 0,0,0
880.41 681.02 m 0,0,0
 880.41 836.56 880.41 836.56 816.43 912.68 c 0,0,0
 752.45 988.8 752.45 988.8 620.86 988.8 c 0,0,0
 475.3 988.8 475.3 988.8 391 917.49 c 0,0,0
 335.02 870.17 335.02 870.17 294.54 784.225 c 0,0,0
 254.06 698.28 254.06 698.28 232.405 599.16 c 0,0,0
 210.75 500.04 210.75 500.04 210.75 414.02 c 0,0,0
 210.75 255.46 210.75 255.46 278.875 171.195 c 0,0,0
 347 86.93 347 86.93 480.55 86.93 c 0,0,0
 602.04 86.93 602.04 86.93 671.81 129.86 c 0,0,0
 741.58 172.79 741.58 172.79 792.88 266.63 c 0,0,0
 818.61 322.59 818.61 322.59 838.32 399.065 c 0,0,0
 858.03 475.54 858.03 475.54 869.22 551.895 c 0,0,0
 880.41 628.25 880.41 628.25 880.41 681.02 c 0,0,0
EndSplineSet
EndChar

StartChar: uni018E
Encoding: 398 398 335
Width: 1366
GlyphClass: 2
Flags: HW
LayerCount: 2
Fore
SplineSet
-46.5 0 m 1,0,0
 -17.13 132.24 l 1,0,0
 936.85 132.24 l 1,0,0
 1052.4 668.45 l 1,0,0
 212.62 668.45 l 1,0,0
 241.99 798.03 l 1,0,0
 1081.77 798.03 l 1,0,0
 1185.69 1276.76 l 1,0,0
 299.77 1276.76 l 1,0,0
 328.81 1409 l 1,0,0
 1371.74 1409 l 1,0,0
 1064.16 0 l 1,0,0
 -46.5 0 l 1,0,0
EndSplineSet
EndChar

StartChar: uni018F
Encoding: 399 399 336
Width: 1613
GlyphClass: 2
Flags: HW
LayerCount: 2
Fore
SplineSet
1367.15 797.46 m 1,0,0
 1368.15 822.43 1368.15 822.43 1368.65 837.095 c 0,0,0
 1369.15 851.76 1369.15 851.76 1369.15 856.45 c 0,0,0
 1369.15 1066.58 1369.15 1066.58 1258.885 1182.5 c 0,0,0
 1148.62 1298.42 1148.62 1298.42 946.14 1298.42 c 0,0,0
 863.14 1298.42 863.14 1298.42 784.19 1280.42 c 0,0,0
 674.32 1254.77 674.32 1254.77 583.935 1190.335 c 0,0,0
 493.55 1125.9 493.55 1125.9 424.25 1028.92 c 1,0,0
 286.28 1084.63 l 1,0,0
 415.84 1260.66 415.84 1260.66 583.62 1345.33 c 0,0,0
 751.4 1430 751.4 1430 958.12 1430 c 0,0,0
 1134.13 1430 1134.13 1430 1257.655 1362.655 c 0,0,0
 1381.18 1295.31 1381.18 1295.31 1446.7 1169.625 c 0,0,0
 1512.22 1043.94 1512.22 1043.94 1512.22 867.59 c 0,0,0
 1512.22 610.29 1512.22 610.29 1417.19 406.64 c 0,0,0
 1322.49 202.99 1322.49 202.99 1141.14 91.495 c 0,0,0
 959.79 -20 959.79 -20 712.16 -20 c 0,0,0
 527.55 -20 527.55 -20 398.57 42.36 c 0,0,0
 265.6 105.05 265.6 105.05 196.275 229.565 c 0,0,0
 126.95 354.08 126.95 354.08 126.95 538.35 c 0,0,0
 126.95 650.45 126.95 650.45 160.32 797.46 c 1,0,0
 1367.15 797.46 l 1,0,0
703.99 99.6 m 0,0,0
 954.41 99.6 954.41 99.6 1119.105 245.835 c 0,0,0
 1283.8 392.07 1283.8 392.07 1349.09 664.87 c 1,0,0
 276 664.87 l 1,0,0
 266.34 602.59 266.34 602.59 266.34 546.6 c 0,0,0
 266.34 327.12 266.34 327.12 379.42 213.36 c 0,0,0
 492.5 99.6 492.5 99.6 703.99 99.6 c 0,0,0
EndSplineSet
EndChar

StartChar: uni0190
Encoding: 400 400 337
Width: 1237
GlyphClass: 2
Flags: HW
LayerCount: 2
Fore
SplineSet
539.06 -20 m 0,0,0
 369.79 -20 369.79 -20 256.12 40.3 c 0,0,0
 174.04 85.97 174.04 85.97 129.33 163.15 c 0,0,0
 84.62 240.33 84.62 240.33 84.62 345.66 c 0,0,0
 84.62 511.97 84.62 511.97 191.935 618.62 c 0,0,0
 299.25 725.27 299.25 725.27 479.27 749.94 c 1,0,0
 370.28 776.95 370.28 776.95 312.275 843.79 c 0,0,0
 254.27 910.63 254.27 910.63 254.27 1013.62 c 0,0,0
 254.27 1143.61 254.27 1143.61 323.94 1240.62 c 0,0,0
 386.96 1330.31 386.96 1330.31 503.82 1379.655 c 0,0,0
 620.68 1429 620.68 1429 779.01 1429 c 0,0,0
 973.07 1429 973.07 1429 1081.13 1350.945 c 0,0,0
 1189.19 1272.89 1189.19 1272.89 1223.87 1105.16 c 1,0,0
 1080.88 1057.13 l 1,0,0
 1040.58 1189.45 1040.58 1189.45 967.1 1241.955 c 0,0,0
 893.62 1294.46 893.62 1294.46 767.33 1294.46 c 0,0,0
 607.77 1294.46 607.77 1294.46 511.34 1212.53 c 0,0,0
 414.91 1130.6 414.91 1130.6 414.91 995.68 c 0,0,0
 414.91 889.42 414.91 889.42 498.53 841.255 c 0,0,0
 582.15 793.09 582.15 793.09 755.38 793.09 c 2,0,0
 817.04 793.09 l 1,0,0
 792.99 671.16 l 1,0,0
 718.03 671.16 l 2,0,0
 487.11 671.16 487.11 671.16 366.365 588.74 c 0,0,0
 245.62 506.32 245.62 506.32 245.62 345.77 c 0,0,0
 245.62 234.84 245.62 234.84 325.59 171.545 c 0,0,0
 405.56 108.25 405.56 108.25 545.17 108.25 c 0,0,0
 808.77 108.25 808.77 108.25 993.63 386.52 c 1,0,0
 1104.97 314.37 l 1,0,0
 1011.38 178.08 1011.38 178.08 930.7 112.39 c 0,0,0
 851 47.68 851 47.68 753.43 13.84 c 0,0,0
 655.86 -20 655.86 -20 539.06 -20 c 0,0,0
EndSplineSet
EndChar

StartChar: uni0191
Encoding: 401 401 338
Width: 1251
GlyphClass: 2
Flags: HW
LayerCount: 2
Fore
SplineSet
201.28 -143.19 m 2,0,0
 175.92 -277.64 175.92 -277.64 96.385 -350.655 c 0,0,0
 16.85 -423.67 16.85 -423.67 -121.6 -423.67 c 0,0,0
 -184.29 -423.67 -184.29 -423.67 -229.73 -402.34 c 1,0,0
 -203.69 -268.79 l 1,0,0
 -164.3 -288.44 -164.3 -288.44 -120 -288.44 c 0,0,0
 -52.01 -288.44 -52.01 -288.44 -9.53 -243.955 c 0,0,0
 32.95 -199.47 32.95 -199.47 51.94 -103.18 c 2,0,0
 344.91 1409 l 1,0,0
 1364.16 1409 l 1,0,0
 1338.78 1276.76 l 1,0,0
 476.21 1276.76 l 1,0,0
 368.6 723.72 l 1,0,0
 1206.84 723.72 l 1,0,0
 1180.13 588.82 l 1,0,0
 341.89 588.82 l 1,0,0
 201.28 -143.19 l 2,0,0
EndSplineSet
EndChar

StartChar: florin
Encoding: 402 402 339
Width: 1139
GlyphClass: 2
Flags: HW
LayerCount: 2
Fore
SplineSet
1022.39 1320.58 m 1,0,0
 992.77 1330.56 992.77 1330.56 966.09 1333.895 c 0,0,0
 939.41 1337.23 939.41 1337.23 907.77 1337.23 c 0,0,0
 850.08 1337.23 850.08 1337.23 817.42 1298.58 c 0,0,0
 784.76 1259.93 784.76 1259.93 763.78 1156.36 c 2,0,0
 734.48 1002.2 l 1,0,0
 944.82 1002.2 l 1,0,0
 923.78 890.67 l 1,0,0
 710.78 890.67 l 1,0,0
 452.78 -466.23 l 1,0,0
 305.78 -466.23 l 1,0,0
 563.78 890.67 l 1,0,0
 413.76 890.67 l 1,0,0
 437.46 1002.2 l 1,0,0
 586.15 1002.2 l 1,0,0
 617.46 1167.07 l 2,0,0
 648.79 1319.41 648.79 1319.41 716.69 1381.755 c 0,0,0
 784.59 1444.1 784.59 1444.1 904.72 1444.1 c 0,0,0
 984.03 1444.1 984.03 1444.1 1051.74 1423.11 c 1,0,0
 1022.39 1320.58 l 1,0,0
EndSplineSet
EndChar

StartChar: uni0193
Encoding: 403 403 340
Width: 1593
GlyphClass: 2
Flags: HW
LayerCount: 2
Fore
SplineSet
742.66 -20.33 m 0,0,0
 436.01 -20.33 436.01 -20.33 268.67 134.845 c 0,0,0
 101.33 290.02 101.33 290.02 101.33 569.7 c 0,0,0
 101.33 820.36 101.33 820.36 206.66 1017.02 c 0,0,0
 311.99 1215.34 311.99 1215.34 504.655 1322.67 c 0,0,0
 697.32 1430 697.32 1430 944.66 1430 c 0,0,0
 1249.8 1430 1249.8 1430 1400.8 1280.12 c 1,0,0
 1403.17 1289.32 l 2,0,0
 1431.17 1432.32 1431.17 1432.32 1507.72 1509.145 c 0,0,0
 1584.27 1585.97 1584.27 1585.97 1702.68 1585.97 c 0,0,0
 1763.71 1585.97 1763.71 1585.97 1811.78 1563.65 c 1,0,0
 1786.41 1430.14 l 1,0,0
 1744.71 1450.12 1744.71 1450.12 1700.08 1450.12 c 0,0,0
 1626.8 1450.12 1626.8 1450.12 1584.815 1402.83 c 0,0,0
 1542.83 1355.54 1542.83 1355.54 1524.17 1259.91 c 2,0,0
 1496.75 1117.47 l 1,0,0
 1333.12 1071.39 l 1,0,0
 1293.48 1187.05 1293.48 1187.05 1191.86 1243.065 c 0,0,0
 1090.24 1299.08 1090.24 1299.08 933.98 1299.08 c 0,0,0
 732.75 1299.08 732.75 1299.08 579.5 1209.45 c 0,0,0
 426.25 1120.15 426.25 1120.15 344.795 954.72 c 0,0,0
 263.34 789.29 263.34 789.29 263.34 572.05 c 0,0,0
 263.34 349.83 263.34 349.83 388.93 229.875 c 0,0,0
 514.52 109.92 514.52 109.92 742.72 109.92 c 0,0,0
 894.61 109.92 894.61 109.92 1031.855 155.87 c 0,0,0
 1169.1 201.82 1169.1 201.82 1258.39 285.72 c 1,0,0
 1311.04 548.3 l 1,0,0
 863.97 548.3 l 1,0,0
 893.66 692.46 l 1,0,0
 1485.05 692.46 l 1,0,0
 1386.7 221.55 l 1,0,0
 1249.01 95.94 1249.01 95.94 1090.015 37.805 c 0,0,0
 931.02 -20.33 931.02 -20.33 742.66 -20.33 c 0,0,0
EndSplineSet
EndChar

StartChar: uni0194
Encoding: 404 404 341
Width: 933
GlyphClass: 2
Flags: HW
LayerCount: 2
Fore
SplineSet
301.09 -425 m 0,0,0
 206.02 -425 206.02 -425 150.305 -369.635 c 0,0,0
 94.59 -314.27 94.59 -314.27 94.59 -213.58 c 0,0,0
 94.59 -165.88 94.59 -165.88 116.1 -105.035 c 0,0,0
 137.61 -44.19 137.61 -44.19 168.03 16.22 c 0,0,0
 186.05 49.56 186.05 49.56 224.04 108.35 c 0,0,0
 262.03 167.14 262.03 167.14 321.65 252.71 c 1,0,0
 6.1 1409 l 1,0,0
 167.8 1409 l 1,0,0
 424.57 368.77 l 1,0,0
 1084.17 1409 l 1,0,0
 1257.5 1409 l 1,0,0
 486.32 239.41 l 1,0,0
 532.36 89.01 532.36 89.01 545.7 11.37 c 0,0,0
 557.71 -57.96 557.71 -57.96 557.71 -117.28 c 0,0,0
 557.71 -197.01 557.71 -197.01 526.67 -273.67 c 0,0,0
 492.98 -351.32 492.98 -351.32 434.585 -388.16 c 0,0,0
 376.19 -425 376.19 -425 301.09 -425 c 0,0,0
309.49 -293.81 m 0,0,0
 358.83 -293.81 358.83 -293.81 388.815 -243.18 c 0,0,0
 418.8 -192.55 418.8 -192.55 418.8 -96.33 c 0,0,0
 418.8 -42.64 418.8 -42.64 412.78 17.325 c 0,0,0
 406.76 77.29 406.76 77.29 388.11 141.55 c 1,0,0
 353.43 85.23 l 2,0,0
 298.46 -6.01 298.46 -6.01 266.32 -86.59 c 0,0,0
 234.18 -167.17 234.18 -167.17 234.18 -210.49 c 0,0,0
 234.18 -251.8 234.18 -251.8 254.505 -272.805 c 0,0,0
 274.83 -293.81 274.83 -293.81 309.49 -293.81 c 0,0,0
EndSplineSet
EndChar

StartChar: uni0195
Encoding: 405 405 342
Width: 1764
GlyphClass: 2
Flags: HW
LayerCount: 2
Fore
SplineSet
1116.61 -20 m 0,0,0
 939.89 -20 939.89 -20 852.005 56.015 c 0,0,0
 764.12 132.03 764.12 132.03 764.12 262.75 c 0,0,0
 764.12 274.18 764.12 274.18 764.97 286.285 c 0,0,0
 765.82 298.39 765.82 298.39 769.17 312.82 c 2,0,0
 841.37 679.47 l 2,0,0
 848.71 717.82 848.71 717.82 850.725 747.69 c 0,0,0
 852.74 777.56 852.74 777.56 852.74 805.22 c 0,0,0
 852.74 986.09 852.74 986.09 666.16 986.09 c 0,0,0
 576.55 986.09 576.55 986.09 501.25 939.78 c 0,0,0
 425.95 893.47 425.95 893.47 373.305 810.185 c 0,0,0
 320.66 726.9 320.66 726.9 298.01 612.65 c 2,0,0
 178.68 0 l 1,0,0
 33.67 0 l 1,0,0
 322.33 1484 l 1,0,0
 469.33 1484 l 1,0,0
 395.65 1104.27 l 2,0,0
 385.65 1046.3 385.65 1046.3 373.49 994.65 c 0,0,0
 361.33 943 361.33 943 347.34 897 c 1,0,0
 350.34 897 l 1,0,0
 422.35 1004 422.35 1004 506.2 1052.5 c 0,0,0
 590.05 1101 590.05 1101 712.7 1101 c 0,0,0
 856.72 1101 856.72 1101 931.06 1028 c 0,0,0
 1005.4 955 1005.4 955 1005.4 820.99 c 0,0,0
 1005.4 790.98 1005.4 790.98 1002.725 762.925 c 0,0,0
 1000.05 734.87 1000.05 734.87 994.03 706.77 c 2,0,0
 925.15 351.73 l 2,0,0
 916.11 310.86 916.11 310.86 916.11 262.57 c 0,0,0
 916.11 182.22 916.11 182.22 962.255 137.4 c 0,0,0
 1008.4 92.58 1008.4 92.58 1121.97 92.58 c 0,0,0
 1252.88 92.58 1252.88 92.58 1320.525 151.76 c 0,0,0
 1388.17 210.94 1388.17 210.94 1421.15 376.18 c 2,0,0
 1558.45 1082 l 1,0,0
 1706.78 1082 l 1,0,0
 1560.84 334.97 l 2,0,0
 1523.48 143.5 1523.48 143.5 1414.26 61.75 c 0,0,0
 1305.04 -20 1305.04 -20 1116.61 -20 c 0,0,0
EndSplineSet
EndChar

StartChar: uni0196
Encoding: 406 406 343
Width: 417
GlyphClass: 2
Flags: HW
LayerCount: 2
Fore
SplineSet
209.68 135.04 m 0,0,0
 209.68 99.35 209.68 99.35 223.005 64.175 c 0,0,0
 236.33 29 236.33 29 255.67 0 c 1,0,0
 91.33 0 l 1,0,0
 63 37.03 63 37.03 63 123.35 c 0,0,0
 63 180.32 63 180.32 74 236 c 2,0,0
 317 1484 l 1,0,0
 463.34 1484 l 1,0,0
 218.68 222.38 l 2,0,0
 215.01 204.03 215.01 204.03 212.345 177.875 c 0,0,0
 209.68 151.72 209.68 151.72 209.68 135.04 c 0,0,0
EndSplineSet
EndChar

StartChar: uni0197
Encoding: 407 407 344
Width: 569
GlyphClass: 2
Flags: HW
LayerCount: 2
Fore
SplineSet
377.15 687.18 m 1,0,0
 243.18 0 l 1,0,0
 97.84 0 l 1,0,0
 230.48 687.18 l 1,0,0
 59.55 687.18 l 1,0,0
 81.27 801.78 l 1,0,0
 253.53 801.78 l 1,0,0
 385.51 1484 l 1,0,0
 532.18 1484 l 1,0,0
 398.87 801.78 l 1,0,0
 573.49 801.78 l 1,0,0
 551.77 687.18 l 1,0,0
 377.15 687.18 l 1,0,0
EndSplineSet
EndChar

StartChar: uni0198
Encoding: 408 408 345
Width: 1328
GlyphClass: 2
Flags: HW
LayerCount: 2
Fore
SplineSet
636.55 774.38 m 1,0,0
 1223.91 0 l 1,0,0
 1030.91 0 l 1,0,0
 520.3 685.22 l 1,0,0
 337.23 554.24 l 1,0,0
 228.92 0 l 1,0,0
 71.91 0 l 1,0,0
 344.91 1409 l 1,0,0
 501.92 1409 l 1,0,0
 363.61 700.84 l 1,0,0
 488.77 819.94 l 1,0,0
 1015.04 1267.6 l 2,0,0
 1032.47 1282.68 1032.47 1282.68 1052.705 1299.225 c 0,0,0
 1072.94 1315.77 1072.94 1315.77 1093 1335.11 c 0,0,0
 1199.64 1423.35 1199.64 1423.35 1326.27 1423.35 c 0,0,0
 1358.63 1423.35 1358.63 1423.35 1390.47 1417.35 c 0,0,0
 1422.31 1411.35 1422.31 1411.35 1447.32 1402.02 c 1,0,0
 1419.28 1263.15 l 1,0,0
 1400.93 1272.14 1400.93 1272.14 1381.085 1277.47 c 0,0,0
 1361.24 1282.8 1361.24 1282.8 1337.91 1282.8 c 0,0,0
 1296.23 1282.8 1296.23 1282.8 1245.56 1264.78 c 0,0,0
 1194.56 1245.43 1194.56 1245.43 1093.65 1160.17 c 2,0,0
 636.55 774.38 l 1,0,0
EndSplineSet
EndChar

StartChar: uni0199
Encoding: 409 409 346
Width: 986
GlyphClass: 2
Flags: HW
LayerCount: 2
Fore
SplineSet
247.05 363.48 m 1,0,0
 179.34 0 l 1,0,0
 33.67 0 l 1,0,0
 273.31 1234.2 l 2,0,0
 296.99 1358.94 296.99 1358.94 372.195 1430.78 c 0,0,0
 447.4 1502.62 447.4 1502.62 554.21 1502.62 c 0,0,0
 619.59 1502.62 619.59 1502.62 667.66 1480.3 c 1,0,0
 642.29 1346.79 l 1,0,0
 596.6 1369.43 596.6 1369.43 565.27 1369.43 c 0,0,0
 498.64 1369.43 498.64 1369.43 460.98 1315.49 c 0,0,0
 423.32 1261.55 423.32 1261.55 404.99 1159.27 c 2,0,0
 285.38 544.89 l 1,0,0
 494.66 737.86 l 1,0,0
 883.38 1082 l 1,0,0
 1072.38 1082 l 1,0,0
 523.57 602.81 l 1,0,0
 879.7 0 l 1,0,0
 718.69 0 l 1,0,0
 424.29 503.65 l 1,0,0
 247.05 363.48 l 1,0,0
EndSplineSet
EndChar

StartChar: uni019A
Encoding: 410 410 347
Width: 417
GlyphClass: 2
Flags: HW
LayerCount: 2
Fore
SplineSet
301.67 680.19 m 1,0,0
 170.03 0 l 1,0,0
 24.36 0 l 1,0,0
 156 680.19 l 1,0,0
 29.6 680.19 l 1,0,0
 54.64 791.09 l 1,0,0
 177.71 791.09 l 1,0,0
 312.36 1484 l 1,0,0
 459.03 1484 l 1,0,0
 323.05 791.09 l 1,0,0
 450.16 791.09 l 1,0,0
 425.12 680.19 l 1,0,0
 301.67 680.19 l 1,0,0
EndSplineSet
EndChar

StartChar: uni019B
Encoding: 411 411 348
Width: 964
GlyphClass: 2
Flags: HW
LayerCount: 2
Fore
SplineSet
800.49 1263.74 m 1,0,0
 641.38 1213 l 1,0,0
 857.09 0 l 1,0,0
 714.71 0 l 1,0,0
 617.42 598.78 l 2,0,0
 606.76 654.44 606.76 654.44 601.085 707.94 c 0,0,0
 595.41 761.44 595.41 761.44 595.39 813.11 c 1,0,0
 595.02 812.38 595.02 812.38 600.47 820.46 c 0,0,0
 605.92 828.54 605.92 828.54 601.56 819.83 c 0,0,0
 597.2 811.12 597.2 811.12 566.74 762.01 c 0,0,0
 536.28 712.9 536.28 712.9 464.09 595.13 c 2,0,0
 67.36 0 l 1,0,0
 -94.31 0 l 1,0,0
 564.25 962.18 l 1,0,0
 524.66 1176.49 l 1,0,0
 349.67 1126.98 l 1,0,0
 332.28 1226.83 l 1,0,0
 500.96 1278.67 l 1,0,0
 468.27 1484 l 1,0,0
 593.37 1484 l 1,0,0
 622.01 1318.84 l 1,0,0
 783.43 1370.24 l 1,0,0
 800.49 1263.74 l 1,0,0
EndSplineSet
EndChar

StartChar: uni019C
Encoding: 412 412 349
Width: 1689
GlyphClass: 2
Flags: HW
LayerCount: 2
Fore
SplineSet
1047.93 -20 m 0,0,0
 958.3 -20 958.3 -20 893.35 9.98 c 0,0,0
 850.67 29.32 850.67 29.32 817.01 63.335 c 0,0,0
 783.35 97.35 783.35 97.35 761.68 135.79 c 1,0,0
 763.99 135.79 l 1,0,0
 739.63 112.41 739.63 112.41 715.945 93.215 c 0,0,0
 692.26 74.02 692.26 74.02 667.59 56.68 c 0,0,0
 605.61 12.69 605.61 12.69 549.09 -3.655 c 0,0,0
 492.57 -20 492.57 -20 430.86 -20 c 0,0,0
 259.58 -20 259.58 -20 169.28 67.135 c 0,0,0
 78.98 154.27 78.98 154.27 78.98 319.89 c 0,0,0
 78.98 396.84 78.98 396.84 102.95 521.02 c 2,0,0
 276.01 1409 l 1,0,0
 428.7 1409 l 1,0,0
 250.36 491.96 l 2,0,0
 234.01 407.87 234.01 407.87 234.01 336.94 c 0,0,0
 234.01 220.74 234.01 220.74 282.295 168.63 c 0,0,0
 330.58 116.52 330.58 116.52 439.79 116.52 c 0,0,0
 566.4 116.52 566.4 116.52 634.415 191.87 c 0,0,0
 702.43 267.22 702.43 267.22 733.75 423.5 c 2,0,0
 925.05 1409 l 1,0,0
 1079.07 1409 l 1,0,0
 892.75 449.4 l 2,0,0
 880.05 393.2 880.05 393.2 880.05 328.27 c 0,0,0
 880.05 219.41 880.05 219.41 924.85 167.965 c 0,0,0
 969.65 116.52 969.65 116.52 1069.54 116.52 c 0,0,0
 1202.12 116.52 1202.12 116.52 1278.96 193.395 c 0,0,0
 1355.8 270.27 1355.8 270.27 1386.8 432.92 c 2,0,0
 1576.75 1409 l 1,0,0
 1730.77 1409 l 1,0,0
 1498.47 214.83 l 2,0,0
 1489.46 172.76 1489.46 172.76 1482.61 119.22 c 0,0,0
 1475.76 65.68 1475.76 65.68 1469.74 -0.33 c 1,0,0
 1345.96 -0.33 l 1,0,0
 1364.63 138.41 l 1,0,0
 1361.96 133.09 l 1,0,0
 1304.62 64.35 1304.62 64.35 1220.805 22.175 c 0,0,0
 1136.99 -20 1136.99 -20 1047.93 -20 c 0,0,0
EndSplineSet
EndChar

StartChar: uni019D
Encoding: 413 413 350
Width: 1479
GlyphClass: 2
Flags: HW
LayerCount: 2
Fore
SplineSet
1020.99 0 m 1,0,0
 438.18 1236.07 l 1,0,0
 419.2 1112.51 419.2 1112.51 408.37 1043.2 c 0,0,0
 397.54 973.89 397.54 973.89 394.86 959.83 c 2,0,0
 184.91 -146.16 l 2,0,0
 166.89 -238.59 166.89 -238.59 128.04 -300.46 c 0,0,0
 89.19 -362.33 89.19 -362.33 27.825 -393 c 0,0,0
 -33.54 -423.67 -33.54 -423.67 -121.27 -423.67 c 0,0,0
 -183.96 -423.67 -183.96 -423.67 -229.4 -402.34 c 1,0,0
 -204.35 -272.09 l 1,0,0
 -163.97 -291.74 -163.97 -291.74 -120 -291.74 c 0,0,0
 -52.01 -291.74 -52.01 -291.74 -9.695 -247.255 c 0,0,0
 32.62 -202.77 32.62 -202.77 51.61 -106.48 c 2,0,0
 344.58 1409 l 1,0,0
 511.04 1409 l 1,0,0
 1096.85 169.58 l 1,0,0
 1111.5 273.49 1111.5 273.49 1122.665 346.965 c 0,0,0
 1133.83 420.44 1133.83 420.44 1143.17 462.82 c 2,0,0
 1326.48 1409 l 1,0,0
 1468.78 1409 l 1,0,0
 1196.11 0 l 1,0,0
 1020.99 0 l 1,0,0
EndSplineSet
EndChar

StartChar: uni019E
Encoding: 414 414 351
Width: 1102
GlyphClass: 2
Flags: HW
LayerCount: 2
Fore
SplineSet
982.76 636.83 m 2,0,0
 776.39 -425 l 1,0,0
 627.73 -425 l 1,0,0
 838.71 661.5 l 2,0,0
 854.07 737.96 854.07 737.96 854.07 806.55 c 0,0,0
 854.07 986.09 854.07 986.09 666.16 986.09 c 0,0,0
 576.55 986.09 576.55 986.09 501.915 940.445 c 0,0,0
 427.28 894.8 427.28 894.8 374.635 810.185 c 0,0,0
 321.99 725.57 321.99 725.57 298.01 606 c 2,0,0
 180.01 0 l 1,0,0
 33.67 0 l 1,0,0
 185.04 768.54 l 2,0,0
 194.36 811.81 194.36 811.81 201.02 871.55 c 0,0,0
 207.68 931.29 207.68 931.29 206.36 945.32 c 0,0,0
 205.04 949.36 205.04 949.36 201.89 983.165 c 0,0,0
 198.74 1016.97 198.74 1016.97 194.925 1049.95 c 0,0,0
 191.11 1082.93 191.11 1082.93 187.13 1082 c 1,0,0
 319.47 1082 l 1,0,0
 326.12 1057.38 326.12 1057.38 332.26 1033.51 c 0,0,0
 338.4 1009.64 338.4 1009.64 342.21 978.28 c 0,0,0
 346.02 946.92 346.02 946.92 347.34 897 c 1,0,0
 350.34 897 l 1,0,0
 435.65 1014.64 435.65 1014.64 516.84 1057.82 c 0,0,0
 598.03 1101 598.03 1101 712.7 1101 c 0,0,0
 859.38 1101 859.38 1101 933.055 1028 c 0,0,0
 1006.73 955 1006.73 955 1006.73 817 c 0,0,0
 1006.73 781.04 1006.73 781.04 1001.235 737.4 c 0,0,0
 995.74 693.76 995.74 693.76 982.76 636.83 c 2,0,0
EndSplineSet
EndChar

StartChar: Ohorn
Encoding: 416 416 353
Width: 1644
GlyphClass: 2
Flags: HW
LayerCount: 2
Fore
SplineSet
941.3 1430 m 0,0,0
 1161.72 1430 1161.72 1430 1309.595 1324.795 c 0,0,0
 1457.47 1219.59 1457.47 1219.59 1506.44 1030.18 c 1,0,0
 1617.7 1083.45 1617.7 1083.45 1669.33 1140.42 c 0,0,0
 1720.96 1197.39 1720.96 1197.39 1737.95 1272.69 c 1,0,0
 1662.82 1272.69 l 1,0,0
 1692.54 1409 l 1,0,0
 1857.18 1409 l 1,0,0
 1841.78 1337.98 l 2,0,0
 1812.45 1202.63 1812.45 1202.63 1742.43 1119.28 c 0,0,0
 1672.41 1035.93 1672.41 1035.93 1521.76 966.33 c 1,0,0
 1524.42 937.37 1524.42 937.37 1526.58 914.725 c 0,0,0
 1528.74 892.08 1528.74 892.08 1529.07 875.42 c 0,0,0
 1531.38 673.66 1531.38 673.66 1463.98 490.21 c 0,0,0
 1396.58 306.76 1396.58 306.76 1264.46 175.87 c 0,0,0
 1151.81 80.28 1151.81 80.28 1008.2 30.14 c 0,0,0
 864.59 -20 864.59 -20 703.06 -20 c 0,0,0
 459.19 -20 459.19 -20 306.88 98.55 c 0,0,0
 214.09 174.54 214.09 174.54 164.36 294.41 c 0,0,0
 114.63 414.28 114.63 414.28 114.63 573 c 0,0,0
 114.63 814.32 114.63 814.32 220.63 1013.33 c 0,0,0
 325.63 1212.34 325.63 1212.34 515.29 1321.17 c 0,0,0
 704.95 1430 704.95 1430 941.3 1430 c 0,0,0
933.95 1302.07 m 0,0,0
 593.73 1302.07 593.73 1302.07 415.89 1068.8 c 0,0,0
 370.48 1000.18 370.48 1000.18 337.43 912.685 c 0,0,0
 304.38 825.19 304.38 825.19 287.02 732.825 c 0,0,0
 269.66 640.46 269.66 640.46 269.66 557.06 c 0,0,0
 269.66 340.14 269.66 340.14 381.605 224.865 c 0,0,0
 493.55 109.59 493.55 109.59 710.41 109.59 c 0,0,0
 919.29 109.59 919.29 109.59 1066.54 200.55 c 0,0,0
 1163.82 261.19 1163.82 261.19 1232.615 363.145 c 0,0,0
 1301.41 465.1 1301.41 465.1 1338.055 592.71 c 0,0,0
 1374.7 720.32 1374.7 720.32 1374.7 853.6 c 0,0,0
 1374.7 1070.83 1374.7 1070.83 1259.27 1186.45 c 0,0,0
 1143.84 1302.07 1143.84 1302.07 933.95 1302.07 c 0,0,0
EndSplineSet
EndChar

StartChar: ohorn
Encoding: 417 417 354
Width: 1192
GlyphClass: 2
Flags: HW
LayerCount: 2
Fore
SplineSet
476.48 -20 m 0,0,0
 287.74 -20 287.74 -20 178.03 97 c 0,0,0
 68.32 214 68.32 214 68.32 419 c 0,0,0
 68.32 598.72 68.32 598.72 132.36 767.02 c 0,0,0
 196.4 933.99 196.4 933.99 316.135 1017.495 c 0,0,0
 435.87 1101 435.87 1101 621.54 1101 c 0,0,0
 794.69 1101 794.69 1101 900.07 1018.1 c 0,0,0
 1005.45 935.2 1005.45 935.2 1032.05 781.42 c 0,0,0
 1033.38 772.75 1033.38 772.75 1034.21 764.41 c 0,0,0
 1035.04 756.07 1035.04 756.07 1036.37 746.4 c 1,0,0
 1103.38 789.67 1103.38 789.67 1145.035 842.145 c 0,0,0
 1186.69 894.62 1186.69 894.62 1199.36 953.67 c 1,0,0
 1117.63 953.67 l 1,0,0
 1147.35 1089.98 l 1,0,0
 1318.59 1089.98 l 1,0,0
 1303.19 1018.96 l 2,0,0
 1279.17 904.51 1279.17 904.51 1220.605 823.315 c 0,0,0
 1162.04 742.12 1162.04 742.12 1040.98 673.89 c 1,0,0
 1042.24 558.16 1042.24 558.16 1010.8 422.395 c 0,0,0
 979.36 286.63 979.36 286.63 916.91 188.71 c 0,0,0
 770.23 -20 770.23 -20 476.48 -20 c 0,0,0
887.01 689.93 m 0,0,0
 887.01 988.8 887.01 988.8 625.81 988.8 c 0,0,0
 484.54 988.8 484.54 988.8 399.25 917.49 c 0,0,0
 342.28 870.17 342.28 870.17 301.47 786.04 c 0,0,0
 260.66 701.91 260.66 701.91 238.84 602.625 c 0,0,0
 217.02 503.34 217.02 503.34 217.02 411.05 c 0,0,0
 217.02 257.11 217.02 257.11 284.98 175.32 c 0,0,0
 352.94 93.53 352.94 93.53 480.88 93.53 c 0,0,0
 599.39 93.53 599.39 93.53 667.83 135.295 c 0,0,0
 736.27 177.06 736.27 177.06 787.89 264.91 c 0,0,0
 815.93 317.54 815.93 317.54 838.29 392.845 c 0,0,0
 860.65 468.15 860.65 468.15 873.83 547.33 c 0,0,0
 887.01 626.51 887.01 626.51 887.01 689.93 c 0,0,0
EndSplineSet
EndChar

StartChar: uni01A2
Encoding: 418 418 355
Width: 1753
GlyphClass: 2
Flags: HW
LayerCount: 2
Fore
SplineSet
716.59 -20 m 0,0,0
 430.61 -20 430.61 -20 272.125 139.315 c 0,0,0
 113.64 298.63 113.64 298.63 113.64 577.95 c 0,0,0
 113.64 811.68 113.64 811.68 221.29 1011.68 c 0,0,0
 327.61 1212.34 327.61 1212.34 516.775 1321.17 c 0,0,0
 705.94 1430 705.94 1430 938.33 1430 c 0,0,0
 1019.38 1430 1019.38 1430 1097.94 1411.655 c 0,0,0
 1176.5 1393.31 1176.5 1393.31 1263.12 1354.98 c 1,0,0
 1708.65 1422.34 l 1,0,0
 1741.75 1422.34 l 1,0,0
 1383.08 -423.67 l 1,0,0
 1236.74 -423.67 l 1,0,0
 1559.38 1234.2 l 1,0,0
 1342.95 1236.86 l 1,0,0
 1116.31 75.3 l 1,0,0
 1033.4 37.67 1033.4 37.67 969.215 16.675 c 0,0,0
 905.03 -4.32 905.03 -4.32 845.315 -12.16 c 0,0,0
 785.6 -20 785.6 -20 716.59 -20 c 0,0,0
1197.28 1241.2 m 1,0,0
 1091.4 1300.09 1091.4 1300.09 930.65 1300.09 c 0,0,0
 588.45 1300.09 588.45 1300.09 411.93 1069.13 c 0,0,0
 367.51 1002.16 367.51 1002.16 335.12 914.5 c 0,0,0
 302.73 826.84 302.73 826.84 285.535 734.97 c 0,0,0
 268.34 643.1 268.34 643.1 268.34 563.33 c 0,0,0
 268.34 345.43 268.34 345.43 381.1 228.335 c 0,0,0
 493.86 111.24 493.86 111.24 709.07 111.24 c 0,0,0
 872.81 111.24 872.81 111.24 989.33 167.8 c 1,0,0
 1197.28 1241.2 l 1,0,0
EndSplineSet
EndChar

StartChar: uni01A3
Encoding: 419 419 356
Width: 1322
GlyphClass: 2
Flags: HW
LayerCount: 2
Fore
SplineSet
483.08 -20 m 0,0,0
 290.38 -20 290.38 -20 177.04 96.505 c 0,0,0
 63.7 213.01 63.7 213.01 63.7 418.67 c 0,0,0
 63.7 599.38 63.7 599.38 128.4 767.02 c 0,0,0
 193.43 933.66 193.43 933.66 314.815 1017.165 c 0,0,0
 436.2 1100.67 436.2 1100.67 620.88 1100.67 c 0,0,0
 696.95 1100.67 696.95 1100.67 765.515 1083.815 c 0,0,0
 834.08 1066.96 834.08 1066.96 906.36 1028.63 c 1,0,0
 1239.86 1090.03 l 1,0,0
 1271.64 1090.03 l 1,0,0
 977.3 -425 l 1,0,0
 828.04 -425 l 1,0,0
 1091.68 931.53 l 1,0,0
 904.33 931.53 l 1,0,0
 724.73 33.71 l 1,0,0
 625.24 -20 625.24 -20 483.08 -20 c 0,0,0
763.39 966.83 m 1,0,0
 692.17 988.8 692.17 988.8 623.17 988.8 c 0,0,0
 474.97 988.8 474.97 988.8 391.33 918.15 c 0,0,0
 335.68 871.16 335.68 871.16 296.19 786.04 c 0,0,0
 256.7 700.92 256.7 700.92 235.54 602.46 c 0,0,0
 214.38 504 214.38 504 214.38 417.32 c 0,0,0
 214.38 260.08 214.38 260.08 284.155 176.805 c 0,0,0
 353.93 93.53 353.93 93.53 485.5 93.53 c 0,0,0
 544.17 93.53 544.17 93.53 597.79 105.85 c 1,0,0
 763.39 966.83 l 1,0,0
EndSplineSet
EndChar

StartChar: uni01A4
Encoding: 420 420 357
Width: 1489
GlyphClass: 2
Flags: HW
LayerCount: 2
Fore
SplineSet
968.47 1409 m 2,0,0
 1194.52 1409 1194.52 1409 1329.025 1307.64 c 0,0,0
 1463.53 1206.28 1463.53 1206.28 1463.53 1030.89 c 0,0,0
 1463.53 886.21 1463.53 886.21 1394.695 781.695 c 0,0,0
 1325.86 677.18 1325.86 677.18 1198.03 621.835 c 0,0,0
 1070.2 566.49 1070.2 566.49 892.88 566.49 c 2,0,0
 440.5 566.49 l 1,0,0
 331.86 0 l 1,0,0
 174.85 0 l 1,0,0
 423.14 1282.78 l 1,0,0
 411.11 1282.78 l 2,0,0
 309.85 1282.78 309.85 1282.78 260.545 1227.49 c 0,0,0
 211.24 1172.2 211.24 1172.2 211.24 1073.27 c 0,0,0
 212.57 1062.25 212.57 1062.25 212.91 1054.21 c 0,0,0
 213.25 1046.17 213.25 1046.17 212.6 1038.78 c 1,0,0
 90.01 1021.78 l 1,0,0
 85.35 1034.13 85.35 1034.13 83.185 1046.985 c 0,0,0
 81.02 1059.84 81.02 1059.84 81.02 1070.21 c 0,0,0
 81.02 1230.64 81.02 1230.64 170.2 1319.82 c 0,0,0
 259.38 1409 259.38 1409 422.8 1409 c 2,0,0
 968.47 1409 l 2,0,0
466.21 692.41 m 1,0,0
 898.42 692.41 l 2,0,0
 1101.63 692.41 1101.63 692.41 1202.905 777.01 c 0,0,0
 1304.18 861.61 1304.18 861.61 1304.18 1024.2 c 0,0,0
 1304.18 1148.81 1304.18 1148.81 1220.23 1214.945 c 0,0,0
 1136.28 1281.08 1136.28 1281.08 971.06 1281.08 c 2,0,0
 580.48 1281.08 l 1,0,0
 466.21 692.41 l 1,0,0
EndSplineSet
EndChar

StartChar: uni01A5
Encoding: 421 421 358
Width: 1102
GlyphClass: 2
Flags: HW
LayerCount: 2
Fore
SplineSet
518.36 -20 m 0,0,0
 396.02 -20 396.02 -20 318.685 32 c 0,0,0
 241.35 84 241.35 84 209.35 178 c 1,0,0
 203.36 178 l 1,0,0
 198.37 142.72 198.37 142.72 193.21 107.935 c 0,0,0
 188.05 73.15 188.05 73.15 182.06 38.53 c 0,0,0
 153.79 -117.12 153.79 -117.12 130.45 -232.505 c 0,0,0
 107.11 -347.89 107.11 -347.89 92.69 -425 c 1,0,0
 -52.98 -425 l 1,0,0
 269.98 1234.2 l 2,0,0
 293.66 1358.61 293.66 1358.61 368.535 1430.615 c 0,0,0
 443.41 1502.62 443.41 1502.62 549.56 1502.62 c 0,0,0
 617.58 1502.62 617.58 1502.62 656.74 1481.29 c 1,0,0
 631.37 1347.78 l 1,0,0
 590.3 1369.43 590.3 1369.43 559.63 1369.43 c 0,0,0
 495.31 1369.43 495.31 1369.43 458.81 1317.14 c 0,0,0
 422.31 1264.85 422.31 1264.85 401.66 1159.27 c 2,0,0
 356 928.96 l 1,0,0
 357.34 928.96 l 1,0,0
 433 1021.32 433 1021.32 512.345 1061.66 c 0,0,0
 591.69 1102 591.69 1102 705.69 1102 c 0,0,0
 862.03 1102 862.03 1102 949.035 1007.5 c 0,0,0
 1036.04 913 1036.04 913 1036.04 748 c 0,0,0
 1036.04 543.01 1036.04 543.01 975.37 355 c 0,0,0
 914.7 165.66 914.7 165.66 802.865 72.83 c 0,0,0
 691.03 -20 691.03 -20 518.36 -20 c 0,0,0
676.13 981.48 m 0,0,0
 473.91 981.48 473.91 981.48 370.63 812.55 c 0,0,0
 336.98 756.57 336.98 756.57 311.66 678.435 c 0,0,0
 286.34 600.3 286.34 600.3 273.345 519.17 c 0,0,0
 260.35 438.04 260.35 438.04 260.35 369.08 c 0,0,0
 260.35 238.14 260.35 238.14 327.315 165.67 c 0,0,0
 394.28 93.2 394.28 93.2 513.22 93.2 c 0,0,0
 642.82 93.2 642.82 93.2 716.45 168.84 c 0,0,0
 767.09 218.16 767.09 218.16 804.4 314.785 c 0,0,0
 841.71 411.41 841.71 411.41 862.695 522.025 c 0,0,0
 883.68 632.64 883.68 632.64 883.68 723.26 c 0,0,0
 883.68 851.87 883.68 851.87 833.875 916.675 c 0,0,0
 784.07 981.48 784.07 981.48 676.13 981.48 c 0,0,0
EndSplineSet
EndChar

StartChar: uni01A6
Encoding: 422 422 359
Width: 1366
GlyphClass: 2
Flags: HW
LayerCount: 2
Fore
SplineSet
976.97 -315.7 m 1,0,0
 752.42 454.76 l 1,0,0
 315.55 454.76 l 1,0,0
 228.59 0 l 1,0,0
 71.91 0 l 1,0,0
 345.57 1408.67 l 1,0,0
 500.23 1408.67 l 1,0,0
 471.22 1261.93 l 1,0,0
 877.9 1261.93 l 2,0,0
 1052.53 1261.93 1052.53 1261.93 1173.51 1187.66 c 0,0,0
 1247.94 1139.99 1247.94 1139.99 1290.98 1066.945 c 0,0,0
 1334.02 993.9 1334.02 993.9 1334.02 902.82 c 0,0,0
 1334.02 707.23 1334.02 707.23 1226.185 598.88 c 0,0,0
 1118.35 490.53 1118.35 490.53 899.1 461.2 c 1,0,0
 1143.37 -315.7 l 1,0,0
 976.97 -315.7 l 1,0,0
786.24 579.69 m 2,0,0
 979.12 579.69 979.12 579.69 1076.895 660.8 c 0,0,0
 1174.67 741.91 1174.67 741.91 1174.67 888.48 c 0,0,0
 1174.67 1007.08 1174.67 1007.08 1096.54 1070.545 c 0,0,0
 1018.41 1134.01 1018.41 1134.01 859.52 1134.01 c 2,0,0
 448.2 1134.01 l 1,0,0
 340.6 579.69 l 1,0,0
 786.24 579.69 l 2,0,0
EndSplineSet
EndChar

StartChar: uni01A7
Encoding: 423 423 360
Width: 1366
GlyphClass: 2
Flags: HW
LayerCount: 2
Fore
SplineSet
1172.41 1100.94 m 0,0,0
 1172.41 1200.87 1172.41 1200.87 1088.305 1254.16 c 0,0,0
 1004.2 1307.45 1004.2 1307.45 851.95 1307.45 c 0,0,0
 687.38 1307.45 687.38 1307.45 578.295 1243.495 c 0,0,0
 469.21 1179.54 469.21 1179.54 407.93 1038 c 1,0,0
 260.27 1069.02 l 1,0,0
 322.58 1199.02 322.58 1199.02 403.08 1278.68 c 0,0,0
 483.58 1358.34 483.58 1358.34 596.1 1394.17 c 0,0,0
 708.62 1430 708.62 1430 863.66 1430 c 0,0,0
 1081.02 1430 1081.02 1430 1202.055 1344.985 c 0,0,0
 1323.09 1259.97 1323.09 1259.97 1323.09 1103.63 c 0,0,0
 1323.09 1020.95 1323.09 1020.95 1298.76 960.275 c 0,0,0
 1274.43 899.6 1274.43 899.6 1231.77 856.59 c 0,0,0
 1185.78 811.25 1185.78 811.25 1112.16 772.6 c 0,0,0
 1063.52 747.94 1063.52 747.94 1003.725 729.44 c 0,0,0
 943.93 710.94 943.93 710.94 849 692.605 c 0,0,0
 754.07 674.27 754.07 674.27 600.85 644.95 c 0,0,0
 510.52 629.27 510.52 629.27 448.47 604.45 c 0,0,0
 386.42 579.63 386.42 579.63 346.03 547.31 c 0,0,0
 291.01 505.68 291.01 505.68 268.97 452.38 c 0,0,0
 246.93 399.08 246.93 399.08 246.93 335.42 c 0,0,0
 246.93 227.46 246.93 227.46 342.53 166.35 c 0,0,0
 438.13 105.24 438.13 105.24 597.4 105.24 c 0,0,0
 721.78 105.24 721.78 105.24 813.11 134.28 c 0,0,0
 918.64 169.59 918.64 169.59 991.22 243.01 c 0,0,0
 1063.8 316.43 1063.8 316.43 1125.38 463.21 c 1,0,0
 1264.09 417.2 l 1,0,0
 1164.14 175.99 1164.14 175.99 1003.93 77.995 c 0,0,0
 843.72 -20 843.72 -20 593.66 -20 c 0,0,0
 354.29 -20 354.29 -20 222.77 73.675 c 0,0,0
 91.25 167.35 91.25 167.35 91.25 343.67 c 0,0,0
 91.25 420.11 91.25 420.11 112.97 478.85 c 0,0,0
 134.69 537.59 134.69 537.59 164.19 581.3 c 0,0,0
 212.84 636.23 212.84 636.23 280.14 674.855 c 0,0,0
 347.44 713.48 347.44 713.48 429.73 740.79 c 0,0,0
 461.7 752.44 461.7 752.44 515.615 765.255 c 0,0,0
 569.53 778.07 569.53 778.07 643.4 794.04 c 2,0,0
 708.61 807.42 l 2,0,0
 814.25 827.42 814.25 827.42 888.225 847.08 c 0,0,0
 962.2 866.74 962.2 866.74 1004.84 884.73 c 0,0,0
 1090.45 919.71 1090.45 919.71 1131.43 971.845 c 0,0,0
 1172.41 1023.98 1172.41 1023.98 1172.41 1100.94 c 0,0,0
EndSplineSet
EndChar

StartChar: uni01A8
Encoding: 424 424 361
Width: 986
GlyphClass: 2
Flags: HW
LayerCount: 2
Fore
SplineSet
558.87 977.18 m 0,0,0
 444.57 977.18 444.57 977.18 381.095 941.855 c 0,0,0
 317.62 906.53 317.62 906.53 284.64 820.91 c 1,0,0
 165.66 876.17 l 1,0,0
 200.04 990.25 200.04 990.25 301.265 1046.625 c 0,0,0
 402.49 1103 402.49 1103 567.59 1103 c 0,0,0
 739.65 1103 739.65 1103 833.015 1032.825 c 0,0,0
 926.38 962.65 926.38 962.65 926.38 839.59 c 0,0,0
 926.38 764.53 926.38 764.53 894.835 711.99 c 0,0,0
 863.29 659.45 863.29 659.45 790.57 615.78 c 0,0,0
 713.53 570.45 713.53 570.45 580.52 524.75 c 0,0,0
 389.7 466.83 389.7 466.83 331.05 440.48 c 0,0,0
 266.81 408.85 266.81 408.85 235.355 370.225 c 0,0,0
 203.9 331.6 203.9 331.6 203.9 272.35 c 0,0,0
 203.9 106.15 203.9 106.15 439.81 106.15 c 0,0,0
 566.43 106.15 566.43 106.15 635.42 144.8 c 0,0,0
 704.41 183.45 704.41 183.45 732.11 269.76 c 1,0,0
 848.42 207.49 l 1,0,0
 817.34 98.37 817.34 98.37 711.795 39.185 c 0,0,0
 606.25 -20 606.25 -20 438.77 -20 c 0,0,0
 248.39 -20 248.39 -20 147.68 52.18 c 0,0,0
 46.97 124.36 46.97 124.36 46.97 268.67 c 0,0,0
 46.97 350.74 46.97 350.74 87.65 411.77 c 0,0,0
 114.66 453.12 114.66 453.12 159 486.46 c 0,0,0
 203.34 519.8 203.34 519.8 278.195 552.625 c 0,0,0
 353.05 585.45 353.05 585.45 470.1 621.76 c 2,0,0
 555.2 649.75 l 1,0,0
 685.45 698.01 685.45 698.01 730.615 734.49 c 0,0,0
 775.78 770.97 775.78 770.97 775.78 841.25 c 0,0,0
 775.78 904.58 775.78 904.58 718.975 940.88 c 0,0,0
 662.17 977.18 662.17 977.18 558.87 977.18 c 0,0,0
EndSplineSet
EndChar

StartChar: uni01AA
Encoding: 426 426 363
Width: 663
GlyphClass: 2
Flags: HW
LayerCount: 2
Fore
SplineSet
183.92 1285.6 m 0,0,0
 183.92 1377.98 183.92 1377.98 249.935 1436.975 c 0,0,0
 315.95 1495.97 315.95 1495.97 414.7 1495.97 c 0,0,0
 512.47 1495.97 512.47 1495.97 563.36 1448.245 c 0,0,0
 614.25 1400.52 614.25 1400.52 614.25 1306.11 c 0,0,0
 614.25 1274.36 614.25 1274.36 602.58 1211.03 c 2,0,0
 338.34 -142.48 l 2,0,0
 333.34 -176.79 333.34 -176.79 333.34 -192.48 c 0,0,0
 333.34 -286.14 333.34 -286.14 428.01 -286.14 c 0,0,0
 459.31 -286.14 459.31 -286.14 481.855 -283.47 c 0,0,0
 504.4 -280.8 504.4 -280.8 533.04 -272.81 c 1,0,0
 506.67 -413.32 l 1,0,0
 442.98 -425 442.98 -425 389.83 -425 c 0,0,0
 298.38 -425 298.38 -425 243.345 -365.505 c 0,0,0
 188.31 -306.01 188.31 -306.01 188.31 -204.31 c 0,0,0
 188.31 -163.65 188.31 -163.65 196.65 -119.94 c 2,0,0
 448.6 1166.48 l 1,0,0
 400.95 1131.54 400.95 1131.54 336.98 1131.54 c 0,0,0
 263.64 1131.54 263.64 1131.54 223.78 1174.055 c 0,0,0
 183.92 1216.57 183.92 1216.57 183.92 1285.6 c 0,0,0
386.64 1430.18 m 0,0,0
 328.68 1430.18 328.68 1430.18 288.385 1387.89 c 0,0,0
 248.09 1345.6 248.09 1345.6 248.09 1286.31 c 0,0,0
 248.09 1244.31 248.09 1244.31 270.43 1223.3 c 0,0,0
 292.77 1202.29 292.77 1202.29 334.77 1202.29 c 0,0,0
 395.39 1202.29 395.39 1202.29 437.015 1243.25 c 0,0,0
 478.64 1284.21 478.64 1284.21 478.64 1342.17 c 0,0,0
 478.64 1384.17 478.64 1384.17 454.97 1407.175 c 0,0,0
 431.3 1430.18 431.3 1430.18 386.64 1430.18 c 0,0,0
EndSplineSet
EndChar

StartChar: uni01AB
Encoding: 427 427 364
Width: 531
GlyphClass: 2
Flags: HW
LayerCount: 2
Fore
SplineSet
117.79 -424.34 m 0,0,0
 56.75 -424.34 56.75 -424.34 18.63 -403.01 c 1,0,0
 44.33 -265.85 l 1,0,0
 85.4 -287.5 85.4 -287.5 114.09 -287.5 c 0,0,0
 180.72 -287.5 180.72 -287.5 209.91 -236.22 c 0,0,0
 239.1 -184.94 239.1 -184.94 256.43 -81.33 c 2,0,0
 265.44 -22.97 l 1,0,0
 182.09 -27.59 182.09 -27.59 133.75 22.255 c 0,0,0
 85.41 72.1 85.41 72.1 85.41 151.81 c 0,0,0
 85.41 200.54 85.41 200.54 100.08 272.9 c 2,0,0
 234 970.47 l 1,0,0
 116.59 970.47 l 1,0,0
 138.96 1082 l 1,0,0
 254.41 1082 l 1,0,0
 348.85 1320.04 l 1,0,0
 450.37 1320.04 l 1,0,0
 403.7 1082 l 1,0,0
 603.04 1082 l 1,0,0
 580.01 970.47 l 1,0,0
 381.66 970.47 l 1,0,0
 249.73 289.17 l 2,0,0
 237.4 228.51 237.4 228.51 237.4 192.19 c 0,0,0
 237.4 148.85 237.4 148.85 259.57 127.015 c 0,0,0
 281.74 105.18 281.74 105.18 328.39 105.18 c 0,0,0
 369.04 105.18 369.04 105.18 425.75 119.51 c 1,0,0
 386.37 -167.89 l 2,0,0
 369.01 -298.92 369.01 -298.92 301.45 -361.63 c 0,0,0
 233.89 -424.34 233.89 -424.34 117.79 -424.34 c 0,0,0
EndSplineSet
EndChar

StartChar: uni01AC
Encoding: 428 428 365
Width: 1251
GlyphClass: 2
Flags: HW
LayerCount: 2
Fore
SplineSet
839.85 1276.76 m 1,0,0
 591.23 0 l 1,0,0
 435.88 0 l 1,0,0
 684.5 1276.76 l 1,0,0
 476.23 1276.76 l 2,0,0
 280.35 1276.76 280.35 1276.76 280.35 1073.27 c 0,0,0
 281.68 1064.23 281.68 1064.23 282.02 1057.345 c 0,0,0
 282.36 1050.46 282.36 1050.46 281.71 1043.07 c 1,0,0
 159.12 1026.07 l 1,0,0
 150.13 1053.43 150.13 1053.43 150.13 1070.21 c 0,0,0
 150.13 1230.64 150.13 1230.64 239.31 1319.82 c 0,0,0
 328.49 1409 328.49 1409 491.91 1409 c 2,0,0
 1364.41 1409 l 1,0,0
 1339.03 1276.76 l 1,0,0
 839.85 1276.76 l 1,0,0
EndSplineSet
EndChar

StartChar: uni01AD
Encoding: 429 429 366
Width: 531
GlyphClass: 2
Flags: HW
LayerCount: 2
Fore
SplineSet
241.67 -21.32 m 0,0,0
 169.54 -21.32 169.54 -21.32 127.475 27.205 c 0,0,0
 85.41 75.73 85.41 75.73 85.41 151.81 c 0,0,0
 85.41 200.54 85.41 200.54 100.08 272.9 c 2,0,0
 234 970.47 l 1,0,0
 116.59 970.47 l 1,0,0
 138.96 1082 l 1,0,0
 257.7 1082 l 1,0,0
 288.67 1231.54 l 2,0,0
 313.68 1351.96 313.68 1351.96 383.9 1427.29 c 0,0,0
 454.12 1502.62 454.12 1502.62 565.59 1502.62 c 0,0,0
 633.61 1502.62 633.61 1502.62 672.77 1481.29 c 1,0,0
 647.4 1344.48 l 1,0,0
 606.33 1366.13 606.33 1366.13 575.66 1366.13 c 0,0,0
 511.34 1366.13 511.34 1366.13 475.505 1313.175 c 0,0,0
 439.67 1260.22 439.67 1260.22 417.69 1150.65 c 2,0,0
 403.7 1082 l 1,0,0
 603.04 1082 l 1,0,0
 580.01 970.47 l 1,0,0
 381.66 970.47 l 1,0,0
 249.73 289.17 l 2,0,0
 237.4 228.51 237.4 228.51 237.4 192.19 c 0,0,0
 237.4 148.85 237.4 148.85 259.57 127.015 c 0,0,0
 281.74 105.18 281.74 105.18 328.39 105.18 c 0,0,0
 369.04 105.18 369.04 105.18 425.75 119.51 c 1,0,0
 411.04 2.68 l 1,0,0
 306.1 -21.32 306.1 -21.32 241.67 -21.32 c 0,0,0
EndSplineSet
EndChar

StartChar: uni01AE
Encoding: 430 430 367
Width: 1251
GlyphClass: 2
Flags: HW
LayerCount: 2
Fore
SplineSet
196.87 1276.76 m 1,0,0
 222.25 1409 l 1,0,0
 1364.41 1409 l 1,0,0
 1339.03 1276.76 l 1,0,0
 845.79 1276.76 l 1,0,0
 572.21 -131.11 l 2,0,0
 563.88 -177.74 563.88 -177.74 563.88 -203.42 c 0,0,0
 563.88 -288.44 563.88 -288.44 640.26 -288.44 c 0,0,0
 708.83 -288.44 708.83 -288.44 754.22 -271.45 c 1,0,0
 727.18 -408.99 l 1,0,0
 662.1 -425 662.1 -425 603.4 -425 c 0,0,0
 506.62 -425 506.62 -425 454.575 -371.81 c 0,0,0
 402.53 -318.62 402.53 -318.62 402.53 -230.84 c 0,0,0
 402.53 -202.08 402.53 -202.08 413.87 -143.73 c 2,0,0
 690.44 1276.76 l 1,0,0
 196.87 1276.76 l 1,0,0
EndSplineSet
EndChar

StartChar: Uhorn
Encoding: 431 431 368
Width: 1614
GlyphClass: 2
Flags: HW
LayerCount: 2
Fore
SplineSet
648.06 -20 m 0,0,0
 426.62 -20 426.62 -20 295.42 100.825 c 0,0,0
 164.22 221.65 164.22 221.65 164.22 431 c 0,0,0
 164.22 517 164.22 517 187.22 635 c 2,0,0
 337.88 1409 l 1,0,0
 494.56 1409 l 1,0,0
 329.59 555.11 l 2,0,0
 312.92 464.12 312.92 464.12 312.92 421.68 c 0,0,0
 312.92 274.79 312.92 274.79 405.205 192.355 c 0,0,0
 497.49 109.92 497.49 109.92 664.06 109.92 c 0,0,0
 864.97 109.92 864.97 109.92 990.37 219.835 c 0,0,0
 1115.77 329.75 1115.77 329.75 1155.09 541 c 2,0,0
 1323.09 1409 l 1,0,0
 1478.44 1409 l 1,0,0
 1405.06 1028.77 l 1,0,0
 1648.41 1079.39 1648.41 1079.39 1693.37 1272.69 c 1,0,0
 1618.24 1272.69 l 1,0,0
 1647.96 1409 l 1,0,0
 1812.6 1409 l 1,0,0
 1798.53 1344.63 l 2,0,0
 1762.2 1167.3 1762.2 1167.3 1664.82 1077.105 c 0,0,0
 1567.44 986.91 1567.44 986.91 1390.03 953.94 c 1,0,0
 1308.77 530 l 2,0,0
 1259.09 264.96 1259.09 264.96 1090.1 122.48 c 0,0,0
 921.11 -20 921.11 -20 648.06 -20 c 0,0,0
EndSplineSet
EndChar

